<ttFont>
    <TTGlyph name="A" xMin="-3" yMin="-15" xMax="527" yMax="671">
      <contour>
        <pt x="184" y="671" on="1"/>
        <pt x="274" y="651" on="0"/>
        <pt x="457" y="651" on="0"/>
        <pt x="521" y="662" on="1"/>
        <pt x="527" y="657" on="1"/>
        <pt x="513" y="598" on="0"/>
        <pt x="493" y="321" on="0"/>
        <pt x="493" y="58" on="0"/>
        <pt x="504" y="0" on="1"/>
        <pt x="370" y="-4" on="0"/>
        <pt x="317" y="-15" on="1"/>
        <pt x="311" y="-10" on="1"/>
        <pt x="329" y="69" on="0"/>
        <pt x="338" y="213" on="1"/>
        <pt x="317" y="219" on="0"/>
        <pt x="273" y="219" on="0"/>
        <pt x="237" y="219" on="0"/>
        <pt x="212" y="213" on="1"/>
        <pt x="191" y="128" on="0"/>
        <pt x="191" y="34" on="0"/>
        <pt x="198" y="-1" on="1"/>
        <pt x="91" y="-1" on="0"/>
        <pt x="11" y="-15" on="1"/>
        <pt x="-1" y="-7" on="1"/>
        <pt x="197" y="572" on="1"/>
        <pt x="220" y="580" on="0"/>
        <pt x="251" y="587" on="1"/>
        <pt x="252" y="594" on="1"/>
        <pt x="122" y="594" on="0"/>
        <pt x="87" y="561" on="1"/>
        <pt x="85" y="553" on="0"/>
        <pt x="85" y="545" on="1"/>
        <pt x="85" y="513" on="0"/>
        <pt x="99" y="492" on="1"/>
        <pt x="99" y="484" on="1"/>
        <pt x="57" y="449" on="0"/>
        <pt x="31" y="399" on="1"/>
        <pt x="14" y="399" on="0"/>
        <pt x="-3" y="429" on="0"/>
        <pt x="-3" y="449" on="1"/>
        <pt x="-3" y="525" on="0"/>
        <pt x="103" y="641" on="0"/>
      </contour>
      <contour>
        <pt x="226" y="289" on="1"/>
        <pt x="244" y="282" on="0"/>
        <pt x="322" y="282" on="0"/>
        <pt x="341" y="290" on="1"/>
        <pt x="346" y="398" on="0"/>
        <pt x="346" y="542" on="0"/>
        <pt x="342" y="591" on="1"/>
        <pt x="338" y="594" on="0"/>
        <pt x="311" y="594" on="0"/>
        <pt x="305" y="591" on="1"/>
        <pt x="287" y="564" on="0"/>
        <pt x="275" y="503" on="1"/>
      </contour>
    </TTGlyph>
    <TTGlyph name="AE" xMin="-3" yMin="-15" xMax="725" yMax="671">
      <contour>
        <pt x="85" y="545" on="1"/>
        <pt x="85" y="513" on="0"/>
        <pt x="99" y="492" on="1"/>
        <pt x="99" y="484" on="1"/>
        <pt x="57" y="449" on="0"/>
        <pt x="31" y="399" on="1"/>
        <pt x="14" y="399" on="0"/>
        <pt x="-3" y="429" on="0"/>
        <pt x="-3" y="449" on="1"/>
        <pt x="-3" y="525" on="0"/>
        <pt x="103" y="641" on="0"/>
        <pt x="184" y="671" on="1"/>
        <pt x="274" y="651" on="0"/>
        <pt x="628" y="651" on="0"/>
        <pt x="715" y="666" on="1"/>
        <pt x="721" y="655" on="1"/>
        <pt x="679" y="607" on="0"/>
        <pt x="674" y="497" on="1"/>
        <pt x="657" y="497" on="1"/>
        <pt x="648" y="525" on="0"/>
        <pt x="641" y="573" on="1"/>
        <pt x="595" y="594" on="0"/>
        <pt x="545" y="594" on="1"/>
        <pt x="526" y="594" on="0"/>
        <pt x="501" y="589" on="1"/>
        <pt x="490" y="515" on="0"/>
        <pt x="481" y="373" on="1"/>
        <pt x="500" y="369" on="0"/>
        <pt x="585" y="369" on="0"/>
        <pt x="636" y="386" on="1"/>
        <pt x="641" y="380" on="1"/>
        <pt x="635" y="363" on="0"/>
        <pt x="626" y="296" on="1"/>
        <pt x="556" y="306" on="0"/>
        <pt x="489" y="306" on="0"/>
        <pt x="478" y="304" on="1"/>
        <pt x="476" y="270" on="0"/>
        <pt x="476" y="216" on="0"/>
        <pt x="481" y="163" on="0"/>
        <pt x="490" y="132" on="1"/>
        <pt x="507" y="71" on="0"/>
        <pt x="569" y="71" on="1"/>
        <pt x="596" y="109" on="0"/>
        <pt x="596" y="166" on="1"/>
        <pt x="596" y="184" on="0"/>
        <pt x="593" y="197" on="1"/>
        <pt x="600" y="202" on="1"/>
        <pt x="665" y="203" on="0"/>
        <pt x="725" y="213" on="1"/>
        <pt x="713" y="147" on="0"/>
        <pt x="597" y="19" on="0"/>
        <pt x="529" y="-15" on="1"/>
        <pt x="412" y="-15" on="0"/>
        <pt x="324" y="90" on="0"/>
        <pt x="324" y="214" on="1"/>
        <pt x="324" y="260" on="0"/>
        <pt x="327" y="303" on="1"/>
        <pt x="308" y="306" on="0"/>
        <pt x="257" y="306" on="0"/>
        <pt x="233" y="303" on="1"/>
        <pt x="201" y="133" on="0"/>
        <pt x="201" y="61" on="1"/>
        <pt x="201" y="34" on="0"/>
        <pt x="208" y="-1" on="1"/>
        <pt x="101" y="-1" on="0"/>
        <pt x="21" y="-15" on="1"/>
        <pt x="9" y="-7" on="1"/>
        <pt x="197" y="572" on="1"/>
        <pt x="220" y="580" on="0"/>
        <pt x="251" y="587" on="1"/>
        <pt x="252" y="594" on="1"/>
        <pt x="122" y="594" on="0"/>
        <pt x="87" y="561" on="1"/>
        <pt x="85" y="553" on="0"/>
      </contour>
      <contour>
        <pt x="247" y="372" on="1"/>
        <pt x="266" y="369" on="0"/>
        <pt x="318" y="369" on="0"/>
        <pt x="330" y="371" on="1"/>
        <pt x="332" y="431" on="0"/>
        <pt x="332" y="528" on="0"/>
        <pt x="329" y="592" on="1"/>
        <pt x="325" y="594" on="0"/>
        <pt x="309" y="594" on="0"/>
        <pt x="303" y="592" on="1"/>
        <pt x="291" y="575" on="0"/>
        <pt x="275" y="503" on="1"/>
      </contour>
    </TTGlyph>
    <TTGlyph name="Aacute" xMin="-3" yMin="-15" xMax="591" yMax="907">
      <contour>
        <pt x="184" y="671" on="1"/>
        <pt x="274" y="651" on="0"/>
        <pt x="457" y="651" on="0"/>
        <pt x="521" y="662" on="1"/>
        <pt x="527" y="657" on="1"/>
        <pt x="513" y="598" on="0"/>
        <pt x="493" y="321" on="0"/>
        <pt x="493" y="58" on="0"/>
        <pt x="504" y="0" on="1"/>
        <pt x="370" y="-4" on="0"/>
        <pt x="317" y="-15" on="1"/>
        <pt x="311" y="-10" on="1"/>
        <pt x="329" y="69" on="0"/>
        <pt x="338" y="213" on="1"/>
        <pt x="317" y="219" on="0"/>
        <pt x="273" y="219" on="0"/>
        <pt x="237" y="219" on="0"/>
        <pt x="212" y="213" on="1"/>
        <pt x="191" y="128" on="0"/>
        <pt x="191" y="34" on="0"/>
        <pt x="198" y="-1" on="1"/>
        <pt x="91" y="-1" on="0"/>
        <pt x="11" y="-15" on="1"/>
        <pt x="-1" y="-7" on="1"/>
        <pt x="197" y="572" on="1"/>
        <pt x="220" y="580" on="0"/>
        <pt x="251" y="587" on="1"/>
        <pt x="252" y="594" on="1"/>
        <pt x="122" y="594" on="0"/>
        <pt x="87" y="561" on="1"/>
        <pt x="85" y="553" on="0"/>
        <pt x="85" y="545" on="1"/>
        <pt x="85" y="513" on="0"/>
        <pt x="99" y="492" on="1"/>
        <pt x="99" y="484" on="1"/>
        <pt x="57" y="449" on="0"/>
        <pt x="31" y="399" on="1"/>
        <pt x="14" y="399" on="0"/>
        <pt x="-3" y="429" on="0"/>
        <pt x="-3" y="449" on="1"/>
        <pt x="-3" y="525" on="0"/>
        <pt x="103" y="641" on="0"/>
      </contour>
      <contour>
        <pt x="226" y="289" on="1"/>
        <pt x="244" y="282" on="0"/>
        <pt x="322" y="282" on="0"/>
        <pt x="341" y="290" on="1"/>
        <pt x="346" y="398" on="0"/>
        <pt x="346" y="542" on="0"/>
        <pt x="342" y="591" on="1"/>
        <pt x="338" y="594" on="0"/>
        <pt x="311" y="594" on="0"/>
        <pt x="305" y="591" on="1"/>
        <pt x="287" y="564" on="0"/>
        <pt x="275" y="503" on="1"/>
      </contour>
      <contour>
        <pt x="510" y="906" on="1"/>
        <pt x="524" y="907" on="0"/>
        <pt x="553" y="907" on="0"/>
        <pt x="564" y="905" on="1"/>
        <pt x="573" y="896" on="0"/>
        <pt x="591" y="819" on="0"/>
        <pt x="591" y="802" on="1"/>
        <pt x="317" y="726" on="1"/>
        <pt x="306" y="751" on="1"/>
        <pt x="358" y="778" on="0"/>
        <pt x="412" y="809" on="0"/>
        <pt x="492" y="874" on="0"/>
      </contour>
    </TTGlyph>
    <TTGlyph name="Acircumflex" xMin="-3" yMin="-15" xMax="577" yMax="906">
      <contour>
        <pt x="184" y="671" on="1"/>
        <pt x="274" y="651" on="0"/>
        <pt x="457" y="651" on="0"/>
        <pt x="521" y="662" on="1"/>
        <pt x="527" y="657" on="1"/>
        <pt x="513" y="598" on="0"/>
        <pt x="493" y="321" on="0"/>
        <pt x="493" y="58" on="0"/>
        <pt x="504" y="0" on="1"/>
        <pt x="370" y="-4" on="0"/>
        <pt x="317" y="-15" on="1"/>
        <pt x="311" y="-10" on="1"/>
        <pt x="329" y="69" on="0"/>
        <pt x="338" y="213" on="1"/>
        <pt x="317" y="219" on="0"/>
        <pt x="273" y="219" on="0"/>
        <pt x="237" y="219" on="0"/>
        <pt x="212" y="213" on="1"/>
        <pt x="191" y="128" on="0"/>
        <pt x="191" y="34" on="0"/>
        <pt x="198" y="-1" on="1"/>
        <pt x="91" y="-1" on="0"/>
        <pt x="11" y="-15" on="1"/>
        <pt x="-1" y="-7" on="1"/>
        <pt x="197" y="572" on="1"/>
        <pt x="220" y="580" on="0"/>
        <pt x="251" y="587" on="1"/>
        <pt x="252" y="594" on="1"/>
        <pt x="122" y="594" on="0"/>
        <pt x="87" y="561" on="1"/>
        <pt x="85" y="553" on="0"/>
        <pt x="85" y="545" on="1"/>
        <pt x="85" y="513" on="0"/>
        <pt x="99" y="492" on="1"/>
        <pt x="99" y="484" on="1"/>
        <pt x="57" y="449" on="0"/>
        <pt x="31" y="399" on="1"/>
        <pt x="14" y="399" on="0"/>
        <pt x="-3" y="429" on="0"/>
        <pt x="-3" y="449" on="1"/>
        <pt x="-3" y="525" on="0"/>
        <pt x="103" y="641" on="0"/>
      </contour>
      <contour>
        <pt x="226" y="289" on="1"/>
        <pt x="244" y="282" on="0"/>
        <pt x="322" y="282" on="0"/>
        <pt x="341" y="290" on="1"/>
        <pt x="346" y="398" on="0"/>
        <pt x="346" y="542" on="0"/>
        <pt x="342" y="591" on="1"/>
        <pt x="338" y="594" on="0"/>
        <pt x="311" y="594" on="0"/>
        <pt x="305" y="591" on="1"/>
        <pt x="287" y="564" on="0"/>
        <pt x="275" y="503" on="1"/>
      </contour>
      <contour>
        <pt x="566" y="726" on="1"/>
        <pt x="360" y="786" on="1"/>
        <pt x="174" y="726" on="1"/>
        <pt x="163" y="751" on="1"/>
        <pt x="311" y="828" on="0"/>
        <pt x="357" y="906" on="1"/>
        <pt x="403" y="906" on="1"/>
        <pt x="458" y="813" on="0"/>
        <pt x="577" y="751" on="1"/>
      </contour>
    </TTGlyph>
    <TTGlyph name="Adieresis" xMin="-3" yMin="-15" xMax="563" yMax="896">
      <contour>
        <pt x="184" y="671" on="1"/>
        <pt x="274" y="651" on="0"/>
        <pt x="457" y="651" on="0"/>
        <pt x="521" y="662" on="1"/>
        <pt x="527" y="657" on="1"/>
        <pt x="513" y="598" on="0"/>
        <pt x="493" y="321" on="0"/>
        <pt x="493" y="58" on="0"/>
        <pt x="504" y="0" on="1"/>
        <pt x="370" y="-4" on="0"/>
        <pt x="317" y="-15" on="1"/>
        <pt x="311" y="-10" on="1"/>
        <pt x="329" y="69" on="0"/>
        <pt x="338" y="213" on="1"/>
        <pt x="317" y="219" on="0"/>
        <pt x="273" y="219" on="0"/>
        <pt x="237" y="219" on="0"/>
        <pt x="212" y="213" on="1"/>
        <pt x="191" y="128" on="0"/>
        <pt x="191" y="34" on="0"/>
        <pt x="198" y="-1" on="1"/>
        <pt x="91" y="-1" on="0"/>
        <pt x="11" y="-15" on="1"/>
        <pt x="-1" y="-7" on="1"/>
        <pt x="197" y="572" on="1"/>
        <pt x="220" y="580" on="0"/>
        <pt x="251" y="587" on="1"/>
        <pt x="252" y="594" on="1"/>
        <pt x="122" y="594" on="0"/>
        <pt x="87" y="561" on="1"/>
        <pt x="85" y="553" on="0"/>
        <pt x="85" y="545" on="1"/>
        <pt x="85" y="513" on="0"/>
        <pt x="99" y="492" on="1"/>
        <pt x="99" y="484" on="1"/>
        <pt x="57" y="449" on="0"/>
        <pt x="31" y="399" on="1"/>
        <pt x="14" y="399" on="0"/>
        <pt x="-3" y="429" on="0"/>
        <pt x="-3" y="449" on="1"/>
        <pt x="-3" y="525" on="0"/>
        <pt x="103" y="641" on="0"/>
      </contour>
      <contour>
        <pt x="226" y="289" on="1"/>
        <pt x="244" y="282" on="0"/>
        <pt x="322" y="282" on="0"/>
        <pt x="341" y="290" on="1"/>
        <pt x="346" y="398" on="0"/>
        <pt x="346" y="542" on="0"/>
        <pt x="342" y="591" on="1"/>
        <pt x="338" y="594" on="0"/>
        <pt x="311" y="594" on="0"/>
        <pt x="305" y="591" on="1"/>
        <pt x="287" y="564" on="0"/>
        <pt x="275" y="503" on="1"/>
      </contour>
      <contour>
        <pt x="342" y="814" on="1"/>
        <pt x="327" y="791" on="0"/>
        <pt x="268" y="727" on="0"/>
        <pt x="247" y="712" on="1"/>
        <pt x="207" y="742" on="0"/>
        <pt x="172" y="814" on="1"/>
        <pt x="183" y="834" on="0"/>
        <pt x="241" y="884" on="0"/>
        <pt x="265" y="896" on="1"/>
        <pt x="304" y="871" on="0"/>
      </contour>
      <contour>
        <pt x="563" y="814" on="1"/>
        <pt x="548" y="791" on="0"/>
        <pt x="489" y="727" on="0"/>
        <pt x="468" y="712" on="1"/>
        <pt x="428" y="742" on="0"/>
        <pt x="393" y="814" on="1"/>
        <pt x="404" y="834" on="0"/>
        <pt x="462" y="884" on="0"/>
        <pt x="486" y="896" on="1"/>
        <pt x="525" y="871" on="0"/>
      </contour>
    </TTGlyph>
    <TTGlyph name="Agrave" xMin="-3" yMin="-15" xMax="527" yMax="907">
      <contour>
        <pt x="184" y="671" on="1"/>
        <pt x="274" y="651" on="0"/>
        <pt x="457" y="651" on="0"/>
        <pt x="521" y="662" on="1"/>
        <pt x="527" y="657" on="1"/>
        <pt x="513" y="598" on="0"/>
        <pt x="493" y="321" on="0"/>
        <pt x="493" y="58" on="0"/>
        <pt x="504" y="0" on="1"/>
        <pt x="370" y="-4" on="0"/>
        <pt x="317" y="-15" on="1"/>
        <pt x="311" y="-10" on="1"/>
        <pt x="329" y="69" on="0"/>
        <pt x="338" y="213" on="1"/>
        <pt x="317" y="219" on="0"/>
        <pt x="273" y="219" on="0"/>
        <pt x="237" y="219" on="0"/>
        <pt x="212" y="213" on="1"/>
        <pt x="191" y="128" on="0"/>
        <pt x="191" y="34" on="0"/>
        <pt x="198" y="-1" on="1"/>
        <pt x="91" y="-1" on="0"/>
        <pt x="11" y="-15" on="1"/>
        <pt x="-1" y="-7" on="1"/>
        <pt x="197" y="572" on="1"/>
        <pt x="220" y="580" on="0"/>
        <pt x="251" y="587" on="1"/>
        <pt x="252" y="594" on="1"/>
        <pt x="122" y="594" on="0"/>
        <pt x="87" y="561" on="1"/>
        <pt x="85" y="553" on="0"/>
        <pt x="85" y="545" on="1"/>
        <pt x="85" y="513" on="0"/>
        <pt x="99" y="492" on="1"/>
        <pt x="99" y="484" on="1"/>
        <pt x="57" y="449" on="0"/>
        <pt x="31" y="399" on="1"/>
        <pt x="14" y="399" on="0"/>
        <pt x="-3" y="429" on="0"/>
        <pt x="-3" y="449" on="1"/>
        <pt x="-3" y="525" on="0"/>
        <pt x="103" y="641" on="0"/>
      </contour>
      <contour>
        <pt x="226" y="289" on="1"/>
        <pt x="244" y="282" on="0"/>
        <pt x="322" y="282" on="0"/>
        <pt x="341" y="290" on="1"/>
        <pt x="346" y="398" on="0"/>
        <pt x="346" y="542" on="0"/>
        <pt x="342" y="591" on="1"/>
        <pt x="338" y="594" on="0"/>
        <pt x="311" y="594" on="0"/>
        <pt x="305" y="591" on="1"/>
        <pt x="287" y="564" on="0"/>
        <pt x="275" y="503" on="1"/>
      </contour>
      <contour>
        <pt x="157" y="905" on="1"/>
        <pt x="168" y="907" on="0"/>
        <pt x="197" y="907" on="0"/>
        <pt x="211" y="906" on="1"/>
        <pt x="229" y="874" on="0"/>
        <pt x="309" y="809" on="0"/>
        <pt x="363" y="778" on="0"/>
        <pt x="415" y="751" on="1"/>
        <pt x="404" y="726" on="1"/>
        <pt x="130" y="802" on="1"/>
        <pt x="130" y="819" on="0"/>
        <pt x="148" y="896" on="0"/>
      </contour>
    </TTGlyph>
    <TTGlyph name="Aring" xMin="-3" yMin="-15" xMax="527" yMax="904">
      <contour>
        <pt x="184" y="671" on="1"/>
        <pt x="274" y="651" on="0"/>
        <pt x="457" y="651" on="0"/>
        <pt x="521" y="662" on="1"/>
        <pt x="527" y="657" on="1"/>
        <pt x="513" y="598" on="0"/>
        <pt x="493" y="321" on="0"/>
        <pt x="493" y="58" on="0"/>
        <pt x="504" y="0" on="1"/>
        <pt x="370" y="-4" on="0"/>
        <pt x="317" y="-15" on="1"/>
        <pt x="311" y="-10" on="1"/>
        <pt x="329" y="69" on="0"/>
        <pt x="338" y="213" on="1"/>
        <pt x="317" y="219" on="0"/>
        <pt x="273" y="219" on="0"/>
        <pt x="237" y="219" on="0"/>
        <pt x="212" y="213" on="1"/>
        <pt x="191" y="128" on="0"/>
        <pt x="191" y="34" on="0"/>
        <pt x="198" y="-1" on="1"/>
        <pt x="91" y="-1" on="0"/>
        <pt x="11" y="-15" on="1"/>
        <pt x="-1" y="-7" on="1"/>
        <pt x="197" y="572" on="1"/>
        <pt x="220" y="580" on="0"/>
        <pt x="251" y="587" on="1"/>
        <pt x="252" y="594" on="1"/>
        <pt x="122" y="594" on="0"/>
        <pt x="87" y="561" on="1"/>
        <pt x="85" y="553" on="0"/>
        <pt x="85" y="545" on="1"/>
        <pt x="85" y="513" on="0"/>
        <pt x="99" y="492" on="1"/>
        <pt x="99" y="484" on="1"/>
        <pt x="57" y="449" on="0"/>
        <pt x="31" y="399" on="1"/>
        <pt x="14" y="399" on="0"/>
        <pt x="-3" y="429" on="0"/>
        <pt x="-3" y="449" on="1"/>
        <pt x="-3" y="525" on="0"/>
        <pt x="103" y="641" on="0"/>
      </contour>
      <contour>
        <pt x="226" y="289" on="1"/>
        <pt x="244" y="282" on="0"/>
        <pt x="322" y="282" on="0"/>
        <pt x="341" y="290" on="1"/>
        <pt x="346" y="398" on="0"/>
        <pt x="346" y="542" on="0"/>
        <pt x="342" y="591" on="1"/>
        <pt x="338" y="594" on="0"/>
        <pt x="311" y="594" on="0"/>
        <pt x="305" y="591" on="1"/>
        <pt x="287" y="564" on="0"/>
        <pt x="275" y="503" on="1"/>
      </contour>
      <contour>
        <pt x="308" y="701" on="0"/>
        <pt x="251" y="737" on="0"/>
        <pt x="251" y="819" on="0"/>
        <pt x="326" y="888" on="0"/>
        <pt x="381" y="904" on="1"/>
        <pt x="474" y="904" on="0"/>
        <pt x="474" y="836" on="1"/>
        <pt x="474" y="786" on="0"/>
        <pt x="404" y="716" on="0"/>
        <pt x="351" y="701" on="1"/>
      </contour>
      <contour>
        <pt x="316" y="775" on="0"/>
        <pt x="343" y="748" on="0"/>
        <pt x="383" y="748" on="0"/>
        <pt x="397" y="757" on="1"/>
        <pt x="411" y="781" on="0"/>
        <pt x="411" y="832" on="0"/>
        <pt x="384" y="859" on="0"/>
        <pt x="344" y="859" on="0"/>
        <pt x="330" y="850" on="1"/>
        <pt x="316" y="826" on="0"/>
      </contour>
    </TTGlyph>
    <TTGlyph name="Atilde" xMin="-3" yMin="-15" xMax="578" yMax="880">
      <contour>
        <pt x="184" y="671" on="1"/>
        <pt x="274" y="651" on="0"/>
        <pt x="457" y="651" on="0"/>
        <pt x="521" y="662" on="1"/>
        <pt x="527" y="657" on="1"/>
        <pt x="513" y="598" on="0"/>
        <pt x="493" y="321" on="0"/>
        <pt x="493" y="58" on="0"/>
        <pt x="504" y="0" on="1"/>
        <pt x="370" y="-4" on="0"/>
        <pt x="317" y="-15" on="1"/>
        <pt x="311" y="-10" on="1"/>
        <pt x="329" y="69" on="0"/>
        <pt x="338" y="213" on="1"/>
        <pt x="317" y="219" on="0"/>
        <pt x="273" y="219" on="0"/>
        <pt x="237" y="219" on="0"/>
        <pt x="212" y="213" on="1"/>
        <pt x="191" y="128" on="0"/>
        <pt x="191" y="34" on="0"/>
        <pt x="198" y="-1" on="1"/>
        <pt x="91" y="-1" on="0"/>
        <pt x="11" y="-15" on="1"/>
        <pt x="-1" y="-7" on="1"/>
        <pt x="197" y="572" on="1"/>
        <pt x="220" y="580" on="0"/>
        <pt x="251" y="587" on="1"/>
        <pt x="252" y="594" on="1"/>
        <pt x="122" y="594" on="0"/>
        <pt x="87" y="561" on="1"/>
        <pt x="85" y="553" on="0"/>
        <pt x="85" y="545" on="1"/>
        <pt x="85" y="513" on="0"/>
        <pt x="99" y="492" on="1"/>
        <pt x="99" y="484" on="1"/>
        <pt x="57" y="449" on="0"/>
        <pt x="31" y="399" on="1"/>
        <pt x="14" y="399" on="0"/>
        <pt x="-3" y="429" on="0"/>
        <pt x="-3" y="449" on="1"/>
        <pt x="-3" y="525" on="0"/>
        <pt x="103" y="641" on="0"/>
      </contour>
      <contour>
        <pt x="226" y="289" on="1"/>
        <pt x="244" y="282" on="0"/>
        <pt x="322" y="282" on="0"/>
        <pt x="341" y="290" on="1"/>
        <pt x="346" y="398" on="0"/>
        <pt x="346" y="542" on="0"/>
        <pt x="342" y="591" on="1"/>
        <pt x="338" y="594" on="0"/>
        <pt x="311" y="594" on="0"/>
        <pt x="305" y="591" on="1"/>
        <pt x="287" y="564" on="0"/>
        <pt x="275" y="503" on="1"/>
      </contour>
      <contour>
        <pt x="471" y="832" on="1"/>
        <pt x="520" y="832" on="0"/>
        <pt x="554" y="867" on="1"/>
        <pt x="578" y="850" on="1"/>
        <pt x="514" y="762" on="0"/>
        <pt x="438" y="731" on="1"/>
        <pt x="413" y="731" on="0"/>
        <pt x="280" y="779" on="0"/>
        <pt x="255" y="779" on="1"/>
        <pt x="207" y="779" on="0"/>
        <pt x="174" y="744" on="1"/>
        <pt x="149" y="761" on="1"/>
        <pt x="175" y="797" on="0"/>
        <pt x="272" y="864" on="0"/>
        <pt x="321" y="880" on="1"/>
        <pt x="394" y="832" on="0"/>
      </contour>
    </TTGlyph>
    <TTGlyph name="B" xMin="-74" yMin="-15" xMax="551" yMax="660">
      <contour>
        <pt x="353" y="651" on="1"/>
        <pt x="518" y="651" on="0"/>
        <pt x="518" y="533" on="1"/>
        <pt x="518" y="426" on="0"/>
        <pt x="390" y="368" on="1"/>
        <pt x="390" y="364" on="1"/>
        <pt x="464" y="364" on="0"/>
        <pt x="551" y="303" on="0"/>
        <pt x="551" y="237" on="1"/>
        <pt x="551" y="193" on="0"/>
        <pt x="496" y="109" on="0"/>
        <pt x="451" y="78" on="1"/>
        <pt x="363" y="16" on="0"/>
        <pt x="262" y="-15" on="1"/>
        <pt x="230" y="-7" on="1"/>
        <pt x="161" y="11" on="0"/>
        <pt x="93" y="11" on="0"/>
        <pt x="73" y="7" on="1"/>
        <pt x="67" y="20" on="1"/>
        <pt x="88" y="42" on="0"/>
        <pt x="95" y="99" on="1"/>
        <pt x="113" y="267" on="0"/>
        <pt x="113" y="510" on="0"/>
        <pt x="109" y="561" on="1"/>
        <pt x="132" y="569" on="0"/>
        <pt x="163" y="576" on="1"/>
        <pt x="164" y="583" on="1"/>
        <pt x="50" y="583" on="0"/>
        <pt x="16" y="551" on="1"/>
        <pt x="14" y="543" on="0"/>
        <pt x="14" y="535" on="1"/>
        <pt x="14" y="503" on="0"/>
        <pt x="28" y="482" on="1"/>
        <pt x="28" y="474" on="1"/>
        <pt x="-14" y="439" on="0"/>
        <pt x="-40" y="389" on="1"/>
        <pt x="-57" y="389" on="0"/>
        <pt x="-74" y="418" on="0"/>
        <pt x="-74" y="438" on="1"/>
        <pt x="-74" y="514" on="0"/>
        <pt x="35" y="630" on="0"/>
        <pt x="117" y="660" on="1"/>
        <pt x="163" y="651" on="0"/>
      </contour>
      <contour>
        <pt x="331" y="586" on="1"/>
        <pt x="321" y="593" on="0"/>
        <pt x="286" y="593" on="0"/>
        <pt x="273" y="587" on="1"/>
        <pt x="259" y="410" on="0"/>
        <pt x="259" y="192" on="1"/>
        <pt x="259" y="170" on="0"/>
        <pt x="261" y="86" on="1"/>
        <pt x="283" y="73" on="0"/>
        <pt x="346" y="73" on="0"/>
        <pt x="366" y="89" on="1"/>
        <pt x="382" y="137" on="0"/>
        <pt x="382" y="274" on="0"/>
        <pt x="344" y="340" on="0"/>
        <pt x="280" y="340" on="1"/>
        <pt x="284" y="377" on="1"/>
        <pt x="309" y="379" on="0"/>
        <pt x="324" y="386" on="1"/>
        <pt x="351" y="434" on="0"/>
        <pt x="351" y="503" on="1"/>
        <pt x="351" y="570" on="0"/>
      </contour>
    </TTGlyph>
    <TTGlyph name="C" xMin="30" yMin="-115" xMax="480" yMax="666">
      <contour>
        <pt x="148" y="-115" on="0"/>
        <pt x="30" y="48" on="0"/>
        <pt x="30" y="342" on="0"/>
        <pt x="171" y="588" on="0"/>
        <pt x="309" y="666" on="1"/>
        <pt x="350" y="651" on="0"/>
        <pt x="454" y="651" on="0"/>
        <pt x="473" y="657" on="1"/>
        <pt x="480" y="643" on="1"/>
        <pt x="453" y="607" on="0"/>
        <pt x="422" y="473" on="0"/>
        <pt x="422" y="420" on="1"/>
        <pt x="405" y="420" on="1"/>
        <pt x="395" y="446" on="0"/>
        <pt x="386" y="496" on="1"/>
        <pt x="365" y="512" on="1"/>
        <pt x="288" y="570" on="0"/>
        <pt x="252" y="570" on="1"/>
        <pt x="197" y="455" on="0"/>
        <pt x="197" y="224" on="1"/>
        <pt x="197" y="138" on="0"/>
        <pt x="217" y="62" on="1"/>
        <pt x="228" y="21" on="0"/>
        <pt x="276" y="-29" on="0"/>
        <pt x="310" y="-29" on="1"/>
        <pt x="337" y="19" on="0"/>
        <pt x="337" y="96" on="1"/>
        <pt x="337" y="114" on="0"/>
        <pt x="334" y="127" on="1"/>
        <pt x="341" y="132" on="1"/>
        <pt x="406" y="133" on="0"/>
        <pt x="466" y="143" on="1"/>
        <pt x="451" y="66" on="0"/>
        <pt x="340" y="-79" on="0"/>
        <pt x="270" y="-115" on="1"/>
      </contour>
    </TTGlyph>
    <TTGlyph name="Ccedilla" xMin="30" yMin="-335" xMax="480" yMax="666">
      <contour>
        <pt x="30" y="48" on="0"/>
        <pt x="148" y="-115" on="0"/>
        <pt x="270" y="-115" on="1"/>
        <pt x="340" y="-79" on="0"/>
        <pt x="451" y="66" on="0"/>
        <pt x="466" y="143" on="1"/>
        <pt x="406" y="133" on="0"/>
        <pt x="341" y="132" on="1"/>
        <pt x="334" y="127" on="1"/>
        <pt x="337" y="114" on="0"/>
        <pt x="337" y="96" on="1"/>
        <pt x="337" y="19" on="0"/>
        <pt x="310" y="-29" on="1"/>
        <pt x="276" y="-29" on="0"/>
        <pt x="228" y="21" on="0"/>
        <pt x="217" y="62" on="1"/>
        <pt x="197" y="138" on="0"/>
        <pt x="197" y="224" on="1"/>
        <pt x="197" y="455" on="0"/>
        <pt x="252" y="570" on="1"/>
        <pt x="288" y="570" on="0"/>
        <pt x="365" y="512" on="1"/>
        <pt x="386" y="496" on="1"/>
        <pt x="395" y="446" on="0"/>
        <pt x="405" y="420" on="1"/>
        <pt x="422" y="420" on="1"/>
        <pt x="422" y="473" on="0"/>
        <pt x="453" y="607" on="0"/>
        <pt x="480" y="643" on="1"/>
        <pt x="473" y="657" on="1"/>
        <pt x="454" y="651" on="0"/>
        <pt x="350" y="651" on="0"/>
        <pt x="309" y="666" on="1"/>
        <pt x="171" y="588" on="0"/>
        <pt x="30" y="342" on="0"/>
      </contour>
      <contour>
        <pt x="361" y="-226" on="1"/>
        <pt x="361" y="-233" on="0"/>
        <pt x="360" y="-240" on="1"/>
        <pt x="313" y="-312" on="0"/>
        <pt x="239" y="-335" on="1"/>
        <pt x="186" y="-335" on="0"/>
        <pt x="138" y="-310" on="1"/>
        <pt x="155" y="-285" on="0"/>
        <pt x="176" y="-238" on="1"/>
        <pt x="181" y="-236" on="1"/>
        <pt x="208" y="-276" on="0"/>
        <pt x="256" y="-276" on="1"/>
        <pt x="274" y="-276" on="0"/>
        <pt x="283" y="-272" on="1"/>
        <pt x="289" y="-264" on="0"/>
        <pt x="289" y="-246" on="1"/>
        <pt x="289" y="-201" on="0"/>
        <pt x="202" y="-201" on="1"/>
        <pt x="195" y="-196" on="1"/>
        <pt x="253" y="-83" on="1"/>
        <pt x="298" y="-81" on="1"/>
        <pt x="260" y="-138" on="1"/>
        <pt x="264" y="-142" on="1"/>
        <pt x="312" y="-142" on="0"/>
        <pt x="361" y="-190" on="0"/>
      </contour>
    </TTGlyph>
    <TTGlyph name="D" xMin="-74" yMin="-15" xMax="586" yMax="660">
      <contour>
        <pt x="338" y="651" on="1"/>
        <pt x="470" y="651" on="0"/>
        <pt x="586" y="518" on="0"/>
        <pt x="586" y="237" on="0"/>
        <pt x="407" y="24" on="0"/>
        <pt x="263" y="-15" on="1"/>
        <pt x="232" y="-7" on="1"/>
        <pt x="163" y="11" on="0"/>
        <pt x="93" y="11" on="0"/>
        <pt x="73" y="7" on="1"/>
        <pt x="67" y="20" on="1"/>
        <pt x="88" y="42" on="0"/>
        <pt x="95" y="99" on="1"/>
        <pt x="113" y="267" on="0"/>
        <pt x="113" y="510" on="0"/>
        <pt x="109" y="561" on="1"/>
        <pt x="132" y="569" on="0"/>
        <pt x="163" y="576" on="1"/>
        <pt x="164" y="583" on="1"/>
        <pt x="50" y="583" on="0"/>
        <pt x="16" y="551" on="1"/>
        <pt x="14" y="543" on="0"/>
        <pt x="14" y="535" on="1"/>
        <pt x="14" y="503" on="0"/>
        <pt x="28" y="482" on="1"/>
        <pt x="28" y="474" on="1"/>
        <pt x="-14" y="439" on="0"/>
        <pt x="-40" y="389" on="1"/>
        <pt x="-57" y="389" on="0"/>
        <pt x="-74" y="418" on="0"/>
        <pt x="-74" y="438" on="1"/>
        <pt x="-74" y="514" on="0"/>
        <pt x="35" y="630" on="0"/>
        <pt x="117" y="660" on="1"/>
        <pt x="163" y="651" on="0"/>
      </contour>
      <contour>
        <pt x="265" y="82" on="1"/>
        <pt x="280" y="73" on="0"/>
        <pt x="356" y="73" on="0"/>
        <pt x="380" y="94" on="1"/>
        <pt x="400" y="137" on="0"/>
        <pt x="422" y="271" on="0"/>
        <pt x="422" y="371" on="0"/>
        <pt x="420" y="425" on="0"/>
        <pt x="409" y="507" on="0"/>
        <pt x="388" y="556" on="0"/>
        <pt x="345" y="593" on="0"/>
        <pt x="293" y="593" on="0"/>
        <pt x="278" y="587" on="1"/>
        <pt x="260" y="399" on="0"/>
        <pt x="260" y="192" on="1"/>
        <pt x="260" y="132" on="0"/>
      </contour>
    </TTGlyph>
    <TTGlyph name="E" xMin="14" yMin="-72" xMax="538" yMax="666">
      <contour>
        <pt x="538" y="200" on="1"/>
        <pt x="538" y="114" on="0"/>
        <pt x="367" y="-35" on="0"/>
        <pt x="262" y="-72" on="1"/>
        <pt x="147" y="-72" on="0"/>
        <pt x="14" y="34" on="0"/>
        <pt x="14" y="212" on="0"/>
        <pt x="124" y="328" on="0"/>
        <pt x="210" y="346" on="1"/>
        <pt x="222" y="346" on="0"/>
        <pt x="255" y="341" on="1"/>
        <pt x="256" y="348" on="1"/>
        <pt x="98" y="379" on="0"/>
        <pt x="98" y="476" on="1"/>
        <pt x="148" y="541" on="0"/>
        <pt x="278" y="646" on="0"/>
        <pt x="345" y="666" on="1"/>
        <pt x="436" y="666" on="0"/>
        <pt x="497" y="630" on="1"/>
        <pt x="454" y="566" on="0"/>
        <pt x="439" y="489" on="1"/>
        <pt x="430" y="489" on="1"/>
        <pt x="394" y="526" on="0"/>
        <pt x="331" y="567" on="0"/>
        <pt x="293" y="567" on="1"/>
        <pt x="279" y="567" on="0"/>
        <pt x="264" y="564" on="1"/>
        <pt x="258" y="549" on="0"/>
        <pt x="258" y="524" on="1"/>
        <pt x="258" y="454" on="0"/>
        <pt x="307" y="380" on="0"/>
        <pt x="370" y="371" on="1"/>
        <pt x="364" y="333" on="1"/>
        <pt x="276" y="333" on="0"/>
        <pt x="182" y="244" on="0"/>
        <pt x="182" y="157" on="1"/>
        <pt x="182" y="97" on="0"/>
        <pt x="237" y="16" on="0"/>
        <pt x="335" y="16" on="0"/>
        <pt x="355" y="31" on="1"/>
        <pt x="390" y="80" on="0"/>
        <pt x="390" y="166" on="1"/>
        <pt x="390" y="204" on="0"/>
        <pt x="373" y="247" on="0"/>
        <pt x="345" y="247" on="1"/>
        <pt x="337" y="247" on="0"/>
        <pt x="329" y="245" on="1"/>
        <pt x="326" y="234" on="0"/>
        <pt x="326" y="221" on="1"/>
        <pt x="326" y="181" on="0"/>
        <pt x="348" y="159" on="1"/>
        <pt x="348" y="151" on="1"/>
        <pt x="307" y="127" on="0"/>
        <pt x="280" y="78" on="1"/>
        <pt x="245" y="78" on="0"/>
        <pt x="245" y="141" on="1"/>
        <pt x="245" y="221" on="0"/>
        <pt x="353" y="316" on="0"/>
        <pt x="439" y="324" on="1"/>
        <pt x="491" y="311" on="0"/>
        <pt x="538" y="253" on="0"/>
      </contour>
    </TTGlyph>
    <TTGlyph name="Eacute" xMin="14" yMin="-72" xMax="562" yMax="907">
      <contour>
        <pt x="538" y="200" on="1"/>
        <pt x="538" y="114" on="0"/>
        <pt x="367" y="-35" on="0"/>
        <pt x="262" y="-72" on="1"/>
        <pt x="147" y="-72" on="0"/>
        <pt x="14" y="34" on="0"/>
        <pt x="14" y="212" on="0"/>
        <pt x="124" y="328" on="0"/>
        <pt x="210" y="346" on="1"/>
        <pt x="222" y="346" on="0"/>
        <pt x="255" y="341" on="1"/>
        <pt x="256" y="348" on="1"/>
        <pt x="98" y="379" on="0"/>
        <pt x="98" y="476" on="1"/>
        <pt x="148" y="541" on="0"/>
        <pt x="278" y="646" on="0"/>
        <pt x="345" y="666" on="1"/>
        <pt x="436" y="666" on="0"/>
        <pt x="497" y="630" on="1"/>
        <pt x="454" y="566" on="0"/>
        <pt x="439" y="489" on="1"/>
        <pt x="430" y="489" on="1"/>
        <pt x="394" y="526" on="0"/>
        <pt x="331" y="567" on="0"/>
        <pt x="293" y="567" on="1"/>
        <pt x="279" y="567" on="0"/>
        <pt x="264" y="564" on="1"/>
        <pt x="258" y="549" on="0"/>
        <pt x="258" y="524" on="1"/>
        <pt x="258" y="454" on="0"/>
        <pt x="307" y="380" on="0"/>
        <pt x="370" y="371" on="1"/>
        <pt x="364" y="333" on="1"/>
        <pt x="276" y="333" on="0"/>
        <pt x="182" y="244" on="0"/>
        <pt x="182" y="157" on="1"/>
        <pt x="182" y="97" on="0"/>
        <pt x="237" y="16" on="0"/>
        <pt x="335" y="16" on="0"/>
        <pt x="355" y="31" on="1"/>
        <pt x="390" y="80" on="0"/>
        <pt x="390" y="166" on="1"/>
        <pt x="390" y="204" on="0"/>
        <pt x="373" y="247" on="0"/>
        <pt x="345" y="247" on="1"/>
        <pt x="337" y="247" on="0"/>
        <pt x="329" y="245" on="1"/>
        <pt x="326" y="234" on="0"/>
        <pt x="326" y="221" on="1"/>
        <pt x="326" y="181" on="0"/>
        <pt x="348" y="159" on="1"/>
        <pt x="348" y="151" on="1"/>
        <pt x="307" y="127" on="0"/>
        <pt x="280" y="78" on="1"/>
        <pt x="245" y="78" on="0"/>
        <pt x="245" y="141" on="1"/>
        <pt x="245" y="221" on="0"/>
        <pt x="353" y="316" on="0"/>
        <pt x="439" y="324" on="1"/>
        <pt x="491" y="311" on="0"/>
        <pt x="538" y="253" on="0"/>
      </contour>
      <contour>
        <pt x="481" y="906" on="1"/>
        <pt x="495" y="907" on="0"/>
        <pt x="524" y="907" on="0"/>
        <pt x="535" y="905" on="1"/>
        <pt x="544" y="896" on="0"/>
        <pt x="562" y="819" on="0"/>
        <pt x="562" y="802" on="1"/>
        <pt x="288" y="726" on="1"/>
        <pt x="277" y="751" on="1"/>
        <pt x="329" y="778" on="0"/>
        <pt x="383" y="809" on="0"/>
        <pt x="463" y="874" on="0"/>
      </contour>
    </TTGlyph>
    <TTGlyph name="Ecircumflex" xMin="14" yMin="-72" xMax="548" yMax="906">
      <contour>
        <pt x="538" y="200" on="1"/>
        <pt x="538" y="114" on="0"/>
        <pt x="367" y="-35" on="0"/>
        <pt x="262" y="-72" on="1"/>
        <pt x="147" y="-72" on="0"/>
        <pt x="14" y="34" on="0"/>
        <pt x="14" y="212" on="0"/>
        <pt x="124" y="328" on="0"/>
        <pt x="210" y="346" on="1"/>
        <pt x="222" y="346" on="0"/>
        <pt x="255" y="341" on="1"/>
        <pt x="256" y="348" on="1"/>
        <pt x="98" y="379" on="0"/>
        <pt x="98" y="476" on="1"/>
        <pt x="148" y="541" on="0"/>
        <pt x="278" y="646" on="0"/>
        <pt x="345" y="666" on="1"/>
        <pt x="436" y="666" on="0"/>
        <pt x="497" y="630" on="1"/>
        <pt x="454" y="566" on="0"/>
        <pt x="439" y="489" on="1"/>
        <pt x="430" y="489" on="1"/>
        <pt x="394" y="526" on="0"/>
        <pt x="331" y="567" on="0"/>
        <pt x="293" y="567" on="1"/>
        <pt x="279" y="567" on="0"/>
        <pt x="264" y="564" on="1"/>
        <pt x="258" y="549" on="0"/>
        <pt x="258" y="524" on="1"/>
        <pt x="258" y="454" on="0"/>
        <pt x="307" y="380" on="0"/>
        <pt x="370" y="371" on="1"/>
        <pt x="364" y="333" on="1"/>
        <pt x="276" y="333" on="0"/>
        <pt x="182" y="244" on="0"/>
        <pt x="182" y="157" on="1"/>
        <pt x="182" y="97" on="0"/>
        <pt x="237" y="16" on="0"/>
        <pt x="335" y="16" on="0"/>
        <pt x="355" y="31" on="1"/>
        <pt x="390" y="80" on="0"/>
        <pt x="390" y="166" on="1"/>
        <pt x="390" y="204" on="0"/>
        <pt x="373" y="247" on="0"/>
        <pt x="345" y="247" on="1"/>
        <pt x="337" y="247" on="0"/>
        <pt x="329" y="245" on="1"/>
        <pt x="326" y="234" on="0"/>
        <pt x="326" y="221" on="1"/>
        <pt x="326" y="181" on="0"/>
        <pt x="348" y="159" on="1"/>
        <pt x="348" y="151" on="1"/>
        <pt x="307" y="127" on="0"/>
        <pt x="280" y="78" on="1"/>
        <pt x="245" y="78" on="0"/>
        <pt x="245" y="141" on="1"/>
        <pt x="245" y="221" on="0"/>
        <pt x="353" y="316" on="0"/>
        <pt x="439" y="324" on="1"/>
        <pt x="491" y="311" on="0"/>
        <pt x="538" y="253" on="0"/>
      </contour>
      <contour>
        <pt x="537" y="726" on="1"/>
        <pt x="331" y="786" on="1"/>
        <pt x="145" y="726" on="1"/>
        <pt x="134" y="751" on="1"/>
        <pt x="282" y="828" on="0"/>
        <pt x="328" y="906" on="1"/>
        <pt x="374" y="906" on="1"/>
        <pt x="429" y="813" on="0"/>
        <pt x="548" y="751" on="1"/>
      </contour>
    </TTGlyph>
    <TTGlyph name="Edieresis" xMin="14" yMin="-72" xMax="538" yMax="896">
      <contour>
        <pt x="538" y="200" on="1"/>
        <pt x="538" y="114" on="0"/>
        <pt x="367" y="-35" on="0"/>
        <pt x="262" y="-72" on="1"/>
        <pt x="147" y="-72" on="0"/>
        <pt x="14" y="34" on="0"/>
        <pt x="14" y="212" on="0"/>
        <pt x="124" y="328" on="0"/>
        <pt x="210" y="346" on="1"/>
        <pt x="222" y="346" on="0"/>
        <pt x="255" y="341" on="1"/>
        <pt x="256" y="348" on="1"/>
        <pt x="98" y="379" on="0"/>
        <pt x="98" y="476" on="1"/>
        <pt x="148" y="541" on="0"/>
        <pt x="278" y="646" on="0"/>
        <pt x="345" y="666" on="1"/>
        <pt x="436" y="666" on="0"/>
        <pt x="497" y="630" on="1"/>
        <pt x="454" y="566" on="0"/>
        <pt x="439" y="489" on="1"/>
        <pt x="430" y="489" on="1"/>
        <pt x="394" y="526" on="0"/>
        <pt x="331" y="567" on="0"/>
        <pt x="293" y="567" on="1"/>
        <pt x="279" y="567" on="0"/>
        <pt x="264" y="564" on="1"/>
        <pt x="258" y="549" on="0"/>
        <pt x="258" y="524" on="1"/>
        <pt x="258" y="454" on="0"/>
        <pt x="307" y="380" on="0"/>
        <pt x="370" y="371" on="1"/>
        <pt x="364" y="333" on="1"/>
        <pt x="276" y="333" on="0"/>
        <pt x="182" y="244" on="0"/>
        <pt x="182" y="157" on="1"/>
        <pt x="182" y="97" on="0"/>
        <pt x="237" y="16" on="0"/>
        <pt x="335" y="16" on="0"/>
        <pt x="355" y="31" on="1"/>
        <pt x="390" y="80" on="0"/>
        <pt x="390" y="166" on="1"/>
        <pt x="390" y="204" on="0"/>
        <pt x="373" y="247" on="0"/>
        <pt x="345" y="247" on="1"/>
        <pt x="337" y="247" on="0"/>
        <pt x="329" y="245" on="1"/>
        <pt x="326" y="234" on="0"/>
        <pt x="326" y="221" on="1"/>
        <pt x="326" y="181" on="0"/>
        <pt x="348" y="159" on="1"/>
        <pt x="348" y="151" on="1"/>
        <pt x="307" y="127" on="0"/>
        <pt x="280" y="78" on="1"/>
        <pt x="245" y="78" on="0"/>
        <pt x="245" y="141" on="1"/>
        <pt x="245" y="221" on="0"/>
        <pt x="353" y="316" on="0"/>
        <pt x="439" y="324" on="1"/>
        <pt x="491" y="311" on="0"/>
        <pt x="538" y="253" on="0"/>
      </contour>
      <contour>
        <pt x="313" y="814" on="1"/>
        <pt x="298" y="791" on="0"/>
        <pt x="239" y="727" on="0"/>
        <pt x="218" y="712" on="1"/>
        <pt x="178" y="742" on="0"/>
        <pt x="143" y="814" on="1"/>
        <pt x="154" y="834" on="0"/>
        <pt x="212" y="884" on="0"/>
        <pt x="236" y="896" on="1"/>
        <pt x="275" y="871" on="0"/>
      </contour>
      <contour>
        <pt x="534" y="814" on="1"/>
        <pt x="519" y="791" on="0"/>
        <pt x="460" y="727" on="0"/>
        <pt x="439" y="712" on="1"/>
        <pt x="399" y="742" on="0"/>
        <pt x="364" y="814" on="1"/>
        <pt x="375" y="834" on="0"/>
        <pt x="433" y="884" on="0"/>
        <pt x="457" y="896" on="1"/>
        <pt x="496" y="871" on="0"/>
      </contour>
    </TTGlyph>
    <TTGlyph name="Egrave" xMin="14" yMin="-72" xMax="538" yMax="907">
      <contour>
        <pt x="538" y="200" on="1"/>
        <pt x="538" y="114" on="0"/>
        <pt x="367" y="-35" on="0"/>
        <pt x="262" y="-72" on="1"/>
        <pt x="147" y="-72" on="0"/>
        <pt x="14" y="34" on="0"/>
        <pt x="14" y="212" on="0"/>
        <pt x="124" y="328" on="0"/>
        <pt x="210" y="346" on="1"/>
        <pt x="222" y="346" on="0"/>
        <pt x="255" y="341" on="1"/>
        <pt x="256" y="348" on="1"/>
        <pt x="98" y="379" on="0"/>
        <pt x="98" y="476" on="1"/>
        <pt x="148" y="541" on="0"/>
        <pt x="278" y="646" on="0"/>
        <pt x="345" y="666" on="1"/>
        <pt x="436" y="666" on="0"/>
        <pt x="497" y="630" on="1"/>
        <pt x="454" y="566" on="0"/>
        <pt x="439" y="489" on="1"/>
        <pt x="430" y="489" on="1"/>
        <pt x="394" y="526" on="0"/>
        <pt x="331" y="567" on="0"/>
        <pt x="293" y="567" on="1"/>
        <pt x="279" y="567" on="0"/>
        <pt x="264" y="564" on="1"/>
        <pt x="258" y="549" on="0"/>
        <pt x="258" y="524" on="1"/>
        <pt x="258" y="454" on="0"/>
        <pt x="307" y="380" on="0"/>
        <pt x="370" y="371" on="1"/>
        <pt x="364" y="333" on="1"/>
        <pt x="276" y="333" on="0"/>
        <pt x="182" y="244" on="0"/>
        <pt x="182" y="157" on="1"/>
        <pt x="182" y="97" on="0"/>
        <pt x="237" y="16" on="0"/>
        <pt x="335" y="16" on="0"/>
        <pt x="355" y="31" on="1"/>
        <pt x="390" y="80" on="0"/>
        <pt x="390" y="166" on="1"/>
        <pt x="390" y="204" on="0"/>
        <pt x="373" y="247" on="0"/>
        <pt x="345" y="247" on="1"/>
        <pt x="337" y="247" on="0"/>
        <pt x="329" y="245" on="1"/>
        <pt x="326" y="234" on="0"/>
        <pt x="326" y="221" on="1"/>
        <pt x="326" y="181" on="0"/>
        <pt x="348" y="159" on="1"/>
        <pt x="348" y="151" on="1"/>
        <pt x="307" y="127" on="0"/>
        <pt x="280" y="78" on="1"/>
        <pt x="245" y="78" on="0"/>
        <pt x="245" y="141" on="1"/>
        <pt x="245" y="221" on="0"/>
        <pt x="353" y="316" on="0"/>
        <pt x="439" y="324" on="1"/>
        <pt x="491" y="311" on="0"/>
        <pt x="538" y="253" on="0"/>
      </contour>
      <contour>
        <pt x="128" y="905" on="1"/>
        <pt x="139" y="907" on="0"/>
        <pt x="168" y="907" on="0"/>
        <pt x="182" y="906" on="1"/>
        <pt x="200" y="874" on="0"/>
        <pt x="280" y="809" on="0"/>
        <pt x="334" y="778" on="0"/>
        <pt x="386" y="751" on="1"/>
        <pt x="375" y="726" on="1"/>
        <pt x="101" y="802" on="1"/>
        <pt x="101" y="819" on="0"/>
        <pt x="119" y="896" on="0"/>
      </contour>
    </TTGlyph>
    <TTGlyph name="Eth" xMin="7" yMin="-15" xMax="572" yMax="662">
      <contour>
        <pt x="35" y="651" on="1"/>
        <pt x="309" y="662" on="1"/>
        <pt x="448" y="662" on="0"/>
        <pt x="572" y="529" on="0"/>
        <pt x="572" y="240" on="0"/>
        <pt x="394" y="24" on="0"/>
        <pt x="249" y="-15" on="1"/>
        <pt x="218" y="-7" on="1"/>
        <pt x="149" y="11" on="0"/>
        <pt x="79" y="11" on="0"/>
        <pt x="59" y="7" on="1"/>
        <pt x="53" y="20" on="1"/>
        <pt x="74" y="42" on="0"/>
        <pt x="81" y="99" on="1"/>
        <pt x="91" y="195" on="0"/>
        <pt x="96" y="310" on="1"/>
        <pt x="15" y="303" on="1"/>
        <pt x="7" y="309" on="1"/>
        <pt x="30" y="330" on="0"/>
        <pt x="42" y="358" on="1"/>
        <pt x="97" y="358" on="1"/>
        <pt x="99" y="426" on="0"/>
        <pt x="99" y="562" on="0"/>
        <pt x="91" y="616" on="1"/>
        <pt x="57" y="622" on="0"/>
        <pt x="34" y="633" on="1"/>
      </contour>
      <contour>
        <pt x="248" y="324" on="1"/>
        <pt x="246" y="276" on="0"/>
        <pt x="246" y="132" on="0"/>
        <pt x="251" y="82" on="1"/>
        <pt x="266" y="73" on="0"/>
        <pt x="342" y="73" on="0"/>
        <pt x="366" y="94" on="1"/>
        <pt x="386" y="136" on="0"/>
        <pt x="408" y="275" on="0"/>
        <pt x="408" y="366" on="0"/>
        <pt x="407" y="401" on="0"/>
        <pt x="403" y="466" on="0"/>
        <pt x="396" y="506" on="0"/>
        <pt x="380" y="556" on="0"/>
        <pt x="358" y="584" on="0"/>
        <pt x="323" y="604" on="0"/>
        <pt x="279" y="604" on="0"/>
        <pt x="264" y="598" on="1"/>
        <pt x="255" y="498" on="0"/>
        <pt x="250" y="369" on="1"/>
        <pt x="313" y="375" on="0"/>
        <pt x="355" y="383" on="1"/>
        <pt x="361" y="378" on="1"/>
        <pt x="348" y="358" on="0"/>
        <pt x="336" y="332" on="1"/>
      </contour>
    </TTGlyph>
    <TTGlyph name="Euro" xMin="7" yMin="-15" xMax="416" yMax="538">
      <contour>
        <pt x="301" y="538" on="1"/>
        <pt x="348" y="523" on="0"/>
        <pt x="399" y="523" on="0"/>
        <pt x="410" y="527" on="1"/>
        <pt x="416" y="512" on="1"/>
        <pt x="371" y="462" on="0"/>
        <pt x="364" y="340" on="1"/>
        <pt x="346" y="340" on="1"/>
        <pt x="341" y="358" on="0"/>
        <pt x="335" y="390" on="1"/>
        <pt x="321" y="411" on="1"/>
        <pt x="312" y="425" on="0"/>
        <pt x="271" y="456" on="0"/>
        <pt x="257" y="457" on="1"/>
        <pt x="242" y="405" on="0"/>
        <pt x="230" y="320" on="1"/>
        <pt x="312" y="323" on="0"/>
        <pt x="333" y="325" on="1"/>
        <pt x="336" y="321" on="1"/>
        <pt x="324" y="306" on="0"/>
        <pt x="319" y="289" on="1"/>
        <pt x="226" y="286" on="1"/>
        <pt x="223" y="253" on="1"/>
        <pt x="305" y="256" on="0"/>
        <pt x="326" y="258" on="1"/>
        <pt x="329" y="254" on="1"/>
        <pt x="317" y="236" on="0"/>
        <pt x="312" y="221" on="1"/>
        <pt x="223" y="219" on="1"/>
        <pt x="225" y="93" on="0"/>
        <pt x="279" y="88" on="1"/>
        <pt x="324" y="131" on="0"/>
        <pt x="356" y="215" on="1"/>
        <pt x="380" y="210" on="1"/>
        <pt x="343" y="54" on="0"/>
        <pt x="245" y="-15" on="1"/>
        <pt x="161" y="-13" on="0"/>
        <pt x="68" y="92" on="0"/>
        <pt x="68" y="179" on="1"/>
        <pt x="68" y="201" on="0"/>
        <pt x="70" y="213" on="1"/>
        <pt x="69" y="213" on="1"/>
        <pt x="10" y="208" on="1"/>
        <pt x="7" y="212" on="1"/>
        <pt x="32" y="234" on="0"/>
        <pt x="39" y="244" on="1"/>
        <pt x="73" y="245" on="1"/>
        <pt x="75" y="245" on="1"/>
        <pt x="80" y="265" on="0"/>
        <pt x="85" y="280" on="1"/>
        <pt x="46" y="279" on="0"/>
        <pt x="17" y="275" on="1"/>
        <pt x="14" y="279" on="1"/>
        <pt x="43" y="308" on="0"/>
        <pt x="46" y="312" on="1"/>
        <pt x="97" y="314" on="1"/>
        <pt x="98" y="314" on="1"/>
        <pt x="128" y="382" on="0"/>
        <pt x="236" y="500" on="0"/>
      </contour>
    </TTGlyph>
    <TTGlyph name="F" xMin="-74" yMin="-15" xMax="513" yMax="677">
      <contour>
        <pt x="117" y="660" on="1"/>
        <pt x="216" y="648" on="0"/>
        <pt x="458" y="648" on="0"/>
        <pt x="501" y="677" on="1"/>
        <pt x="513" y="666" on="1"/>
        <pt x="465" y="594" on="0"/>
        <pt x="463" y="487" on="1"/>
        <pt x="446" y="487" on="1"/>
        <pt x="432" y="531" on="0"/>
        <pt x="428" y="580" on="1"/>
        <pt x="411" y="571" on="0"/>
        <pt x="328" y="571" on="0"/>
        <pt x="280" y="579" on="1"/>
        <pt x="267" y="489" on="0"/>
        <pt x="260" y="383" on="1"/>
        <pt x="279" y="379" on="0"/>
        <pt x="374" y="379" on="0"/>
        <pt x="425" y="396" on="1"/>
        <pt x="430" y="390" on="1"/>
        <pt x="424" y="373" on="0"/>
        <pt x="415" y="306" on="1"/>
        <pt x="345" y="316" on="0"/>
        <pt x="268" y="316" on="0"/>
        <pt x="257" y="314" on="1"/>
        <pt x="254" y="246" on="0"/>
        <pt x="254" y="68" on="0"/>
        <pt x="269" y="0" on="1"/>
        <pt x="136" y="-4" on="0"/>
        <pt x="82" y="-15" on="1"/>
        <pt x="76" y="-10" on="1"/>
        <pt x="90" y="50" on="0"/>
        <pt x="111" y="321" on="0"/>
        <pt x="111" y="523" on="0"/>
        <pt x="109" y="561" on="1"/>
        <pt x="132" y="569" on="0"/>
        <pt x="163" y="576" on="1"/>
        <pt x="164" y="583" on="1"/>
        <pt x="50" y="583" on="0"/>
        <pt x="16" y="551" on="1"/>
        <pt x="14" y="543" on="0"/>
        <pt x="14" y="535" on="1"/>
        <pt x="14" y="503" on="0"/>
        <pt x="28" y="482" on="1"/>
        <pt x="28" y="474" on="1"/>
        <pt x="-14" y="439" on="0"/>
        <pt x="-40" y="389" on="1"/>
        <pt x="-57" y="389" on="0"/>
        <pt x="-74" y="418" on="0"/>
        <pt x="-74" y="438" on="1"/>
        <pt x="-74" y="514" on="0"/>
        <pt x="35" y="630" on="0"/>
      </contour>
    </TTGlyph>
    <TTGlyph name="G" xMin="30" yMin="-200" xMax="500" yMax="666">
      <contour>
        <pt x="30" y="234" on="1"/>
        <pt x="30" y="506" on="0"/>
        <pt x="309" y="666" on="1"/>
        <pt x="350" y="651" on="0"/>
        <pt x="474" y="651" on="0"/>
        <pt x="493" y="657" on="1"/>
        <pt x="500" y="643" on="1"/>
        <pt x="473" y="607" on="0"/>
        <pt x="442" y="473" on="0"/>
        <pt x="442" y="420" on="1"/>
        <pt x="425" y="420" on="1"/>
        <pt x="415" y="446" on="0"/>
        <pt x="406" y="496" on="1"/>
        <pt x="385" y="512" on="1"/>
        <pt x="308" y="570" on="0"/>
        <pt x="252" y="570" on="1"/>
        <pt x="227" y="512" on="0"/>
        <pt x="197" y="344" on="0"/>
        <pt x="197" y="236" on="0"/>
        <pt x="207" y="170" on="0"/>
        <pt x="230" y="107" on="0"/>
        <pt x="277" y="71" on="0"/>
        <pt x="310" y="71" on="1"/>
        <pt x="323" y="77" on="0"/>
        <pt x="340" y="94" on="1"/>
        <pt x="342" y="181" on="1"/>
        <pt x="342" y="215" on="0"/>
        <pt x="336" y="248" on="1"/>
        <pt x="304" y="256" on="0"/>
        <pt x="265" y="274" on="1"/>
        <pt x="267" y="295" on="1"/>
        <pt x="304" y="289" on="0"/>
        <pt x="338" y="289" on="1"/>
        <pt x="417" y="289" on="0"/>
        <pt x="483" y="321" on="1"/>
        <pt x="493" y="314" on="1"/>
        <pt x="481" y="288" on="0"/>
        <pt x="478" y="256" on="1"/>
        <pt x="461" y="113" on="0"/>
        <pt x="459" y="-49" on="1"/>
        <pt x="411" y="-105" on="0"/>
        <pt x="245" y="-200" on="0"/>
        <pt x="114" y="-200" on="0"/>
        <pt x="114" y="-161" on="1"/>
        <pt x="172" y="-132" on="0"/>
        <pt x="199" y="-86" on="1"/>
        <pt x="207" y="-86" on="1"/>
        <pt x="236" y="-115" on="0"/>
        <pt x="298" y="-115" on="0"/>
        <pt x="309" y="-109" on="1"/>
        <pt x="336" y="-62" on="0"/>
        <pt x="339" y="33" on="1"/>
        <pt x="306" y="4" on="0"/>
        <pt x="270" y="-15" on="1"/>
        <pt x="158" y="-15" on="0"/>
        <pt x="30" y="120" on="0"/>
      </contour>
    </TTGlyph>
    <TTGlyph name="H" xMin="-74" yMin="-15" xMax="841" yMax="858">
      <contour>
        <pt x="681" y="773" on="1"/>
        <pt x="662" y="773" on="0"/>
        <pt x="646" y="767" on="1"/>
        <pt x="624" y="730" on="0"/>
        <pt x="615" y="651" on="1"/>
        <pt x="587" y="404" on="0"/>
        <pt x="587" y="51" on="0"/>
        <pt x="598" y="0" on="1"/>
        <pt x="470" y="-4" on="0"/>
        <pt x="411" y="-15" on="1"/>
        <pt x="405" y="-10" on="1"/>
        <pt x="430" y="102" on="0"/>
        <pt x="437" y="315" on="1"/>
        <pt x="395" y="322" on="0"/>
        <pt x="301" y="322" on="0"/>
        <pt x="259" y="315" on="1"/>
        <pt x="253" y="271" on="0"/>
        <pt x="253" y="68" on="0"/>
        <pt x="268" y="0" on="1"/>
        <pt x="135" y="-4" on="0"/>
        <pt x="81" y="-15" on="1"/>
        <pt x="75" y="-10" on="1"/>
        <pt x="89" y="49" on="0"/>
        <pt x="110" y="331" on="0"/>
        <pt x="110" y="491" on="0"/>
        <pt x="108" y="561" on="1"/>
        <pt x="129" y="568" on="0"/>
        <pt x="163" y="576" on="1"/>
        <pt x="164" y="583" on="1"/>
        <pt x="50" y="583" on="0"/>
        <pt x="16" y="551" on="1"/>
        <pt x="14" y="543" on="0"/>
        <pt x="14" y="535" on="1"/>
        <pt x="14" y="503" on="0"/>
        <pt x="28" y="482" on="1"/>
        <pt x="28" y="474" on="1"/>
        <pt x="-14" y="439" on="0"/>
        <pt x="-40" y="389" on="1"/>
        <pt x="-57" y="389" on="0"/>
        <pt x="-74" y="418" on="0"/>
        <pt x="-74" y="438" on="1"/>
        <pt x="-74" y="514" on="0"/>
        <pt x="35" y="630" on="0"/>
        <pt x="117" y="660" on="1"/>
        <pt x="150" y="653" on="0"/>
        <pt x="244" y="653" on="0"/>
        <pt x="286" y="664" on="1"/>
        <pt x="292" y="659" on="1"/>
        <pt x="273" y="575" on="0"/>
        <pt x="262" y="395" on="1"/>
        <pt x="305" y="385" on="0"/>
        <pt x="400" y="385" on="0"/>
        <pt x="439" y="394" on="1"/>
        <pt x="441" y="444" on="0"/>
        <pt x="441" y="465" on="1"/>
        <pt x="441" y="596" on="0"/>
        <pt x="429" y="649" on="1"/>
        <pt x="499" y="728" on="0"/>
        <pt x="696" y="858" on="0"/>
        <pt x="777" y="858" on="1"/>
        <pt x="841" y="858" on="0"/>
        <pt x="841" y="819" on="1"/>
        <pt x="783" y="790" on="0"/>
        <pt x="756" y="744" on="1"/>
        <pt x="748" y="744" on="1"/>
        <pt x="719" y="773" on="0"/>
      </contour>
    </TTGlyph>
    <TTGlyph name="I" xMin="-74" yMin="-15" xMax="292" yMax="664">
      <contour>
        <pt x="277" y="598" on="0"/>
        <pt x="253" y="308" on="0"/>
        <pt x="253" y="68" on="0"/>
        <pt x="268" y="0" on="1"/>
        <pt x="135" y="-4" on="0"/>
        <pt x="81" y="-15" on="1"/>
        <pt x="75" y="-10" on="1"/>
        <pt x="89" y="49" on="0"/>
        <pt x="110" y="331" on="0"/>
        <pt x="110" y="491" on="0"/>
        <pt x="108" y="561" on="1"/>
        <pt x="129" y="568" on="0"/>
        <pt x="163" y="576" on="1"/>
        <pt x="164" y="583" on="1"/>
        <pt x="50" y="583" on="0"/>
        <pt x="16" y="551" on="1"/>
        <pt x="14" y="543" on="0"/>
        <pt x="14" y="535" on="1"/>
        <pt x="14" y="503" on="0"/>
        <pt x="28" y="482" on="1"/>
        <pt x="28" y="474" on="1"/>
        <pt x="-14" y="439" on="0"/>
        <pt x="-40" y="389" on="1"/>
        <pt x="-57" y="389" on="0"/>
        <pt x="-74" y="418" on="0"/>
        <pt x="-74" y="438" on="1"/>
        <pt x="-74" y="514" on="0"/>
        <pt x="35" y="630" on="0"/>
        <pt x="117" y="660" on="1"/>
        <pt x="150" y="653" on="0"/>
        <pt x="244" y="653" on="0"/>
        <pt x="286" y="664" on="1"/>
        <pt x="292" y="659" on="1"/>
      </contour>
    </TTGlyph>
    <TTGlyph name="IJ" xMin="-74" yMin="-201" xMax="636" yMax="664">
      <contour>
        <pt x="620" y="585" on="0"/>
        <pt x="597" y="301" on="0"/>
        <pt x="597" y="90" on="0"/>
        <pt x="617" y="13" on="1"/>
        <pt x="565" y="-49" on="0"/>
        <pt x="411" y="-163" on="0"/>
        <pt x="330" y="-201" on="1"/>
        <pt x="318" y="-185" on="1"/>
        <pt x="384" y="-122" on="0"/>
        <pt x="410" y="-42" on="1"/>
        <pt x="454" y="95" on="0"/>
        <pt x="454" y="457" on="1"/>
        <pt x="454" y="491" on="0"/>
        <pt x="452" y="561" on="1"/>
        <pt x="473" y="568" on="0"/>
        <pt x="507" y="576" on="1"/>
        <pt x="508" y="583" on="1"/>
        <pt x="415" y="583" on="0"/>
        <pt x="381" y="551" on="1"/>
        <pt x="379" y="543" on="0"/>
        <pt x="379" y="535" on="1"/>
        <pt x="379" y="503" on="0"/>
        <pt x="393" y="482" on="1"/>
        <pt x="393" y="474" on="1"/>
        <pt x="351" y="439" on="0"/>
        <pt x="325" y="389" on="1"/>
        <pt x="308" y="389" on="0"/>
        <pt x="291" y="418" on="0"/>
        <pt x="291" y="438" on="1"/>
        <pt x="291" y="512" on="0"/>
        <pt x="387" y="631" on="0"/>
        <pt x="461" y="660" on="1"/>
        <pt x="494" y="653" on="0"/>
        <pt x="588" y="653" on="0"/>
        <pt x="630" y="664" on="1"/>
        <pt x="636" y="659" on="1"/>
      </contour>
      <contour>
        <pt x="277" y="598" on="0"/>
        <pt x="253" y="308" on="0"/>
        <pt x="253" y="68" on="0"/>
        <pt x="268" y="0" on="1"/>
        <pt x="135" y="-4" on="0"/>
        <pt x="81" y="-15" on="1"/>
        <pt x="75" y="-10" on="1"/>
        <pt x="89" y="49" on="0"/>
        <pt x="110" y="331" on="0"/>
        <pt x="110" y="491" on="0"/>
        <pt x="108" y="561" on="1"/>
        <pt x="129" y="568" on="0"/>
        <pt x="163" y="576" on="1"/>
        <pt x="164" y="583" on="1"/>
        <pt x="50" y="583" on="0"/>
        <pt x="16" y="551" on="1"/>
        <pt x="14" y="543" on="0"/>
        <pt x="14" y="535" on="1"/>
        <pt x="14" y="503" on="0"/>
        <pt x="28" y="482" on="1"/>
        <pt x="28" y="474" on="1"/>
        <pt x="-14" y="439" on="0"/>
        <pt x="-40" y="389" on="1"/>
        <pt x="-57" y="389" on="0"/>
        <pt x="-74" y="418" on="0"/>
        <pt x="-74" y="438" on="1"/>
        <pt x="-74" y="514" on="0"/>
        <pt x="35" y="630" on="0"/>
        <pt x="117" y="660" on="1"/>
        <pt x="150" y="653" on="0"/>
        <pt x="244" y="653" on="0"/>
        <pt x="286" y="664" on="1"/>
        <pt x="292" y="659" on="1"/>
      </contour>
    </TTGlyph>
    <TTGlyph name="Iacute" xMin="-74" yMin="-15" xMax="399" yMax="907">
      <contour>
        <pt x="277" y="598" on="0"/>
        <pt x="253" y="308" on="0"/>
        <pt x="253" y="68" on="0"/>
        <pt x="268" y="0" on="1"/>
        <pt x="135" y="-4" on="0"/>
        <pt x="81" y="-15" on="1"/>
        <pt x="75" y="-10" on="1"/>
        <pt x="89" y="49" on="0"/>
        <pt x="110" y="331" on="0"/>
        <pt x="110" y="491" on="0"/>
        <pt x="108" y="561" on="1"/>
        <pt x="129" y="568" on="0"/>
        <pt x="163" y="576" on="1"/>
        <pt x="164" y="583" on="1"/>
        <pt x="50" y="583" on="0"/>
        <pt x="16" y="551" on="1"/>
        <pt x="14" y="543" on="0"/>
        <pt x="14" y="535" on="1"/>
        <pt x="14" y="503" on="0"/>
        <pt x="28" y="482" on="1"/>
        <pt x="28" y="474" on="1"/>
        <pt x="-14" y="439" on="0"/>
        <pt x="-40" y="389" on="1"/>
        <pt x="-57" y="389" on="0"/>
        <pt x="-74" y="418" on="0"/>
        <pt x="-74" y="438" on="1"/>
        <pt x="-74" y="514" on="0"/>
        <pt x="35" y="630" on="0"/>
        <pt x="117" y="660" on="1"/>
        <pt x="150" y="653" on="0"/>
        <pt x="244" y="653" on="0"/>
        <pt x="286" y="664" on="1"/>
        <pt x="292" y="659" on="1"/>
      </contour>
      <contour>
        <pt x="318" y="906" on="1"/>
        <pt x="332" y="907" on="0"/>
        <pt x="361" y="907" on="0"/>
        <pt x="372" y="905" on="1"/>
        <pt x="381" y="896" on="0"/>
        <pt x="399" y="819" on="0"/>
        <pt x="399" y="802" on="1"/>
        <pt x="125" y="726" on="1"/>
        <pt x="114" y="751" on="1"/>
        <pt x="166" y="778" on="0"/>
        <pt x="220" y="809" on="0"/>
        <pt x="300" y="874" on="0"/>
      </contour>
    </TTGlyph>
    <TTGlyph name="Icircumflex" xMin="-74" yMin="-15" xMax="405" yMax="906">
      <contour>
        <pt x="277" y="598" on="0"/>
        <pt x="253" y="308" on="0"/>
        <pt x="253" y="68" on="0"/>
        <pt x="268" y="0" on="1"/>
        <pt x="135" y="-4" on="0"/>
        <pt x="81" y="-15" on="1"/>
        <pt x="75" y="-10" on="1"/>
        <pt x="89" y="49" on="0"/>
        <pt x="110" y="331" on="0"/>
        <pt x="110" y="491" on="0"/>
        <pt x="108" y="561" on="1"/>
        <pt x="129" y="568" on="0"/>
        <pt x="163" y="576" on="1"/>
        <pt x="164" y="583" on="1"/>
        <pt x="50" y="583" on="0"/>
        <pt x="16" y="551" on="1"/>
        <pt x="14" y="543" on="0"/>
        <pt x="14" y="535" on="1"/>
        <pt x="14" y="503" on="0"/>
        <pt x="28" y="482" on="1"/>
        <pt x="28" y="474" on="1"/>
        <pt x="-14" y="439" on="0"/>
        <pt x="-40" y="389" on="1"/>
        <pt x="-57" y="389" on="0"/>
        <pt x="-74" y="418" on="0"/>
        <pt x="-74" y="438" on="1"/>
        <pt x="-74" y="514" on="0"/>
        <pt x="35" y="630" on="0"/>
        <pt x="117" y="660" on="1"/>
        <pt x="150" y="653" on="0"/>
        <pt x="244" y="653" on="0"/>
        <pt x="286" y="664" on="1"/>
        <pt x="292" y="659" on="1"/>
      </contour>
      <contour>
        <pt x="394" y="726" on="1"/>
        <pt x="188" y="786" on="1"/>
        <pt x="2" y="726" on="1"/>
        <pt x="-9" y="751" on="1"/>
        <pt x="139" y="828" on="0"/>
        <pt x="185" y="906" on="1"/>
        <pt x="231" y="906" on="1"/>
        <pt x="286" y="813" on="0"/>
        <pt x="405" y="751" on="1"/>
      </contour>
    </TTGlyph>
    <TTGlyph name="Idieresis" xMin="-74" yMin="-15" xMax="391" yMax="896">
      <contour>
        <pt x="277" y="598" on="0"/>
        <pt x="253" y="308" on="0"/>
        <pt x="253" y="68" on="0"/>
        <pt x="268" y="0" on="1"/>
        <pt x="135" y="-4" on="0"/>
        <pt x="81" y="-15" on="1"/>
        <pt x="75" y="-10" on="1"/>
        <pt x="89" y="49" on="0"/>
        <pt x="110" y="331" on="0"/>
        <pt x="110" y="491" on="0"/>
        <pt x="108" y="561" on="1"/>
        <pt x="129" y="568" on="0"/>
        <pt x="163" y="576" on="1"/>
        <pt x="164" y="583" on="1"/>
        <pt x="50" y="583" on="0"/>
        <pt x="16" y="551" on="1"/>
        <pt x="14" y="543" on="0"/>
        <pt x="14" y="535" on="1"/>
        <pt x="14" y="503" on="0"/>
        <pt x="28" y="482" on="1"/>
        <pt x="28" y="474" on="1"/>
        <pt x="-14" y="439" on="0"/>
        <pt x="-40" y="389" on="1"/>
        <pt x="-57" y="389" on="0"/>
        <pt x="-74" y="418" on="0"/>
        <pt x="-74" y="438" on="1"/>
        <pt x="-74" y="514" on="0"/>
        <pt x="35" y="630" on="0"/>
        <pt x="117" y="660" on="1"/>
        <pt x="150" y="653" on="0"/>
        <pt x="244" y="653" on="0"/>
        <pt x="286" y="664" on="1"/>
        <pt x="292" y="659" on="1"/>
      </contour>
      <contour>
        <pt x="170" y="814" on="1"/>
        <pt x="155" y="791" on="0"/>
        <pt x="96" y="727" on="0"/>
        <pt x="75" y="712" on="1"/>
        <pt x="35" y="742" on="0"/>
        <pt x="0" y="814" on="1"/>
        <pt x="11" y="834" on="0"/>
        <pt x="69" y="884" on="0"/>
        <pt x="93" y="896" on="1"/>
        <pt x="132" y="871" on="0"/>
      </contour>
      <contour>
        <pt x="391" y="814" on="1"/>
        <pt x="376" y="791" on="0"/>
        <pt x="317" y="727" on="0"/>
        <pt x="296" y="712" on="1"/>
        <pt x="256" y="742" on="0"/>
        <pt x="221" y="814" on="1"/>
        <pt x="232" y="834" on="0"/>
        <pt x="290" y="884" on="0"/>
        <pt x="314" y="896" on="1"/>
        <pt x="353" y="871" on="0"/>
      </contour>
    </TTGlyph>
    <TTGlyph name="Igrave" xMin="-74" yMin="-15" xMax="292" yMax="907">
      <contour>
        <pt x="277" y="598" on="0"/>
        <pt x="253" y="308" on="0"/>
        <pt x="253" y="68" on="0"/>
        <pt x="268" y="0" on="1"/>
        <pt x="135" y="-4" on="0"/>
        <pt x="81" y="-15" on="1"/>
        <pt x="75" y="-10" on="1"/>
        <pt x="89" y="49" on="0"/>
        <pt x="110" y="331" on="0"/>
        <pt x="110" y="491" on="0"/>
        <pt x="108" y="561" on="1"/>
        <pt x="129" y="568" on="0"/>
        <pt x="163" y="576" on="1"/>
        <pt x="164" y="583" on="1"/>
        <pt x="50" y="583" on="0"/>
        <pt x="16" y="551" on="1"/>
        <pt x="14" y="543" on="0"/>
        <pt x="14" y="535" on="1"/>
        <pt x="14" y="503" on="0"/>
        <pt x="28" y="482" on="1"/>
        <pt x="28" y="474" on="1"/>
        <pt x="-14" y="439" on="0"/>
        <pt x="-40" y="389" on="1"/>
        <pt x="-57" y="389" on="0"/>
        <pt x="-74" y="418" on="0"/>
        <pt x="-74" y="438" on="1"/>
        <pt x="-74" y="514" on="0"/>
        <pt x="35" y="630" on="0"/>
        <pt x="117" y="660" on="1"/>
        <pt x="150" y="653" on="0"/>
        <pt x="244" y="653" on="0"/>
        <pt x="286" y="664" on="1"/>
        <pt x="292" y="659" on="1"/>
      </contour>
      <contour>
        <pt x="5" y="905" on="1"/>
        <pt x="16" y="907" on="0"/>
        <pt x="45" y="907" on="0"/>
        <pt x="59" y="906" on="1"/>
        <pt x="77" y="874" on="0"/>
        <pt x="157" y="809" on="0"/>
        <pt x="211" y="778" on="0"/>
        <pt x="263" y="751" on="1"/>
        <pt x="252" y="726" on="1"/>
        <pt x="-22" y="802" on="1"/>
        <pt x="-22" y="819" on="0"/>
        <pt x="-4" y="896" on="0"/>
      </contour>
    </TTGlyph>
    <TTGlyph name="Itilde" xMin="-74" yMin="-15" xMax="406" yMax="880">
      <contour>
        <pt x="277" y="598" on="0"/>
        <pt x="253" y="308" on="0"/>
        <pt x="253" y="68" on="0"/>
        <pt x="268" y="0" on="1"/>
        <pt x="135" y="-4" on="0"/>
        <pt x="81" y="-15" on="1"/>
        <pt x="75" y="-10" on="1"/>
        <pt x="89" y="49" on="0"/>
        <pt x="110" y="331" on="0"/>
        <pt x="110" y="491" on="0"/>
        <pt x="108" y="561" on="1"/>
        <pt x="129" y="568" on="0"/>
        <pt x="163" y="576" on="1"/>
        <pt x="164" y="583" on="1"/>
        <pt x="50" y="583" on="0"/>
        <pt x="16" y="551" on="1"/>
        <pt x="14" y="543" on="0"/>
        <pt x="14" y="535" on="1"/>
        <pt x="14" y="503" on="0"/>
        <pt x="28" y="482" on="1"/>
        <pt x="28" y="474" on="1"/>
        <pt x="-14" y="439" on="0"/>
        <pt x="-40" y="389" on="1"/>
        <pt x="-57" y="389" on="0"/>
        <pt x="-74" y="418" on="0"/>
        <pt x="-74" y="438" on="1"/>
        <pt x="-74" y="514" on="0"/>
        <pt x="35" y="630" on="0"/>
        <pt x="117" y="660" on="1"/>
        <pt x="150" y="653" on="0"/>
        <pt x="244" y="653" on="0"/>
        <pt x="286" y="664" on="1"/>
        <pt x="292" y="659" on="1"/>
      </contour>
      <contour>
        <pt x="299" y="832" on="1"/>
        <pt x="348" y="832" on="0"/>
        <pt x="382" y="867" on="1"/>
        <pt x="406" y="850" on="1"/>
        <pt x="342" y="762" on="0"/>
        <pt x="266" y="731" on="1"/>
        <pt x="241" y="731" on="0"/>
        <pt x="108" y="779" on="0"/>
        <pt x="83" y="779" on="1"/>
        <pt x="35" y="779" on="0"/>
        <pt x="2" y="744" on="1"/>
        <pt x="-23" y="761" on="1"/>
        <pt x="3" y="797" on="0"/>
        <pt x="100" y="864" on="0"/>
        <pt x="149" y="880" on="1"/>
        <pt x="222" y="832" on="0"/>
      </contour>
    </TTGlyph>
    <TTGlyph name="J" xMin="-74" yMin="-201" xMax="292" yMax="664">
      <contour>
        <pt x="276" y="585" on="0"/>
        <pt x="253" y="301" on="0"/>
        <pt x="253" y="90" on="0"/>
        <pt x="273" y="13" on="1"/>
        <pt x="221" y="-49" on="0"/>
        <pt x="67" y="-163" on="0"/>
        <pt x="-14" y="-201" on="1"/>
        <pt x="-26" y="-185" on="1"/>
        <pt x="40" y="-122" on="0"/>
        <pt x="66" y="-42" on="1"/>
        <pt x="110" y="95" on="0"/>
        <pt x="110" y="457" on="1"/>
        <pt x="110" y="491" on="0"/>
        <pt x="108" y="561" on="1"/>
        <pt x="129" y="568" on="0"/>
        <pt x="163" y="576" on="1"/>
        <pt x="164" y="583" on="1"/>
        <pt x="50" y="583" on="0"/>
        <pt x="16" y="551" on="1"/>
        <pt x="14" y="543" on="0"/>
        <pt x="14" y="535" on="1"/>
        <pt x="14" y="503" on="0"/>
        <pt x="28" y="482" on="1"/>
        <pt x="28" y="474" on="1"/>
        <pt x="-14" y="439" on="0"/>
        <pt x="-40" y="389" on="1"/>
        <pt x="-57" y="389" on="0"/>
        <pt x="-74" y="418" on="0"/>
        <pt x="-74" y="438" on="1"/>
        <pt x="-74" y="514" on="0"/>
        <pt x="35" y="630" on="0"/>
        <pt x="117" y="660" on="1"/>
        <pt x="150" y="653" on="0"/>
        <pt x="244" y="653" on="0"/>
        <pt x="286" y="664" on="1"/>
        <pt x="292" y="659" on="1"/>
      </contour>
    </TTGlyph>
    <TTGlyph name="Jcircumflex" xMin="-74" yMin="-201" xMax="405" yMax="906">
      <contour>
        <pt x="276" y="585" on="0"/>
        <pt x="253" y="301" on="0"/>
        <pt x="253" y="90" on="0"/>
        <pt x="273" y="13" on="1"/>
        <pt x="221" y="-49" on="0"/>
        <pt x="67" y="-163" on="0"/>
        <pt x="-14" y="-201" on="1"/>
        <pt x="-26" y="-185" on="1"/>
        <pt x="40" y="-122" on="0"/>
        <pt x="66" y="-42" on="1"/>
        <pt x="110" y="95" on="0"/>
        <pt x="110" y="457" on="1"/>
        <pt x="110" y="491" on="0"/>
        <pt x="108" y="561" on="1"/>
        <pt x="129" y="568" on="0"/>
        <pt x="163" y="576" on="1"/>
        <pt x="164" y="583" on="1"/>
        <pt x="50" y="583" on="0"/>
        <pt x="16" y="551" on="1"/>
        <pt x="14" y="543" on="0"/>
        <pt x="14" y="535" on="1"/>
        <pt x="14" y="503" on="0"/>
        <pt x="28" y="482" on="1"/>
        <pt x="28" y="474" on="1"/>
        <pt x="-14" y="439" on="0"/>
        <pt x="-40" y="389" on="1"/>
        <pt x="-57" y="389" on="0"/>
        <pt x="-74" y="418" on="0"/>
        <pt x="-74" y="438" on="1"/>
        <pt x="-74" y="514" on="0"/>
        <pt x="35" y="630" on="0"/>
        <pt x="117" y="660" on="1"/>
        <pt x="150" y="653" on="0"/>
        <pt x="244" y="653" on="0"/>
        <pt x="286" y="664" on="1"/>
        <pt x="292" y="659" on="1"/>
      </contour>
      <contour>
        <pt x="394" y="726" on="1"/>
        <pt x="188" y="786" on="1"/>
        <pt x="2" y="726" on="1"/>
        <pt x="-9" y="751" on="1"/>
        <pt x="139" y="828" on="0"/>
        <pt x="185" y="906" on="1"/>
        <pt x="231" y="906" on="1"/>
        <pt x="286" y="813" on="0"/>
        <pt x="405" y="751" on="1"/>
      </contour>
    </TTGlyph>
    <TTGlyph name="K" xMin="-74" yMin="-125" xMax="854" yMax="664">
      <contour>
        <pt x="254" y="279" on="1"/>
        <pt x="253" y="247" on="0"/>
        <pt x="253" y="68" on="0"/>
        <pt x="268" y="0" on="1"/>
        <pt x="135" y="-4" on="0"/>
        <pt x="81" y="-15" on="1"/>
        <pt x="75" y="-10" on="1"/>
        <pt x="89" y="49" on="0"/>
        <pt x="110" y="331" on="0"/>
        <pt x="110" y="491" on="0"/>
        <pt x="108" y="561" on="1"/>
        <pt x="129" y="568" on="0"/>
        <pt x="163" y="576" on="1"/>
        <pt x="164" y="583" on="1"/>
        <pt x="50" y="583" on="0"/>
        <pt x="16" y="551" on="1"/>
        <pt x="14" y="543" on="0"/>
        <pt x="14" y="535" on="1"/>
        <pt x="14" y="503" on="0"/>
        <pt x="28" y="482" on="1"/>
        <pt x="28" y="474" on="1"/>
        <pt x="-14" y="439" on="0"/>
        <pt x="-40" y="389" on="1"/>
        <pt x="-57" y="389" on="0"/>
        <pt x="-74" y="418" on="0"/>
        <pt x="-74" y="438" on="1"/>
        <pt x="-74" y="514" on="0"/>
        <pt x="35" y="630" on="0"/>
        <pt x="117" y="660" on="1"/>
        <pt x="150" y="653" on="0"/>
        <pt x="244" y="653" on="0"/>
        <pt x="286" y="664" on="1"/>
        <pt x="292" y="659" on="1"/>
        <pt x="268" y="559" on="0"/>
        <pt x="256" y="335" on="1"/>
        <pt x="319" y="408" on="1"/>
        <pt x="395" y="494" on="0"/>
        <pt x="395" y="616" on="1"/>
        <pt x="395" y="622" on="0"/>
        <pt x="393" y="646" on="1"/>
        <pt x="400" y="651" on="1"/>
        <pt x="515" y="651" on="0"/>
        <pt x="590" y="660" on="1"/>
        <pt x="564" y="586" on="0"/>
        <pt x="462" y="440" on="0"/>
        <pt x="399" y="385" on="1"/>
        <pt x="559" y="29" on="0"/>
        <pt x="649" y="-44" on="1"/>
        <pt x="666" y="-50" on="0"/>
        <pt x="684" y="-50" on="1"/>
        <pt x="727" y="-50" on="0"/>
        <pt x="753" y="-15" on="1"/>
        <pt x="761" y="-15" on="1"/>
        <pt x="794" y="-62" on="0"/>
        <pt x="854" y="-86" on="1"/>
        <pt x="854" y="-125" on="0"/>
        <pt x="790" y="-125" on="1"/>
        <pt x="707" y="-125" on="0"/>
        <pt x="476" y="-39" on="0"/>
        <pt x="397" y="11" on="1"/>
        <pt x="365" y="163" on="0"/>
        <pt x="289" y="305" on="1"/>
      </contour>
    </TTGlyph>
    <TTGlyph name="L" xMin="-74" yMin="-15" xMax="528" yMax="664">
      <contour>
        <pt x="277" y="597" on="0"/>
        <pt x="253" y="317" on="0"/>
        <pt x="253" y="122" on="0"/>
        <pt x="261" y="66" on="1"/>
        <pt x="281" y="62" on="0"/>
        <pt x="308" y="62" on="1"/>
        <pt x="399" y="62" on="0"/>
        <pt x="438" y="105" on="1"/>
        <pt x="440" y="113" on="0"/>
        <pt x="440" y="121" on="1"/>
        <pt x="440" y="153" on="0"/>
        <pt x="426" y="174" on="1"/>
        <pt x="426" y="182" on="1"/>
        <pt x="468" y="217" on="0"/>
        <pt x="494" y="267" on="1"/>
        <pt x="511" y="267" on="0"/>
        <pt x="528" y="237" on="0"/>
        <pt x="528" y="217" on="1"/>
        <pt x="528" y="146" on="0"/>
        <pt x="430" y="13" on="0"/>
        <pt x="361" y="-15" on="1"/>
        <pt x="319" y="0" on="0"/>
        <pt x="153" y="0" on="0"/>
        <pt x="81" y="-15" on="1"/>
        <pt x="75" y="-10" on="1"/>
        <pt x="89" y="49" on="0"/>
        <pt x="110" y="331" on="0"/>
        <pt x="110" y="491" on="0"/>
        <pt x="108" y="561" on="1"/>
        <pt x="129" y="568" on="0"/>
        <pt x="163" y="576" on="1"/>
        <pt x="164" y="583" on="1"/>
        <pt x="50" y="583" on="0"/>
        <pt x="16" y="551" on="1"/>
        <pt x="14" y="543" on="0"/>
        <pt x="14" y="535" on="1"/>
        <pt x="14" y="503" on="0"/>
        <pt x="28" y="482" on="1"/>
        <pt x="28" y="474" on="1"/>
        <pt x="-14" y="439" on="0"/>
        <pt x="-40" y="389" on="1"/>
        <pt x="-57" y="389" on="0"/>
        <pt x="-74" y="418" on="0"/>
        <pt x="-74" y="438" on="1"/>
        <pt x="-74" y="514" on="0"/>
        <pt x="35" y="630" on="0"/>
        <pt x="117" y="660" on="1"/>
        <pt x="150" y="653" on="0"/>
        <pt x="244" y="653" on="0"/>
        <pt x="286" y="664" on="1"/>
        <pt x="292" y="659" on="1"/>
      </contour>
    </TTGlyph>
    <TTGlyph name="Ldotaccent" xMin="-74" yMin="-15" xMax="528" yMax="664">
      <contour>
        <pt x="277" y="597" on="0"/>
        <pt x="253" y="317" on="0"/>
        <pt x="253" y="122" on="0"/>
        <pt x="261" y="66" on="1"/>
        <pt x="281" y="62" on="0"/>
        <pt x="308" y="62" on="1"/>
        <pt x="399" y="62" on="0"/>
        <pt x="438" y="105" on="1"/>
        <pt x="440" y="113" on="0"/>
        <pt x="440" y="121" on="1"/>
        <pt x="440" y="153" on="0"/>
        <pt x="426" y="174" on="1"/>
        <pt x="426" y="182" on="1"/>
        <pt x="468" y="217" on="0"/>
        <pt x="494" y="267" on="1"/>
        <pt x="511" y="267" on="0"/>
        <pt x="528" y="237" on="0"/>
        <pt x="528" y="217" on="1"/>
        <pt x="528" y="146" on="0"/>
        <pt x="430" y="13" on="0"/>
        <pt x="361" y="-15" on="1"/>
        <pt x="319" y="0" on="0"/>
        <pt x="153" y="0" on="0"/>
        <pt x="81" y="-15" on="1"/>
        <pt x="75" y="-10" on="1"/>
        <pt x="89" y="49" on="0"/>
        <pt x="110" y="331" on="0"/>
        <pt x="110" y="491" on="0"/>
        <pt x="108" y="561" on="1"/>
        <pt x="129" y="568" on="0"/>
        <pt x="163" y="576" on="1"/>
        <pt x="164" y="583" on="1"/>
        <pt x="50" y="583" on="0"/>
        <pt x="16" y="551" on="1"/>
        <pt x="14" y="543" on="0"/>
        <pt x="14" y="535" on="1"/>
        <pt x="14" y="503" on="0"/>
        <pt x="28" y="482" on="1"/>
        <pt x="28" y="474" on="1"/>
        <pt x="-14" y="439" on="0"/>
        <pt x="-40" y="389" on="1"/>
        <pt x="-57" y="389" on="0"/>
        <pt x="-74" y="418" on="0"/>
        <pt x="-74" y="438" on="1"/>
        <pt x="-74" y="514" on="0"/>
        <pt x="35" y="630" on="0"/>
        <pt x="117" y="660" on="1"/>
        <pt x="150" y="653" on="0"/>
        <pt x="244" y="653" on="0"/>
        <pt x="286" y="664" on="1"/>
        <pt x="292" y="659" on="1"/>
      </contour>
      <contour>
        <pt x="466" y="370" on="1"/>
        <pt x="451" y="347" on="0"/>
        <pt x="392" y="283" on="0"/>
        <pt x="371" y="268" on="1"/>
        <pt x="331" y="298" on="0"/>
        <pt x="296" y="370" on="1"/>
        <pt x="307" y="390" on="0"/>
        <pt x="365" y="440" on="0"/>
        <pt x="389" y="452" on="1"/>
        <pt x="428" y="427" on="0"/>
      </contour>
    </TTGlyph>
    <TTGlyph name="Lslash" xMin="-74" yMin="-15" xMax="528" yMax="664">
      <contour>
        <pt x="357" y="462" on="1"/>
        <pt x="364" y="459" on="1"/>
        <pt x="364" y="433" on="0"/>
        <pt x="368" y="416" on="1"/>
        <pt x="47" y="261" on="1"/>
        <pt x="38" y="265" on="1"/>
        <pt x="48" y="291" on="0"/>
        <pt x="48" y="313" on="1"/>
        <pt x="163" y="360" on="0"/>
        <pt x="330" y="448" on="0"/>
      </contour>
      <contour>
        <pt x="277" y="597" on="0"/>
        <pt x="253" y="317" on="0"/>
        <pt x="253" y="122" on="0"/>
        <pt x="261" y="66" on="1"/>
        <pt x="281" y="62" on="0"/>
        <pt x="308" y="62" on="1"/>
        <pt x="399" y="62" on="0"/>
        <pt x="438" y="105" on="1"/>
        <pt x="440" y="113" on="0"/>
        <pt x="440" y="121" on="1"/>
        <pt x="440" y="153" on="0"/>
        <pt x="426" y="174" on="1"/>
        <pt x="426" y="182" on="1"/>
        <pt x="468" y="217" on="0"/>
        <pt x="494" y="267" on="1"/>
        <pt x="511" y="267" on="0"/>
        <pt x="528" y="237" on="0"/>
        <pt x="528" y="217" on="1"/>
        <pt x="528" y="146" on="0"/>
        <pt x="430" y="13" on="0"/>
        <pt x="361" y="-15" on="1"/>
        <pt x="319" y="0" on="0"/>
        <pt x="153" y="0" on="0"/>
        <pt x="81" y="-15" on="1"/>
        <pt x="75" y="-10" on="1"/>
        <pt x="89" y="49" on="0"/>
        <pt x="110" y="331" on="0"/>
        <pt x="110" y="491" on="0"/>
        <pt x="108" y="561" on="1"/>
        <pt x="129" y="568" on="0"/>
        <pt x="163" y="576" on="1"/>
        <pt x="164" y="583" on="1"/>
        <pt x="50" y="583" on="0"/>
        <pt x="16" y="551" on="1"/>
        <pt x="14" y="543" on="0"/>
        <pt x="14" y="535" on="1"/>
        <pt x="14" y="503" on="0"/>
        <pt x="28" y="482" on="1"/>
        <pt x="28" y="474" on="1"/>
        <pt x="-14" y="439" on="0"/>
        <pt x="-40" y="389" on="1"/>
        <pt x="-57" y="389" on="0"/>
        <pt x="-74" y="418" on="0"/>
        <pt x="-74" y="438" on="1"/>
        <pt x="-74" y="514" on="0"/>
        <pt x="35" y="630" on="0"/>
        <pt x="117" y="660" on="1"/>
        <pt x="150" y="653" on="0"/>
        <pt x="244" y="653" on="0"/>
        <pt x="286" y="664" on="1"/>
        <pt x="292" y="659" on="1"/>
      </contour>
    </TTGlyph>
    <TTGlyph name="M" xMin="-61" yMin="-15" xMax="678" yMax="666">
      <contour>
        <pt x="317" y="614" on="1"/>
        <pt x="317" y="543" on="0"/>
        <pt x="351" y="387" on="1"/>
        <pt x="372" y="289" on="1"/>
        <pt x="379" y="291" on="1"/>
        <pt x="378" y="302" on="0"/>
        <pt x="378" y="342" on="0"/>
        <pt x="386" y="372" on="1"/>
        <pt x="451" y="596" on="1"/>
        <pt x="457" y="615" on="0"/>
        <pt x="457" y="641" on="0"/>
        <pt x="454" y="647" on="1"/>
        <pt x="457" y="654" on="1"/>
        <pt x="476" y="651" on="0"/>
        <pt x="624" y="651" on="0"/>
        <pt x="671" y="665" on="1"/>
        <pt x="678" y="660" on="1"/>
        <pt x="656" y="544" on="0"/>
        <pt x="656" y="88" on="0"/>
        <pt x="677" y="0" on="1"/>
        <pt x="524" y="-9" on="0"/>
        <pt x="496" y="-15" on="1"/>
        <pt x="489" y="-10" on="1"/>
        <pt x="512" y="113" on="0"/>
        <pt x="512" y="324" on="1"/>
        <pt x="512" y="409" on="0"/>
        <pt x="501" y="503" on="1"/>
        <pt x="497" y="503" on="1"/>
        <pt x="423" y="274" on="0"/>
        <pt x="414" y="195" on="1"/>
        <pt x="411" y="163" on="0"/>
        <pt x="411" y="122" on="1"/>
        <pt x="402" y="119" on="0"/>
        <pt x="370" y="111" on="1"/>
        <pt x="292" y="91" on="0"/>
        <pt x="274" y="79" on="1"/>
        <pt x="262" y="87" on="1"/>
        <pt x="264" y="109" on="0"/>
        <pt x="264" y="120" on="1"/>
        <pt x="264" y="232" on="0"/>
        <pt x="194" y="496" on="1"/>
        <pt x="190" y="495" on="1"/>
        <pt x="146" y="231" on="0"/>
        <pt x="144" y="0" on="1"/>
        <pt x="56" y="-2" on="0"/>
        <pt x="7" y="-14" on="1"/>
        <pt x="1" y="-9" on="1"/>
        <pt x="30" y="77" on="0"/>
        <pt x="109" y="440" on="0"/>
        <pt x="125" y="561" on="1"/>
        <pt x="146" y="568" on="0"/>
        <pt x="180" y="576" on="1"/>
        <pt x="181" y="583" on="1"/>
        <pt x="63" y="583" on="0"/>
        <pt x="29" y="551" on="1"/>
        <pt x="27" y="543" on="0"/>
        <pt x="27" y="535" on="1"/>
        <pt x="27" y="503" on="0"/>
        <pt x="41" y="482" on="1"/>
        <pt x="41" y="474" on="1"/>
        <pt x="-1" y="439" on="0"/>
        <pt x="-27" y="389" on="1"/>
        <pt x="-44" y="389" on="0"/>
        <pt x="-61" y="418" on="0"/>
        <pt x="-61" y="438" on="1"/>
        <pt x="-61" y="514" on="0"/>
        <pt x="48" y="630" on="0"/>
        <pt x="130" y="660" on="1"/>
        <pt x="163" y="653" on="0"/>
        <pt x="280" y="653" on="0"/>
        <pt x="318" y="666" on="1"/>
        <pt x="323" y="661" on="1"/>
        <pt x="317" y="640" on="0"/>
      </contour>
    </TTGlyph>
    <TTGlyph name="N" xMin="-74" yMin="-15" xMax="602" yMax="666">
      <contour>
        <pt x="588" y="600" on="0"/>
        <pt x="566" y="333" on="0"/>
        <pt x="566" y="88" on="0"/>
        <pt x="581" y="0" on="1"/>
        <pt x="575" y="-1" on="0"/>
        <pt x="531" y="-3" on="1"/>
        <pt x="408" y="-9" on="0"/>
        <pt x="395" y="-13" on="1"/>
        <pt x="388" y="-10" on="1"/>
        <pt x="336" y="170" on="0"/>
        <pt x="227" y="407" on="1"/>
        <pt x="202" y="461" on="0"/>
        <pt x="184" y="485" on="1"/>
        <pt x="180" y="483" on="1"/>
        <pt x="180" y="306" on="0"/>
        <pt x="198" y="38" on="0"/>
        <pt x="206" y="0" on="1"/>
        <pt x="122" y="-5" on="0"/>
        <pt x="82" y="-15" on="1"/>
        <pt x="76" y="-10" on="1"/>
        <pt x="90" y="49" on="0"/>
        <pt x="110" y="329" on="0"/>
        <pt x="110" y="491" on="0"/>
        <pt x="108" y="561" on="1"/>
        <pt x="129" y="568" on="0"/>
        <pt x="163" y="576" on="1"/>
        <pt x="164" y="583" on="1"/>
        <pt x="50" y="583" on="0"/>
        <pt x="16" y="551" on="1"/>
        <pt x="14" y="543" on="0"/>
        <pt x="14" y="535" on="1"/>
        <pt x="14" y="503" on="0"/>
        <pt x="28" y="482" on="1"/>
        <pt x="28" y="474" on="1"/>
        <pt x="-14" y="439" on="0"/>
        <pt x="-40" y="389" on="1"/>
        <pt x="-57" y="389" on="0"/>
        <pt x="-74" y="418" on="0"/>
        <pt x="-74" y="438" on="1"/>
        <pt x="-74" y="514" on="0"/>
        <pt x="35" y="630" on="0"/>
        <pt x="117" y="660" on="1"/>
        <pt x="150" y="653" on="0"/>
        <pt x="259" y="653" on="0"/>
        <pt x="301" y="664" on="1"/>
        <pt x="307" y="659" on="1"/>
        <pt x="324" y="571" on="0"/>
        <pt x="415" y="320" on="0"/>
        <pt x="461" y="239" on="1"/>
        <pt x="495" y="179" on="1"/>
        <pt x="498" y="180" on="1"/>
        <pt x="498" y="357" on="0"/>
        <pt x="480" y="612" on="0"/>
        <pt x="472" y="651" on="1"/>
        <pt x="557" y="656" on="0"/>
        <pt x="596" y="666" on="1"/>
        <pt x="602" y="661" on="1"/>
      </contour>
    </TTGlyph>
    <TTGlyph name="Nacute" xMin="-91" yMin="-15" xMax="585" yMax="907">
      <contour>
        <pt x="571" y="600" on="0"/>
        <pt x="549" y="333" on="0"/>
        <pt x="549" y="88" on="0"/>
        <pt x="564" y="0" on="1"/>
        <pt x="558" y="-1" on="0"/>
        <pt x="514" y="-3" on="1"/>
        <pt x="391" y="-9" on="0"/>
        <pt x="378" y="-13" on="1"/>
        <pt x="371" y="-10" on="1"/>
        <pt x="319" y="170" on="0"/>
        <pt x="210" y="407" on="1"/>
        <pt x="185" y="461" on="0"/>
        <pt x="167" y="485" on="1"/>
        <pt x="163" y="483" on="1"/>
        <pt x="163" y="306" on="0"/>
        <pt x="181" y="38" on="0"/>
        <pt x="189" y="0" on="1"/>
        <pt x="105" y="-5" on="0"/>
        <pt x="65" y="-15" on="1"/>
        <pt x="59" y="-10" on="1"/>
        <pt x="73" y="49" on="0"/>
        <pt x="93" y="329" on="0"/>
        <pt x="93" y="491" on="0"/>
        <pt x="91" y="561" on="1"/>
        <pt x="112" y="568" on="0"/>
        <pt x="146" y="576" on="1"/>
        <pt x="147" y="583" on="1"/>
        <pt x="33" y="583" on="0"/>
        <pt x="-1" y="551" on="1"/>
        <pt x="-3" y="543" on="0"/>
        <pt x="-3" y="535" on="1"/>
        <pt x="-3" y="503" on="0"/>
        <pt x="11" y="482" on="1"/>
        <pt x="11" y="474" on="1"/>
        <pt x="-31" y="439" on="0"/>
        <pt x="-57" y="389" on="1"/>
        <pt x="-74" y="389" on="0"/>
        <pt x="-91" y="418" on="0"/>
        <pt x="-91" y="438" on="1"/>
        <pt x="-91" y="514" on="0"/>
        <pt x="18" y="630" on="0"/>
        <pt x="100" y="660" on="1"/>
        <pt x="133" y="653" on="0"/>
        <pt x="242" y="653" on="0"/>
        <pt x="284" y="664" on="1"/>
        <pt x="290" y="659" on="1"/>
        <pt x="307" y="571" on="0"/>
        <pt x="398" y="320" on="0"/>
        <pt x="444" y="239" on="1"/>
        <pt x="478" y="179" on="1"/>
        <pt x="481" y="180" on="1"/>
        <pt x="481" y="357" on="0"/>
        <pt x="463" y="612" on="0"/>
        <pt x="455" y="651" on="1"/>
        <pt x="540" y="656" on="0"/>
        <pt x="579" y="666" on="1"/>
        <pt x="585" y="661" on="1"/>
      </contour>
      <contour>
        <pt x="499" y="906" on="1"/>
        <pt x="513" y="907" on="0"/>
        <pt x="542" y="907" on="0"/>
        <pt x="553" y="905" on="1"/>
        <pt x="562" y="896" on="0"/>
        <pt x="580" y="819" on="0"/>
        <pt x="580" y="802" on="1"/>
        <pt x="306" y="726" on="1"/>
        <pt x="295" y="751" on="1"/>
        <pt x="347" y="778" on="0"/>
        <pt x="401" y="809" on="0"/>
        <pt x="481" y="874" on="0"/>
      </contour>
    </TTGlyph>
    <TTGlyph name="Ntilde" xMin="-91" yMin="-15" xMax="585" yMax="880">
      <contour>
        <pt x="571" y="600" on="0"/>
        <pt x="549" y="333" on="0"/>
        <pt x="549" y="88" on="0"/>
        <pt x="564" y="0" on="1"/>
        <pt x="558" y="-1" on="0"/>
        <pt x="514" y="-3" on="1"/>
        <pt x="391" y="-9" on="0"/>
        <pt x="378" y="-13" on="1"/>
        <pt x="371" y="-10" on="1"/>
        <pt x="319" y="170" on="0"/>
        <pt x="210" y="407" on="1"/>
        <pt x="185" y="461" on="0"/>
        <pt x="167" y="485" on="1"/>
        <pt x="163" y="483" on="1"/>
        <pt x="163" y="306" on="0"/>
        <pt x="181" y="38" on="0"/>
        <pt x="189" y="0" on="1"/>
        <pt x="105" y="-5" on="0"/>
        <pt x="65" y="-15" on="1"/>
        <pt x="59" y="-10" on="1"/>
        <pt x="73" y="49" on="0"/>
        <pt x="93" y="329" on="0"/>
        <pt x="93" y="491" on="0"/>
        <pt x="91" y="561" on="1"/>
        <pt x="112" y="568" on="0"/>
        <pt x="146" y="576" on="1"/>
        <pt x="147" y="583" on="1"/>
        <pt x="33" y="583" on="0"/>
        <pt x="-1" y="551" on="1"/>
        <pt x="-3" y="543" on="0"/>
        <pt x="-3" y="535" on="1"/>
        <pt x="-3" y="503" on="0"/>
        <pt x="11" y="482" on="1"/>
        <pt x="11" y="474" on="1"/>
        <pt x="-31" y="439" on="0"/>
        <pt x="-57" y="389" on="1"/>
        <pt x="-74" y="389" on="0"/>
        <pt x="-91" y="418" on="0"/>
        <pt x="-91" y="438" on="1"/>
        <pt x="-91" y="514" on="0"/>
        <pt x="18" y="630" on="0"/>
        <pt x="100" y="660" on="1"/>
        <pt x="133" y="653" on="0"/>
        <pt x="242" y="653" on="0"/>
        <pt x="284" y="664" on="1"/>
        <pt x="290" y="659" on="1"/>
        <pt x="307" y="571" on="0"/>
        <pt x="398" y="320" on="0"/>
        <pt x="444" y="239" on="1"/>
        <pt x="478" y="179" on="1"/>
        <pt x="481" y="180" on="1"/>
        <pt x="481" y="357" on="0"/>
        <pt x="463" y="612" on="0"/>
        <pt x="455" y="651" on="1"/>
        <pt x="540" y="656" on="0"/>
        <pt x="579" y="666" on="1"/>
        <pt x="585" y="661" on="1"/>
      </contour>
      <contour>
        <pt x="460" y="832" on="1"/>
        <pt x="509" y="832" on="0"/>
        <pt x="543" y="867" on="1"/>
        <pt x="567" y="850" on="1"/>
        <pt x="503" y="762" on="0"/>
        <pt x="427" y="731" on="1"/>
        <pt x="402" y="731" on="0"/>
        <pt x="269" y="779" on="0"/>
        <pt x="244" y="779" on="1"/>
        <pt x="196" y="779" on="0"/>
        <pt x="163" y="744" on="1"/>
        <pt x="138" y="761" on="1"/>
        <pt x="164" y="797" on="0"/>
        <pt x="261" y="864" on="0"/>
        <pt x="310" y="880" on="1"/>
        <pt x="383" y="832" on="0"/>
      </contour>
    </TTGlyph>
    <TTGlyph name="O" xMin="30" yMin="-15" xMax="558" yMax="666">
      <contour>
        <pt x="198" y="282" on="1"/>
        <pt x="137" y="314" on="0"/>
        <pt x="137" y="498" on="0"/>
        <pt x="242" y="638" on="0"/>
        <pt x="324" y="666" on="1"/>
        <pt x="558" y="666" on="0"/>
        <pt x="558" y="413" on="1"/>
        <pt x="558" y="277" on="0"/>
        <pt x="390" y="27" on="0"/>
        <pt x="265" y="-15" on="1"/>
        <pt x="154" y="-15" on="0"/>
        <pt x="30" y="123" on="0"/>
        <pt x="30" y="345" on="0"/>
        <pt x="82" y="446" on="1"/>
        <pt x="105" y="490" on="0"/>
        <pt x="131" y="523" on="1"/>
        <pt x="146" y="516" on="1"/>
        <pt x="120" y="467" on="0"/>
        <pt x="120" y="412" on="1"/>
        <pt x="120" y="304" on="0"/>
        <pt x="197" y="255" on="1"/>
        <pt x="197" y="177" on="0"/>
        <pt x="242" y="68" on="0"/>
        <pt x="288" y="68" on="1"/>
        <pt x="318" y="68" on="0"/>
        <pt x="337" y="79" on="1"/>
        <pt x="364" y="133" on="0"/>
        <pt x="391" y="318" on="0"/>
        <pt x="391" y="396" on="1"/>
        <pt x="391" y="582" on="0"/>
        <pt x="300" y="582" on="1"/>
        <pt x="269" y="582" on="0"/>
        <pt x="250" y="571" on="1"/>
        <pt x="215" y="522" on="0"/>
        <pt x="215" y="436" on="1"/>
        <pt x="215" y="398" on="0"/>
        <pt x="232" y="355" on="0"/>
        <pt x="260" y="355" on="1"/>
        <pt x="268" y="355" on="0"/>
        <pt x="276" y="357" on="1"/>
        <pt x="279" y="368" on="0"/>
        <pt x="279" y="381" on="1"/>
        <pt x="279" y="421" on="0"/>
        <pt x="257" y="443" on="1"/>
        <pt x="257" y="451" on="1"/>
        <pt x="301" y="481" on="0"/>
        <pt x="325" y="524" on="1"/>
        <pt x="361" y="524" on="0"/>
        <pt x="361" y="393" on="0"/>
        <pt x="272" y="298" on="0"/>
      </contour>
    </TTGlyph>
    <TTGlyph name="OE" xMin="30" yMin="-15" xMax="775" yMax="666">
      <contour>
        <pt x="30" y="238" on="1"/>
        <pt x="30" y="379" on="0"/>
        <pt x="181" y="618" on="0"/>
        <pt x="310" y="666" on="1"/>
        <pt x="312" y="665" on="1"/>
        <pt x="311" y="666" on="1"/>
        <pt x="400" y="651" on="0"/>
        <pt x="678" y="651" on="0"/>
        <pt x="765" y="666" on="1"/>
        <pt x="771" y="655" on="1"/>
        <pt x="729" y="607" on="0"/>
        <pt x="724" y="497" on="1"/>
        <pt x="707" y="497" on="1"/>
        <pt x="698" y="525" on="0"/>
        <pt x="691" y="573" on="1"/>
        <pt x="645" y="594" on="0"/>
        <pt x="595" y="594" on="1"/>
        <pt x="576" y="594" on="0"/>
        <pt x="551" y="589" on="1"/>
        <pt x="540" y="515" on="0"/>
        <pt x="531" y="373" on="1"/>
        <pt x="550" y="369" on="0"/>
        <pt x="635" y="369" on="0"/>
        <pt x="686" y="386" on="1"/>
        <pt x="691" y="380" on="1"/>
        <pt x="685" y="363" on="0"/>
        <pt x="676" y="296" on="1"/>
        <pt x="606" y="306" on="0"/>
        <pt x="539" y="306" on="0"/>
        <pt x="528" y="304" on="1"/>
        <pt x="526" y="270" on="0"/>
        <pt x="526" y="216" on="0"/>
        <pt x="531" y="163" on="0"/>
        <pt x="540" y="132" on="1"/>
        <pt x="557" y="71" on="0"/>
        <pt x="619" y="71" on="1"/>
        <pt x="646" y="109" on="0"/>
        <pt x="646" y="166" on="1"/>
        <pt x="646" y="184" on="0"/>
        <pt x="643" y="197" on="1"/>
        <pt x="650" y="202" on="1"/>
        <pt x="715" y="203" on="0"/>
        <pt x="775" y="213" on="1"/>
        <pt x="763" y="147" on="0"/>
        <pt x="647" y="19" on="0"/>
        <pt x="579" y="-15" on="1"/>
        <pt x="507" y="-15" on="0"/>
        <pt x="430" y="23" on="0"/>
        <pt x="409" y="66" on="1"/>
        <pt x="403" y="66" on="1"/>
        <pt x="353" y="10" on="0"/>
        <pt x="265" y="-15" on="1"/>
        <pt x="154" y="-15" on="0"/>
        <pt x="30" y="123" on="0"/>
      </contour>
      <contour>
        <pt x="366" y="564" on="1"/>
        <pt x="341" y="582" on="0"/>
        <pt x="268" y="582" on="0"/>
        <pt x="250" y="571" on="1"/>
        <pt x="197" y="436" on="0"/>
        <pt x="197" y="255" on="1"/>
        <pt x="197" y="168" on="0"/>
        <pt x="253" y="71" on="0"/>
        <pt x="308" y="71" on="1"/>
        <pt x="332" y="71" on="0"/>
        <pt x="347" y="78" on="1"/>
        <pt x="368" y="108" on="0"/>
        <pt x="370" y="185" on="1"/>
        <pt x="377" y="435" on="1"/>
        <pt x="377" y="512" on="0"/>
      </contour>
    </TTGlyph>
    <TTGlyph name="Oacute" xMin="30" yMin="-15" xMax="558" yMax="907">
      <contour>
        <pt x="198" y="282" on="1"/>
        <pt x="137" y="314" on="0"/>
        <pt x="137" y="498" on="0"/>
        <pt x="242" y="638" on="0"/>
        <pt x="324" y="666" on="1"/>
        <pt x="558" y="666" on="0"/>
        <pt x="558" y="413" on="1"/>
        <pt x="558" y="277" on="0"/>
        <pt x="390" y="27" on="0"/>
        <pt x="265" y="-15" on="1"/>
        <pt x="154" y="-15" on="0"/>
        <pt x="30" y="123" on="0"/>
        <pt x="30" y="345" on="0"/>
        <pt x="82" y="446" on="1"/>
        <pt x="105" y="490" on="0"/>
        <pt x="131" y="523" on="1"/>
        <pt x="146" y="516" on="1"/>
        <pt x="120" y="467" on="0"/>
        <pt x="120" y="412" on="1"/>
        <pt x="120" y="304" on="0"/>
        <pt x="197" y="255" on="1"/>
        <pt x="197" y="177" on="0"/>
        <pt x="242" y="68" on="0"/>
        <pt x="288" y="68" on="1"/>
        <pt x="318" y="68" on="0"/>
        <pt x="337" y="79" on="1"/>
        <pt x="364" y="133" on="0"/>
        <pt x="391" y="318" on="0"/>
        <pt x="391" y="396" on="1"/>
        <pt x="391" y="582" on="0"/>
        <pt x="300" y="582" on="1"/>
        <pt x="269" y="582" on="0"/>
        <pt x="250" y="571" on="1"/>
        <pt x="215" y="522" on="0"/>
        <pt x="215" y="436" on="1"/>
        <pt x="215" y="398" on="0"/>
        <pt x="232" y="355" on="0"/>
        <pt x="260" y="355" on="1"/>
        <pt x="268" y="355" on="0"/>
        <pt x="276" y="357" on="1"/>
        <pt x="279" y="368" on="0"/>
        <pt x="279" y="381" on="1"/>
        <pt x="279" y="421" on="0"/>
        <pt x="257" y="443" on="1"/>
        <pt x="257" y="451" on="1"/>
        <pt x="301" y="481" on="0"/>
        <pt x="325" y="524" on="1"/>
        <pt x="361" y="524" on="0"/>
        <pt x="361" y="393" on="0"/>
        <pt x="272" y="298" on="0"/>
      </contour>
      <contour>
        <pt x="474" y="906" on="1"/>
        <pt x="488" y="907" on="0"/>
        <pt x="517" y="907" on="0"/>
        <pt x="528" y="905" on="1"/>
        <pt x="537" y="896" on="0"/>
        <pt x="555" y="819" on="0"/>
        <pt x="555" y="802" on="1"/>
        <pt x="281" y="726" on="1"/>
        <pt x="270" y="751" on="1"/>
        <pt x="322" y="778" on="0"/>
        <pt x="376" y="809" on="0"/>
        <pt x="456" y="874" on="0"/>
      </contour>
    </TTGlyph>
    <TTGlyph name="Ocircumflex" xMin="30" yMin="-15" xMax="558" yMax="906">
      <contour>
        <pt x="198" y="282" on="1"/>
        <pt x="137" y="314" on="0"/>
        <pt x="137" y="498" on="0"/>
        <pt x="242" y="638" on="0"/>
        <pt x="324" y="666" on="1"/>
        <pt x="558" y="666" on="0"/>
        <pt x="558" y="413" on="1"/>
        <pt x="558" y="277" on="0"/>
        <pt x="390" y="27" on="0"/>
        <pt x="265" y="-15" on="1"/>
        <pt x="154" y="-15" on="0"/>
        <pt x="30" y="123" on="0"/>
        <pt x="30" y="345" on="0"/>
        <pt x="82" y="446" on="1"/>
        <pt x="105" y="490" on="0"/>
        <pt x="131" y="523" on="1"/>
        <pt x="146" y="516" on="1"/>
        <pt x="120" y="467" on="0"/>
        <pt x="120" y="412" on="1"/>
        <pt x="120" y="304" on="0"/>
        <pt x="197" y="255" on="1"/>
        <pt x="197" y="177" on="0"/>
        <pt x="242" y="68" on="0"/>
        <pt x="288" y="68" on="1"/>
        <pt x="318" y="68" on="0"/>
        <pt x="337" y="79" on="1"/>
        <pt x="364" y="133" on="0"/>
        <pt x="391" y="318" on="0"/>
        <pt x="391" y="396" on="1"/>
        <pt x="391" y="582" on="0"/>
        <pt x="300" y="582" on="1"/>
        <pt x="269" y="582" on="0"/>
        <pt x="250" y="571" on="1"/>
        <pt x="215" y="522" on="0"/>
        <pt x="215" y="436" on="1"/>
        <pt x="215" y="398" on="0"/>
        <pt x="232" y="355" on="0"/>
        <pt x="260" y="355" on="1"/>
        <pt x="268" y="355" on="0"/>
        <pt x="276" y="357" on="1"/>
        <pt x="279" y="368" on="0"/>
        <pt x="279" y="381" on="1"/>
        <pt x="279" y="421" on="0"/>
        <pt x="257" y="443" on="1"/>
        <pt x="257" y="451" on="1"/>
        <pt x="301" y="481" on="0"/>
        <pt x="325" y="524" on="1"/>
        <pt x="361" y="524" on="0"/>
        <pt x="361" y="393" on="0"/>
        <pt x="272" y="298" on="0"/>
      </contour>
      <contour>
        <pt x="530" y="726" on="1"/>
        <pt x="324" y="786" on="1"/>
        <pt x="138" y="726" on="1"/>
        <pt x="127" y="751" on="1"/>
        <pt x="275" y="828" on="0"/>
        <pt x="321" y="906" on="1"/>
        <pt x="367" y="906" on="1"/>
        <pt x="422" y="813" on="0"/>
        <pt x="541" y="751" on="1"/>
      </contour>
    </TTGlyph>
    <TTGlyph name="Odieresis" xMin="30" yMin="-15" xMax="558" yMax="896">
      <contour>
        <pt x="198" y="282" on="1"/>
        <pt x="137" y="314" on="0"/>
        <pt x="137" y="498" on="0"/>
        <pt x="242" y="638" on="0"/>
        <pt x="324" y="666" on="1"/>
        <pt x="558" y="666" on="0"/>
        <pt x="558" y="413" on="1"/>
        <pt x="558" y="277" on="0"/>
        <pt x="390" y="27" on="0"/>
        <pt x="265" y="-15" on="1"/>
        <pt x="154" y="-15" on="0"/>
        <pt x="30" y="123" on="0"/>
        <pt x="30" y="345" on="0"/>
        <pt x="82" y="446" on="1"/>
        <pt x="105" y="490" on="0"/>
        <pt x="131" y="523" on="1"/>
        <pt x="146" y="516" on="1"/>
        <pt x="120" y="467" on="0"/>
        <pt x="120" y="412" on="1"/>
        <pt x="120" y="304" on="0"/>
        <pt x="197" y="255" on="1"/>
        <pt x="197" y="177" on="0"/>
        <pt x="242" y="68" on="0"/>
        <pt x="288" y="68" on="1"/>
        <pt x="318" y="68" on="0"/>
        <pt x="337" y="79" on="1"/>
        <pt x="364" y="133" on="0"/>
        <pt x="391" y="318" on="0"/>
        <pt x="391" y="396" on="1"/>
        <pt x="391" y="582" on="0"/>
        <pt x="300" y="582" on="1"/>
        <pt x="269" y="582" on="0"/>
        <pt x="250" y="571" on="1"/>
        <pt x="215" y="522" on="0"/>
        <pt x="215" y="436" on="1"/>
        <pt x="215" y="398" on="0"/>
        <pt x="232" y="355" on="0"/>
        <pt x="260" y="355" on="1"/>
        <pt x="268" y="355" on="0"/>
        <pt x="276" y="357" on="1"/>
        <pt x="279" y="368" on="0"/>
        <pt x="279" y="381" on="1"/>
        <pt x="279" y="421" on="0"/>
        <pt x="257" y="443" on="1"/>
        <pt x="257" y="451" on="1"/>
        <pt x="301" y="481" on="0"/>
        <pt x="325" y="524" on="1"/>
        <pt x="361" y="524" on="0"/>
        <pt x="361" y="393" on="0"/>
        <pt x="272" y="298" on="0"/>
      </contour>
      <contour>
        <pt x="306" y="814" on="1"/>
        <pt x="291" y="791" on="0"/>
        <pt x="232" y="727" on="0"/>
        <pt x="211" y="712" on="1"/>
        <pt x="171" y="742" on="0"/>
        <pt x="136" y="814" on="1"/>
        <pt x="147" y="834" on="0"/>
        <pt x="205" y="884" on="0"/>
        <pt x="229" y="896" on="1"/>
        <pt x="268" y="871" on="0"/>
      </contour>
      <contour>
        <pt x="527" y="814" on="1"/>
        <pt x="512" y="791" on="0"/>
        <pt x="453" y="727" on="0"/>
        <pt x="432" y="712" on="1"/>
        <pt x="392" y="742" on="0"/>
        <pt x="357" y="814" on="1"/>
        <pt x="368" y="834" on="0"/>
        <pt x="426" y="884" on="0"/>
        <pt x="450" y="896" on="1"/>
        <pt x="489" y="871" on="0"/>
      </contour>
    </TTGlyph>
    <TTGlyph name="Ograve" xMin="30" yMin="-15" xMax="558" yMax="907">
      <contour>
        <pt x="198" y="282" on="1"/>
        <pt x="137" y="314" on="0"/>
        <pt x="137" y="498" on="0"/>
        <pt x="242" y="638" on="0"/>
        <pt x="324" y="666" on="1"/>
        <pt x="558" y="666" on="0"/>
        <pt x="558" y="413" on="1"/>
        <pt x="558" y="277" on="0"/>
        <pt x="390" y="27" on="0"/>
        <pt x="265" y="-15" on="1"/>
        <pt x="154" y="-15" on="0"/>
        <pt x="30" y="123" on="0"/>
        <pt x="30" y="345" on="0"/>
        <pt x="82" y="446" on="1"/>
        <pt x="105" y="490" on="0"/>
        <pt x="131" y="523" on="1"/>
        <pt x="146" y="516" on="1"/>
        <pt x="120" y="467" on="0"/>
        <pt x="120" y="412" on="1"/>
        <pt x="120" y="304" on="0"/>
        <pt x="197" y="255" on="1"/>
        <pt x="197" y="177" on="0"/>
        <pt x="242" y="68" on="0"/>
        <pt x="288" y="68" on="1"/>
        <pt x="318" y="68" on="0"/>
        <pt x="337" y="79" on="1"/>
        <pt x="364" y="133" on="0"/>
        <pt x="391" y="318" on="0"/>
        <pt x="391" y="396" on="1"/>
        <pt x="391" y="582" on="0"/>
        <pt x="300" y="582" on="1"/>
        <pt x="269" y="582" on="0"/>
        <pt x="250" y="571" on="1"/>
        <pt x="215" y="522" on="0"/>
        <pt x="215" y="436" on="1"/>
        <pt x="215" y="398" on="0"/>
        <pt x="232" y="355" on="0"/>
        <pt x="260" y="355" on="1"/>
        <pt x="268" y="355" on="0"/>
        <pt x="276" y="357" on="1"/>
        <pt x="279" y="368" on="0"/>
        <pt x="279" y="381" on="1"/>
        <pt x="279" y="421" on="0"/>
        <pt x="257" y="443" on="1"/>
        <pt x="257" y="451" on="1"/>
        <pt x="301" y="481" on="0"/>
        <pt x="325" y="524" on="1"/>
        <pt x="361" y="524" on="0"/>
        <pt x="361" y="393" on="0"/>
        <pt x="272" y="298" on="0"/>
      </contour>
      <contour>
        <pt x="121" y="905" on="1"/>
        <pt x="132" y="907" on="0"/>
        <pt x="161" y="907" on="0"/>
        <pt x="175" y="906" on="1"/>
        <pt x="193" y="874" on="0"/>
        <pt x="273" y="809" on="0"/>
        <pt x="327" y="778" on="0"/>
        <pt x="379" y="751" on="1"/>
        <pt x="368" y="726" on="1"/>
        <pt x="94" y="802" on="1"/>
        <pt x="94" y="819" on="0"/>
        <pt x="112" y="896" on="0"/>
      </contour>
    </TTGlyph>
    <TTGlyph name="Oslash" xMin="30" yMin="-87" xMax="558" yMax="741">
      <contour>
        <pt x="30" y="238" on="1"/>
        <pt x="30" y="377" on="0"/>
        <pt x="194" y="617" on="0"/>
        <pt x="324" y="666" on="1"/>
        <pt x="363" y="666" on="0"/>
        <pt x="398" y="658" on="1"/>
        <pt x="403" y="671" on="0"/>
        <pt x="417" y="723" on="0"/>
        <pt x="420" y="732" on="1"/>
        <pt x="449" y="734" on="0"/>
        <pt x="467" y="741" on="1"/>
        <pt x="471" y="737" on="1"/>
        <pt x="452" y="696" on="0"/>
        <pt x="433" y="648" on="1"/>
        <pt x="558" y="599" on="0"/>
        <pt x="558" y="413" on="1"/>
        <pt x="558" y="277" on="0"/>
        <pt x="390" y="27" on="0"/>
        <pt x="265" y="-15" on="1"/>
        <pt x="224" y="-15" on="0"/>
        <pt x="183" y="-3" on="1"/>
        <pt x="153" y="-87" on="1"/>
        <pt x="147" y="-87" on="1"/>
        <pt x="120" y="-69" on="0"/>
        <pt x="113" y="-55" on="1"/>
        <pt x="144" y="12" on="1"/>
        <pt x="30" y="74" on="0"/>
      </contour>
      <contour>
        <pt x="364" y="133" on="0"/>
        <pt x="391" y="318" on="0"/>
        <pt x="391" y="461" on="0"/>
        <pt x="379" y="507" on="1"/>
        <pt x="226" y="110" on="1"/>
        <pt x="249" y="68" on="0"/>
        <pt x="318" y="68" on="0"/>
        <pt x="337" y="79" on="1"/>
      </contour>
      <contour>
        <pt x="197" y="255" on="1"/>
        <pt x="197" y="207" on="0"/>
        <pt x="206" y="165" on="1"/>
        <pt x="358" y="553" on="1"/>
        <pt x="335" y="582" on="0"/>
        <pt x="269" y="582" on="0"/>
        <pt x="250" y="571" on="1"/>
        <pt x="197" y="436" on="0"/>
      </contour>
    </TTGlyph>
    <TTGlyph name="Otilde" xMin="30" yMin="-15" xMax="558" yMax="880">
      <contour>
        <pt x="198" y="282" on="1"/>
        <pt x="137" y="314" on="0"/>
        <pt x="137" y="498" on="0"/>
        <pt x="242" y="638" on="0"/>
        <pt x="324" y="666" on="1"/>
        <pt x="558" y="666" on="0"/>
        <pt x="558" y="413" on="1"/>
        <pt x="558" y="277" on="0"/>
        <pt x="390" y="27" on="0"/>
        <pt x="265" y="-15" on="1"/>
        <pt x="154" y="-15" on="0"/>
        <pt x="30" y="123" on="0"/>
        <pt x="30" y="345" on="0"/>
        <pt x="82" y="446" on="1"/>
        <pt x="105" y="490" on="0"/>
        <pt x="131" y="523" on="1"/>
        <pt x="146" y="516" on="1"/>
        <pt x="120" y="467" on="0"/>
        <pt x="120" y="412" on="1"/>
        <pt x="120" y="304" on="0"/>
        <pt x="197" y="255" on="1"/>
        <pt x="197" y="177" on="0"/>
        <pt x="242" y="68" on="0"/>
        <pt x="288" y="68" on="1"/>
        <pt x="318" y="68" on="0"/>
        <pt x="337" y="79" on="1"/>
        <pt x="364" y="133" on="0"/>
        <pt x="391" y="318" on="0"/>
        <pt x="391" y="396" on="1"/>
        <pt x="391" y="582" on="0"/>
        <pt x="300" y="582" on="1"/>
        <pt x="269" y="582" on="0"/>
        <pt x="250" y="571" on="1"/>
        <pt x="215" y="522" on="0"/>
        <pt x="215" y="436" on="1"/>
        <pt x="215" y="398" on="0"/>
        <pt x="232" y="355" on="0"/>
        <pt x="260" y="355" on="1"/>
        <pt x="268" y="355" on="0"/>
        <pt x="276" y="357" on="1"/>
        <pt x="279" y="368" on="0"/>
        <pt x="279" y="381" on="1"/>
        <pt x="279" y="421" on="0"/>
        <pt x="257" y="443" on="1"/>
        <pt x="257" y="451" on="1"/>
        <pt x="301" y="481" on="0"/>
        <pt x="325" y="524" on="1"/>
        <pt x="361" y="524" on="0"/>
        <pt x="361" y="393" on="0"/>
        <pt x="272" y="298" on="0"/>
      </contour>
      <contour>
        <pt x="435" y="832" on="1"/>
        <pt x="484" y="832" on="0"/>
        <pt x="518" y="867" on="1"/>
        <pt x="542" y="850" on="1"/>
        <pt x="478" y="762" on="0"/>
        <pt x="402" y="731" on="1"/>
        <pt x="377" y="731" on="0"/>
        <pt x="244" y="779" on="0"/>
        <pt x="219" y="779" on="1"/>
        <pt x="171" y="779" on="0"/>
        <pt x="138" y="744" on="1"/>
        <pt x="113" y="761" on="1"/>
        <pt x="139" y="797" on="0"/>
        <pt x="236" y="864" on="0"/>
        <pt x="285" y="880" on="1"/>
        <pt x="358" y="832" on="0"/>
      </contour>
    </TTGlyph>
    <TTGlyph name="P" xMin="-74" yMin="-15" xMax="557" yMax="660">
      <contour>
        <pt x="92" y="50" on="0"/>
        <pt x="113" y="321" on="0"/>
        <pt x="113" y="510" on="0"/>
        <pt x="109" y="561" on="1"/>
        <pt x="132" y="569" on="0"/>
        <pt x="163" y="576" on="1"/>
        <pt x="164" y="583" on="1"/>
        <pt x="50" y="583" on="0"/>
        <pt x="16" y="551" on="1"/>
        <pt x="14" y="543" on="0"/>
        <pt x="14" y="535" on="1"/>
        <pt x="14" y="503" on="0"/>
        <pt x="28" y="482" on="1"/>
        <pt x="28" y="474" on="1"/>
        <pt x="-14" y="439" on="0"/>
        <pt x="-40" y="389" on="1"/>
        <pt x="-57" y="389" on="0"/>
        <pt x="-74" y="418" on="0"/>
        <pt x="-74" y="438" on="1"/>
        <pt x="-74" y="514" on="0"/>
        <pt x="35" y="630" on="0"/>
        <pt x="117" y="660" on="1"/>
        <pt x="163" y="651" on="0"/>
        <pt x="348" y="651" on="1"/>
        <pt x="449" y="651" on="0"/>
        <pt x="557" y="588" on="0"/>
        <pt x="557" y="504" on="1"/>
        <pt x="557" y="403" on="0"/>
        <pt x="395" y="295" on="0"/>
        <pt x="280" y="295" on="1"/>
        <pt x="283" y="332" on="1"/>
        <pt x="388" y="332" on="0"/>
        <pt x="388" y="474" on="1"/>
        <pt x="388" y="593" on="0"/>
        <pt x="320" y="593" on="1"/>
        <pt x="297" y="593" on="0"/>
        <pt x="276" y="587" on="1"/>
        <pt x="256" y="447" on="0"/>
        <pt x="256" y="185" on="1"/>
        <pt x="256" y="68" on="0"/>
        <pt x="271" y="0" on="1"/>
        <pt x="138" y="-4" on="0"/>
        <pt x="84" y="-15" on="1"/>
        <pt x="78" y="-10" on="1"/>
      </contour>
    </TTGlyph>
    <TTGlyph name="Q" xMin="-13" yMin="-244" xMax="703" yMax="666">
      <contour>
        <pt x="11" y="238" on="1"/>
        <pt x="11" y="377" on="0"/>
        <pt x="175" y="617" on="0"/>
        <pt x="305" y="666" on="1"/>
        <pt x="539" y="666" on="0"/>
        <pt x="539" y="413" on="1"/>
        <pt x="539" y="278" on="0"/>
        <pt x="373" y="30" on="0"/>
        <pt x="246" y="-15" on="1"/>
        <pt x="148" y="-50" on="0"/>
        <pt x="111" y="-82" on="1"/>
        <pt x="116" y="-88" on="1"/>
        <pt x="174" y="-51" on="0"/>
        <pt x="246" y="-45" on="1"/>
        <pt x="295" y="-54" on="0"/>
        <pt x="487" y="-162" on="0"/>
        <pt x="542" y="-162" on="1"/>
        <pt x="562" y="-162" on="0"/>
        <pt x="582" y="-115" on="0"/>
        <pt x="582" y="-87" on="1"/>
        <pt x="586" y="-80" on="1"/>
        <pt x="639" y="-77" on="0"/>
        <pt x="691" y="-50" on="1"/>
        <pt x="703" y="-59" on="0"/>
        <pt x="703" y="-72" on="1"/>
        <pt x="703" y="-113" on="0"/>
        <pt x="573" y="-196" on="0"/>
        <pt x="419" y="-244" on="0"/>
        <pt x="372" y="-244" on="1"/>
        <pt x="316" y="-193" on="0"/>
        <pt x="170" y="-120" on="0"/>
        <pt x="52" y="-120" on="0"/>
        <pt x="6" y="-166" on="1"/>
        <pt x="-13" y="-151" on="1"/>
        <pt x="63" y="-57" on="0"/>
        <pt x="170" y="-4" on="1"/>
        <pt x="92" y="16" on="0"/>
        <pt x="11" y="149" on="0"/>
      </contour>
      <contour>
        <pt x="372" y="396" on="1"/>
        <pt x="372" y="582" on="0"/>
        <pt x="281" y="582" on="1"/>
        <pt x="250" y="582" on="0"/>
        <pt x="231" y="571" on="1"/>
        <pt x="178" y="436" on="0"/>
        <pt x="178" y="255" on="1"/>
        <pt x="178" y="177" on="0"/>
        <pt x="223" y="68" on="0"/>
        <pt x="269" y="68" on="1"/>
        <pt x="299" y="68" on="0"/>
        <pt x="318" y="79" on="1"/>
        <pt x="345" y="133" on="0"/>
        <pt x="372" y="318" on="0"/>
      </contour>
    </TTGlyph>
    <TTGlyph name="R" xMin="-74" yMin="-15" xMax="625" yMax="660">
      <contour>
        <pt x="92" y="50" on="0"/>
        <pt x="113" y="321" on="0"/>
        <pt x="113" y="510" on="0"/>
        <pt x="109" y="561" on="1"/>
        <pt x="132" y="569" on="0"/>
        <pt x="163" y="576" on="1"/>
        <pt x="164" y="583" on="1"/>
        <pt x="50" y="583" on="0"/>
        <pt x="16" y="551" on="1"/>
        <pt x="14" y="543" on="0"/>
        <pt x="14" y="535" on="1"/>
        <pt x="14" y="503" on="0"/>
        <pt x="28" y="482" on="1"/>
        <pt x="28" y="474" on="1"/>
        <pt x="-14" y="439" on="0"/>
        <pt x="-40" y="389" on="1"/>
        <pt x="-57" y="389" on="0"/>
        <pt x="-74" y="418" on="0"/>
        <pt x="-74" y="438" on="1"/>
        <pt x="-74" y="514" on="0"/>
        <pt x="35" y="630" on="0"/>
        <pt x="117" y="660" on="1"/>
        <pt x="163" y="651" on="0"/>
        <pt x="344" y="651" on="1"/>
        <pt x="501" y="651" on="0"/>
        <pt x="541" y="576" on="1"/>
        <pt x="557" y="547" on="0"/>
        <pt x="557" y="503" on="1"/>
        <pt x="557" y="390" on="0"/>
        <pt x="432" y="331" on="1"/>
        <pt x="445" y="304" on="0"/>
        <pt x="573" y="70" on="0"/>
        <pt x="625" y="0" on="1"/>
        <pt x="518" y="-2" on="0"/>
        <pt x="431" y="-15" on="1"/>
        <pt x="424" y="-13" on="1"/>
        <pt x="413" y="37" on="0"/>
        <pt x="345" y="215" on="0"/>
        <pt x="301" y="299" on="1"/>
        <pt x="276" y="299" on="1"/>
        <pt x="279" y="336" on="1"/>
        <pt x="331" y="336" on="0"/>
        <pt x="388" y="404" on="0"/>
        <pt x="388" y="473" on="1"/>
        <pt x="388" y="593" on="0"/>
        <pt x="320" y="593" on="1"/>
        <pt x="297" y="593" on="0"/>
        <pt x="276" y="587" on="1"/>
        <pt x="256" y="447" on="0"/>
        <pt x="256" y="185" on="1"/>
        <pt x="256" y="68" on="0"/>
        <pt x="271" y="0" on="1"/>
        <pt x="138" y="-4" on="0"/>
        <pt x="84" y="-15" on="1"/>
        <pt x="78" y="-10" on="1"/>
      </contour>
    </TTGlyph>
    <TTGlyph name="Racute" xMin="-74" yMin="-15" xMax="625" yMax="907">
      <contour>
        <pt x="92" y="50" on="0"/>
        <pt x="113" y="321" on="0"/>
        <pt x="113" y="510" on="0"/>
        <pt x="109" y="561" on="1"/>
        <pt x="132" y="569" on="0"/>
        <pt x="163" y="576" on="1"/>
        <pt x="164" y="583" on="1"/>
        <pt x="50" y="583" on="0"/>
        <pt x="16" y="551" on="1"/>
        <pt x="14" y="543" on="0"/>
        <pt x="14" y="535" on="1"/>
        <pt x="14" y="503" on="0"/>
        <pt x="28" y="482" on="1"/>
        <pt x="28" y="474" on="1"/>
        <pt x="-14" y="439" on="0"/>
        <pt x="-40" y="389" on="1"/>
        <pt x="-57" y="389" on="0"/>
        <pt x="-74" y="418" on="0"/>
        <pt x="-74" y="438" on="1"/>
        <pt x="-74" y="514" on="0"/>
        <pt x="35" y="630" on="0"/>
        <pt x="117" y="660" on="1"/>
        <pt x="163" y="651" on="0"/>
        <pt x="344" y="651" on="1"/>
        <pt x="501" y="651" on="0"/>
        <pt x="541" y="576" on="1"/>
        <pt x="557" y="547" on="0"/>
        <pt x="557" y="503" on="1"/>
        <pt x="557" y="390" on="0"/>
        <pt x="432" y="331" on="1"/>
        <pt x="445" y="304" on="0"/>
        <pt x="573" y="70" on="0"/>
        <pt x="625" y="0" on="1"/>
        <pt x="518" y="-2" on="0"/>
        <pt x="431" y="-15" on="1"/>
        <pt x="424" y="-13" on="1"/>
        <pt x="413" y="37" on="0"/>
        <pt x="345" y="215" on="0"/>
        <pt x="301" y="299" on="1"/>
        <pt x="276" y="299" on="1"/>
        <pt x="279" y="336" on="1"/>
        <pt x="331" y="336" on="0"/>
        <pt x="388" y="404" on="0"/>
        <pt x="388" y="473" on="1"/>
        <pt x="388" y="593" on="0"/>
        <pt x="320" y="593" on="1"/>
        <pt x="297" y="593" on="0"/>
        <pt x="276" y="587" on="1"/>
        <pt x="256" y="447" on="0"/>
        <pt x="256" y="185" on="1"/>
        <pt x="256" y="68" on="0"/>
        <pt x="271" y="0" on="1"/>
        <pt x="138" y="-4" on="0"/>
        <pt x="84" y="-15" on="1"/>
        <pt x="78" y="-10" on="1"/>
      </contour>
      <contour>
        <pt x="470" y="906" on="1"/>
        <pt x="484" y="907" on="0"/>
        <pt x="513" y="907" on="0"/>
        <pt x="524" y="905" on="1"/>
        <pt x="533" y="896" on="0"/>
        <pt x="551" y="819" on="0"/>
        <pt x="551" y="802" on="1"/>
        <pt x="277" y="726" on="1"/>
        <pt x="266" y="751" on="1"/>
        <pt x="318" y="778" on="0"/>
        <pt x="372" y="809" on="0"/>
        <pt x="452" y="874" on="0"/>
      </contour>
    </TTGlyph>
    <TTGlyph name="Rcaron" xMin="-74" yMin="-15" xMax="625" yMax="898">
      <contour>
        <pt x="92" y="50" on="0"/>
        <pt x="113" y="321" on="0"/>
        <pt x="113" y="510" on="0"/>
        <pt x="109" y="561" on="1"/>
        <pt x="132" y="569" on="0"/>
        <pt x="163" y="576" on="1"/>
        <pt x="164" y="583" on="1"/>
        <pt x="50" y="583" on="0"/>
        <pt x="16" y="551" on="1"/>
        <pt x="14" y="543" on="0"/>
        <pt x="14" y="535" on="1"/>
        <pt x="14" y="503" on="0"/>
        <pt x="28" y="482" on="1"/>
        <pt x="28" y="474" on="1"/>
        <pt x="-14" y="439" on="0"/>
        <pt x="-40" y="389" on="1"/>
        <pt x="-57" y="389" on="0"/>
        <pt x="-74" y="418" on="0"/>
        <pt x="-74" y="438" on="1"/>
        <pt x="-74" y="514" on="0"/>
        <pt x="35" y="630" on="0"/>
        <pt x="117" y="660" on="1"/>
        <pt x="163" y="651" on="0"/>
        <pt x="344" y="651" on="1"/>
        <pt x="501" y="651" on="0"/>
        <pt x="541" y="576" on="1"/>
        <pt x="557" y="547" on="0"/>
        <pt x="557" y="503" on="1"/>
        <pt x="557" y="390" on="0"/>
        <pt x="432" y="331" on="1"/>
        <pt x="445" y="304" on="0"/>
        <pt x="573" y="70" on="0"/>
        <pt x="625" y="0" on="1"/>
        <pt x="518" y="-2" on="0"/>
        <pt x="431" y="-15" on="1"/>
        <pt x="424" y="-13" on="1"/>
        <pt x="413" y="37" on="0"/>
        <pt x="345" y="215" on="0"/>
        <pt x="301" y="299" on="1"/>
        <pt x="276" y="299" on="1"/>
        <pt x="279" y="336" on="1"/>
        <pt x="331" y="336" on="0"/>
        <pt x="388" y="404" on="0"/>
        <pt x="388" y="473" on="1"/>
        <pt x="388" y="593" on="0"/>
        <pt x="320" y="593" on="1"/>
        <pt x="297" y="593" on="0"/>
        <pt x="276" y="587" on="1"/>
        <pt x="256" y="447" on="0"/>
        <pt x="256" y="185" on="1"/>
        <pt x="256" y="68" on="0"/>
        <pt x="271" y="0" on="1"/>
        <pt x="138" y="-4" on="0"/>
        <pt x="84" y="-15" on="1"/>
        <pt x="78" y="-10" on="1"/>
      </contour>
      <contour>
        <pt x="134" y="898" on="1"/>
        <pt x="340" y="838" on="1"/>
        <pt x="526" y="898" on="1"/>
        <pt x="537" y="873" on="1"/>
        <pt x="389" y="796" on="0"/>
        <pt x="343" y="718" on="1"/>
        <pt x="297" y="718" on="1"/>
        <pt x="242" y="811" on="0"/>
        <pt x="123" y="873" on="1"/>
      </contour>
    </TTGlyph>
    <TTGlyph name="Rcommaaccent" xMin="-74" yMin="-251" xMax="625" yMax="660">
      <contour>
        <pt x="92" y="50" on="0"/>
        <pt x="113" y="321" on="0"/>
        <pt x="113" y="510" on="0"/>
        <pt x="109" y="561" on="1"/>
        <pt x="132" y="569" on="0"/>
        <pt x="163" y="576" on="1"/>
        <pt x="164" y="583" on="1"/>
        <pt x="50" y="583" on="0"/>
        <pt x="16" y="551" on="1"/>
        <pt x="14" y="543" on="0"/>
        <pt x="14" y="535" on="1"/>
        <pt x="14" y="503" on="0"/>
        <pt x="28" y="482" on="1"/>
        <pt x="28" y="474" on="1"/>
        <pt x="-14" y="439" on="0"/>
        <pt x="-40" y="389" on="1"/>
        <pt x="-57" y="389" on="0"/>
        <pt x="-74" y="418" on="0"/>
        <pt x="-74" y="438" on="1"/>
        <pt x="-74" y="514" on="0"/>
        <pt x="35" y="630" on="0"/>
        <pt x="117" y="660" on="1"/>
        <pt x="163" y="651" on="0"/>
        <pt x="344" y="651" on="1"/>
        <pt x="501" y="651" on="0"/>
        <pt x="541" y="576" on="1"/>
        <pt x="557" y="547" on="0"/>
        <pt x="557" y="503" on="1"/>
        <pt x="557" y="390" on="0"/>
        <pt x="432" y="331" on="1"/>
        <pt x="445" y="304" on="0"/>
        <pt x="573" y="70" on="0"/>
        <pt x="625" y="0" on="1"/>
        <pt x="518" y="-2" on="0"/>
        <pt x="431" y="-15" on="1"/>
        <pt x="424" y="-13" on="1"/>
        <pt x="413" y="37" on="0"/>
        <pt x="345" y="215" on="0"/>
        <pt x="301" y="299" on="1"/>
        <pt x="276" y="299" on="1"/>
        <pt x="279" y="336" on="1"/>
        <pt x="331" y="336" on="0"/>
        <pt x="388" y="404" on="0"/>
        <pt x="388" y="473" on="1"/>
        <pt x="388" y="593" on="0"/>
        <pt x="320" y="593" on="1"/>
        <pt x="297" y="593" on="0"/>
        <pt x="276" y="587" on="1"/>
        <pt x="256" y="447" on="0"/>
        <pt x="256" y="185" on="1"/>
        <pt x="256" y="68" on="0"/>
        <pt x="271" y="0" on="1"/>
        <pt x="138" y="-4" on="0"/>
        <pt x="84" y="-15" on="1"/>
        <pt x="78" y="-10" on="1"/>
      </contour>
      <contour>
        <pt x="411" y="-104" on="1"/>
        <pt x="403" y="-153" on="0"/>
        <pt x="315" y="-229" on="0"/>
        <pt x="256" y="-251" on="1"/>
        <pt x="243" y="-231" on="1"/>
        <pt x="291" y="-198" on="0"/>
        <pt x="303" y="-164" on="1"/>
        <pt x="278" y="-132" on="0"/>
        <pt x="267" y="-104" on="1"/>
        <pt x="275" y="-87" on="0"/>
        <pt x="325" y="-45" on="0"/>
        <pt x="345" y="-34" on="1"/>
        <pt x="378" y="-54" on="0"/>
      </contour>
    </TTGlyph>
    <TTGlyph name="S" xMin="-21" yMin="-115" xMax="442" yMax="666">
      <contour>
        <pt x="103" y="119" on="1"/>
        <pt x="103" y="67" on="0"/>
        <pt x="162" y="-9" on="0"/>
        <pt x="212" y="-22" on="1"/>
        <pt x="244" y="6" on="0"/>
        <pt x="303" y="113" on="0"/>
        <pt x="303" y="182" on="0"/>
        <pt x="250" y="240" on="0"/>
        <pt x="174" y="286" on="0"/>
        <pt x="136" y="310" on="1"/>
        <pt x="44" y="365" on="0"/>
        <pt x="44" y="487" on="0"/>
        <pt x="166" y="640" on="0"/>
        <pt x="229" y="666" on="1"/>
        <pt x="284" y="651" on="0"/>
        <pt x="411" y="651" on="0"/>
        <pt x="436" y="659" on="1"/>
        <pt x="442" y="646" on="1"/>
        <pt x="415" y="610" on="0"/>
        <pt x="385" y="492" on="0"/>
        <pt x="385" y="441" on="1"/>
        <pt x="368" y="441" on="1"/>
        <pt x="356" y="471" on="0"/>
        <pt x="348" y="517" on="1"/>
        <pt x="318" y="535" on="1"/>
        <pt x="250" y="577" on="0"/>
        <pt x="183" y="577" on="1"/>
        <pt x="172" y="566" on="0"/>
        <pt x="172" y="509" on="0"/>
        <pt x="227" y="451" on="0"/>
        <pt x="304" y="404" on="0"/>
        <pt x="343" y="380" on="1"/>
        <pt x="437" y="324" on="0"/>
        <pt x="437" y="265" on="1"/>
        <pt x="437" y="172" on="0"/>
        <pt x="277" y="-54" on="0"/>
        <pt x="186" y="-115" on="1"/>
        <pt x="96" y="-115" on="0"/>
        <pt x="-21" y="-27" on="0"/>
        <pt x="-21" y="55" on="1"/>
        <pt x="14" y="121" on="0"/>
        <pt x="134" y="226" on="0"/>
        <pt x="185" y="226" on="1"/>
        <pt x="249" y="226" on="0"/>
        <pt x="249" y="187" on="1"/>
        <pt x="216" y="156" on="0"/>
        <pt x="194" y="112" on="1"/>
        <pt x="186" y="112" on="1"/>
        <pt x="164" y="141" on="0"/>
        <pt x="129" y="141" on="1"/>
        <pt x="116" y="141" on="0"/>
        <pt x="105" y="138" on="1"/>
        <pt x="103" y="128" on="0"/>
      </contour>
    </TTGlyph>
    <TTGlyph name="T" xMin="14" yMin="-15" xMax="566" yMax="704">
      <contour>
        <pt x="304" y="656" on="1"/>
        <pt x="416" y="647" on="0"/>
        <pt x="485" y="647" on="0"/>
        <pt x="497" y="651" on="1"/>
        <pt x="529" y="684" on="0"/>
        <pt x="553" y="704" on="1"/>
        <pt x="566" y="698" on="1"/>
        <pt x="532" y="634" on="0"/>
        <pt x="519" y="550" on="1"/>
        <pt x="496" y="557" on="1"/>
        <pt x="460" y="567" on="0"/>
        <pt x="390" y="573" on="1"/>
        <pt x="365" y="385" on="0"/>
        <pt x="365" y="68" on="0"/>
        <pt x="380" y="0" on="1"/>
        <pt x="247" y="-4" on="0"/>
        <pt x="193" y="-15" on="1"/>
        <pt x="187" y="-10" on="1"/>
        <pt x="201" y="49" on="0"/>
        <pt x="222" y="331" on="0"/>
        <pt x="222" y="494" on="0"/>
        <pt x="220" y="566" on="1"/>
        <pt x="248" y="574" on="0"/>
        <pt x="273" y="577" on="1"/>
        <pt x="274" y="584" on="1"/>
        <pt x="250" y="585" on="0"/>
        <pt x="188" y="585" on="0"/>
        <pt x="127" y="574" on="0"/>
        <pt x="104" y="552" on="1"/>
        <pt x="102" y="544" on="0"/>
        <pt x="102" y="536" on="1"/>
        <pt x="102" y="504" on="0"/>
        <pt x="116" y="483" on="1"/>
        <pt x="116" y="475" on="1"/>
        <pt x="74" y="440" on="0"/>
        <pt x="48" y="390" on="1"/>
        <pt x="31" y="390" on="0"/>
        <pt x="14" y="420" on="0"/>
        <pt x="14" y="440" on="1"/>
        <pt x="14" y="517" on="0"/>
        <pt x="113" y="637" on="0"/>
        <pt x="191" y="666" on="1"/>
      </contour>
    </TTGlyph>
    <TTGlyph name="Thorn" xMin="31" yMin="-15" xMax="526" yMax="664">
      <contour>
        <pt x="254" y="522" on="1"/>
        <pt x="296" y="524" on="0"/>
        <pt x="361" y="524" on="0"/>
        <pt x="434" y="511" on="0"/>
        <pt x="464" y="495" on="1"/>
        <pt x="526" y="462" on="0"/>
        <pt x="526" y="281" on="0"/>
        <pt x="370" y="167" on="0"/>
        <pt x="259" y="167" on="1"/>
        <pt x="262" y="204" on="1"/>
        <pt x="357" y="204" on="0"/>
        <pt x="357" y="346" on="1"/>
        <pt x="357" y="466" on="0"/>
        <pt x="289" y="466" on="1"/>
        <pt x="269" y="466" on="0"/>
        <pt x="249" y="461" on="1"/>
        <pt x="236" y="315" on="0"/>
        <pt x="236" y="68" on="0"/>
        <pt x="251" y="0" on="1"/>
        <pt x="118" y="-4" on="0"/>
        <pt x="64" y="-15" on="1"/>
        <pt x="58" y="-10" on="1"/>
        <pt x="72" y="49" on="0"/>
        <pt x="93" y="331" on="0"/>
        <pt x="93" y="557" on="0"/>
        <pt x="88" y="616" on="1"/>
        <pt x="54" y="622" on="0"/>
        <pt x="31" y="633" on="1"/>
        <pt x="32" y="651" on="1"/>
        <pt x="183" y="651" on="0"/>
        <pt x="269" y="664" on="1"/>
        <pt x="275" y="659" on="1"/>
        <pt x="263" y="608" on="0"/>
      </contour>
    </TTGlyph>
    <TTGlyph name="U" xMin="-74" yMin="-15" xMax="595" yMax="664">
      <contour>
        <pt x="95" y="205" on="1"/>
        <pt x="110" y="457" on="1"/>
        <pt x="110" y="491" on="0"/>
        <pt x="108" y="561" on="1"/>
        <pt x="129" y="568" on="0"/>
        <pt x="163" y="576" on="1"/>
        <pt x="164" y="583" on="1"/>
        <pt x="50" y="583" on="0"/>
        <pt x="16" y="551" on="1"/>
        <pt x="14" y="543" on="0"/>
        <pt x="14" y="535" on="1"/>
        <pt x="14" y="503" on="0"/>
        <pt x="28" y="482" on="1"/>
        <pt x="28" y="474" on="1"/>
        <pt x="-14" y="439" on="0"/>
        <pt x="-40" y="389" on="1"/>
        <pt x="-57" y="389" on="0"/>
        <pt x="-74" y="418" on="0"/>
        <pt x="-74" y="438" on="1"/>
        <pt x="-74" y="514" on="0"/>
        <pt x="35" y="630" on="0"/>
        <pt x="117" y="660" on="1"/>
        <pt x="150" y="653" on="0"/>
        <pt x="242" y="653" on="0"/>
        <pt x="284" y="664" on="1"/>
        <pt x="290" y="659" on="1"/>
        <pt x="275" y="592" on="0"/>
        <pt x="252" y="367" on="0"/>
        <pt x="252" y="227" on="0"/>
        <pt x="254" y="178" on="0"/>
        <pt x="259" y="147" on="1"/>
        <pt x="269" y="88" on="0"/>
        <pt x="308" y="80" on="1"/>
        <pt x="371" y="125" on="0"/>
        <pt x="406" y="200" on="1"/>
        <pt x="413" y="316" on="0"/>
        <pt x="413" y="598" on="0"/>
        <pt x="402" y="649" on="1"/>
        <pt x="536" y="653" on="0"/>
        <pt x="589" y="664" on="1"/>
        <pt x="595" y="659" on="1"/>
        <pt x="579" y="587" on="0"/>
        <pt x="560" y="307" on="0"/>
        <pt x="560" y="51" on="0"/>
        <pt x="571" y="0" on="1"/>
        <pt x="440" y="-6" on="0"/>
        <pt x="397" y="-15" on="1"/>
        <pt x="390" y="-10" on="1"/>
        <pt x="409" y="62" on="0"/>
        <pt x="416" y="125" on="1"/>
        <pt x="412" y="126" on="1"/>
        <pt x="356" y="22" on="0"/>
        <pt x="273" y="-15" on="1"/>
        <pt x="175" y="-13" on="0"/>
        <pt x="95" y="97" on="0"/>
      </contour>
    </TTGlyph>
    <TTGlyph name="Uacute" xMin="-84" yMin="-15" xMax="585" yMax="907">
      <contour>
        <pt x="85" y="205" on="1"/>
        <pt x="100" y="457" on="1"/>
        <pt x="100" y="491" on="0"/>
        <pt x="98" y="561" on="1"/>
        <pt x="119" y="568" on="0"/>
        <pt x="153" y="576" on="1"/>
        <pt x="154" y="583" on="1"/>
        <pt x="40" y="583" on="0"/>
        <pt x="6" y="551" on="1"/>
        <pt x="4" y="543" on="0"/>
        <pt x="4" y="535" on="1"/>
        <pt x="4" y="503" on="0"/>
        <pt x="18" y="482" on="1"/>
        <pt x="18" y="474" on="1"/>
        <pt x="-24" y="439" on="0"/>
        <pt x="-50" y="389" on="1"/>
        <pt x="-67" y="389" on="0"/>
        <pt x="-84" y="418" on="0"/>
        <pt x="-84" y="438" on="1"/>
        <pt x="-84" y="514" on="0"/>
        <pt x="25" y="630" on="0"/>
        <pt x="107" y="660" on="1"/>
        <pt x="140" y="653" on="0"/>
        <pt x="232" y="653" on="0"/>
        <pt x="274" y="664" on="1"/>
        <pt x="280" y="659" on="1"/>
        <pt x="265" y="592" on="0"/>
        <pt x="242" y="367" on="0"/>
        <pt x="242" y="227" on="0"/>
        <pt x="244" y="178" on="0"/>
        <pt x="249" y="147" on="1"/>
        <pt x="259" y="88" on="0"/>
        <pt x="298" y="80" on="1"/>
        <pt x="361" y="125" on="0"/>
        <pt x="396" y="200" on="1"/>
        <pt x="403" y="316" on="0"/>
        <pt x="403" y="598" on="0"/>
        <pt x="392" y="649" on="1"/>
        <pt x="526" y="653" on="0"/>
        <pt x="579" y="664" on="1"/>
        <pt x="585" y="659" on="1"/>
        <pt x="569" y="587" on="0"/>
        <pt x="550" y="307" on="0"/>
        <pt x="550" y="51" on="0"/>
        <pt x="561" y="0" on="1"/>
        <pt x="430" y="-6" on="0"/>
        <pt x="387" y="-15" on="1"/>
        <pt x="380" y="-10" on="1"/>
        <pt x="399" y="62" on="0"/>
        <pt x="406" y="125" on="1"/>
        <pt x="402" y="126" on="1"/>
        <pt x="346" y="22" on="0"/>
        <pt x="263" y="-15" on="1"/>
        <pt x="165" y="-13" on="0"/>
        <pt x="85" y="97" on="0"/>
      </contour>
      <contour>
        <pt x="483" y="906" on="1"/>
        <pt x="497" y="907" on="0"/>
        <pt x="526" y="907" on="0"/>
        <pt x="537" y="905" on="1"/>
        <pt x="546" y="896" on="0"/>
        <pt x="564" y="819" on="0"/>
        <pt x="564" y="802" on="1"/>
        <pt x="290" y="726" on="1"/>
        <pt x="279" y="751" on="1"/>
        <pt x="331" y="778" on="0"/>
        <pt x="385" y="809" on="0"/>
        <pt x="465" y="874" on="0"/>
      </contour>
    </TTGlyph>
    <TTGlyph name="Ucircumflex" xMin="-84" yMin="-15" xMax="585" yMax="906">
      <contour>
        <pt x="85" y="205" on="1"/>
        <pt x="100" y="457" on="1"/>
        <pt x="100" y="491" on="0"/>
        <pt x="98" y="561" on="1"/>
        <pt x="119" y="568" on="0"/>
        <pt x="153" y="576" on="1"/>
        <pt x="154" y="583" on="1"/>
        <pt x="40" y="583" on="0"/>
        <pt x="6" y="551" on="1"/>
        <pt x="4" y="543" on="0"/>
        <pt x="4" y="535" on="1"/>
        <pt x="4" y="503" on="0"/>
        <pt x="18" y="482" on="1"/>
        <pt x="18" y="474" on="1"/>
        <pt x="-24" y="439" on="0"/>
        <pt x="-50" y="389" on="1"/>
        <pt x="-67" y="389" on="0"/>
        <pt x="-84" y="418" on="0"/>
        <pt x="-84" y="438" on="1"/>
        <pt x="-84" y="514" on="0"/>
        <pt x="25" y="630" on="0"/>
        <pt x="107" y="660" on="1"/>
        <pt x="140" y="653" on="0"/>
        <pt x="232" y="653" on="0"/>
        <pt x="274" y="664" on="1"/>
        <pt x="280" y="659" on="1"/>
        <pt x="265" y="592" on="0"/>
        <pt x="242" y="367" on="0"/>
        <pt x="242" y="227" on="0"/>
        <pt x="244" y="178" on="0"/>
        <pt x="249" y="147" on="1"/>
        <pt x="259" y="88" on="0"/>
        <pt x="298" y="80" on="1"/>
        <pt x="361" y="125" on="0"/>
        <pt x="396" y="200" on="1"/>
        <pt x="403" y="316" on="0"/>
        <pt x="403" y="598" on="0"/>
        <pt x="392" y="649" on="1"/>
        <pt x="526" y="653" on="0"/>
        <pt x="579" y="664" on="1"/>
        <pt x="585" y="659" on="1"/>
        <pt x="569" y="587" on="0"/>
        <pt x="550" y="307" on="0"/>
        <pt x="550" y="51" on="0"/>
        <pt x="561" y="0" on="1"/>
        <pt x="430" y="-6" on="0"/>
        <pt x="387" y="-15" on="1"/>
        <pt x="380" y="-10" on="1"/>
        <pt x="399" y="62" on="0"/>
        <pt x="406" y="125" on="1"/>
        <pt x="402" y="126" on="1"/>
        <pt x="346" y="22" on="0"/>
        <pt x="263" y="-15" on="1"/>
        <pt x="165" y="-13" on="0"/>
        <pt x="85" y="97" on="0"/>
      </contour>
      <contour>
        <pt x="539" y="726" on="1"/>
        <pt x="333" y="786" on="1"/>
        <pt x="147" y="726" on="1"/>
        <pt x="136" y="751" on="1"/>
        <pt x="284" y="828" on="0"/>
        <pt x="330" y="906" on="1"/>
        <pt x="376" y="906" on="1"/>
        <pt x="431" y="813" on="0"/>
        <pt x="550" y="751" on="1"/>
      </contour>
    </TTGlyph>
    <TTGlyph name="Udieresis" xMin="-84" yMin="-15" xMax="585" yMax="896">
      <contour>
        <pt x="85" y="205" on="1"/>
        <pt x="100" y="457" on="1"/>
        <pt x="100" y="491" on="0"/>
        <pt x="98" y="561" on="1"/>
        <pt x="119" y="568" on="0"/>
        <pt x="153" y="576" on="1"/>
        <pt x="154" y="583" on="1"/>
        <pt x="40" y="583" on="0"/>
        <pt x="6" y="551" on="1"/>
        <pt x="4" y="543" on="0"/>
        <pt x="4" y="535" on="1"/>
        <pt x="4" y="503" on="0"/>
        <pt x="18" y="482" on="1"/>
        <pt x="18" y="474" on="1"/>
        <pt x="-24" y="439" on="0"/>
        <pt x="-50" y="389" on="1"/>
        <pt x="-67" y="389" on="0"/>
        <pt x="-84" y="418" on="0"/>
        <pt x="-84" y="438" on="1"/>
        <pt x="-84" y="514" on="0"/>
        <pt x="25" y="630" on="0"/>
        <pt x="107" y="660" on="1"/>
        <pt x="140" y="653" on="0"/>
        <pt x="232" y="653" on="0"/>
        <pt x="274" y="664" on="1"/>
        <pt x="280" y="659" on="1"/>
        <pt x="265" y="592" on="0"/>
        <pt x="242" y="367" on="0"/>
        <pt x="242" y="227" on="0"/>
        <pt x="244" y="178" on="0"/>
        <pt x="249" y="147" on="1"/>
        <pt x="259" y="88" on="0"/>
        <pt x="298" y="80" on="1"/>
        <pt x="361" y="125" on="0"/>
        <pt x="396" y="200" on="1"/>
        <pt x="403" y="316" on="0"/>
        <pt x="403" y="598" on="0"/>
        <pt x="392" y="649" on="1"/>
        <pt x="526" y="653" on="0"/>
        <pt x="579" y="664" on="1"/>
        <pt x="585" y="659" on="1"/>
        <pt x="569" y="587" on="0"/>
        <pt x="550" y="307" on="0"/>
        <pt x="550" y="51" on="0"/>
        <pt x="561" y="0" on="1"/>
        <pt x="430" y="-6" on="0"/>
        <pt x="387" y="-15" on="1"/>
        <pt x="380" y="-10" on="1"/>
        <pt x="399" y="62" on="0"/>
        <pt x="406" y="125" on="1"/>
        <pt x="402" y="126" on="1"/>
        <pt x="346" y="22" on="0"/>
        <pt x="263" y="-15" on="1"/>
        <pt x="165" y="-13" on="0"/>
        <pt x="85" y="97" on="0"/>
      </contour>
      <contour>
        <pt x="315" y="814" on="1"/>
        <pt x="300" y="791" on="0"/>
        <pt x="241" y="727" on="0"/>
        <pt x="220" y="712" on="1"/>
        <pt x="180" y="742" on="0"/>
        <pt x="145" y="814" on="1"/>
        <pt x="156" y="834" on="0"/>
        <pt x="214" y="884" on="0"/>
        <pt x="238" y="896" on="1"/>
        <pt x="277" y="871" on="0"/>
      </contour>
      <contour>
        <pt x="536" y="814" on="1"/>
        <pt x="521" y="791" on="0"/>
        <pt x="462" y="727" on="0"/>
        <pt x="441" y="712" on="1"/>
        <pt x="401" y="742" on="0"/>
        <pt x="366" y="814" on="1"/>
        <pt x="377" y="834" on="0"/>
        <pt x="435" y="884" on="0"/>
        <pt x="459" y="896" on="1"/>
        <pt x="498" y="871" on="0"/>
      </contour>
    </TTGlyph>
    <TTGlyph name="Ugrave" xMin="-84" yMin="-15" xMax="585" yMax="907">
      <contour>
        <pt x="85" y="205" on="1"/>
        <pt x="100" y="457" on="1"/>
        <pt x="100" y="491" on="0"/>
        <pt x="98" y="561" on="1"/>
        <pt x="119" y="568" on="0"/>
        <pt x="153" y="576" on="1"/>
        <pt x="154" y="583" on="1"/>
        <pt x="40" y="583" on="0"/>
        <pt x="6" y="551" on="1"/>
        <pt x="4" y="543" on="0"/>
        <pt x="4" y="535" on="1"/>
        <pt x="4" y="503" on="0"/>
        <pt x="18" y="482" on="1"/>
        <pt x="18" y="474" on="1"/>
        <pt x="-24" y="439" on="0"/>
        <pt x="-50" y="389" on="1"/>
        <pt x="-67" y="389" on="0"/>
        <pt x="-84" y="418" on="0"/>
        <pt x="-84" y="438" on="1"/>
        <pt x="-84" y="514" on="0"/>
        <pt x="25" y="630" on="0"/>
        <pt x="107" y="660" on="1"/>
        <pt x="140" y="653" on="0"/>
        <pt x="232" y="653" on="0"/>
        <pt x="274" y="664" on="1"/>
        <pt x="280" y="659" on="1"/>
        <pt x="265" y="592" on="0"/>
        <pt x="242" y="367" on="0"/>
        <pt x="242" y="227" on="0"/>
        <pt x="244" y="178" on="0"/>
        <pt x="249" y="147" on="1"/>
        <pt x="259" y="88" on="0"/>
        <pt x="298" y="80" on="1"/>
        <pt x="361" y="125" on="0"/>
        <pt x="396" y="200" on="1"/>
        <pt x="403" y="316" on="0"/>
        <pt x="403" y="598" on="0"/>
        <pt x="392" y="649" on="1"/>
        <pt x="526" y="653" on="0"/>
        <pt x="579" y="664" on="1"/>
        <pt x="585" y="659" on="1"/>
        <pt x="569" y="587" on="0"/>
        <pt x="550" y="307" on="0"/>
        <pt x="550" y="51" on="0"/>
        <pt x="561" y="0" on="1"/>
        <pt x="430" y="-6" on="0"/>
        <pt x="387" y="-15" on="1"/>
        <pt x="380" y="-10" on="1"/>
        <pt x="399" y="62" on="0"/>
        <pt x="406" y="125" on="1"/>
        <pt x="402" y="126" on="1"/>
        <pt x="346" y="22" on="0"/>
        <pt x="263" y="-15" on="1"/>
        <pt x="165" y="-13" on="0"/>
        <pt x="85" y="97" on="0"/>
      </contour>
      <contour>
        <pt x="130" y="905" on="1"/>
        <pt x="141" y="907" on="0"/>
        <pt x="170" y="907" on="0"/>
        <pt x="184" y="906" on="1"/>
        <pt x="202" y="874" on="0"/>
        <pt x="282" y="809" on="0"/>
        <pt x="336" y="778" on="0"/>
        <pt x="388" y="751" on="1"/>
        <pt x="377" y="726" on="1"/>
        <pt x="103" y="802" on="1"/>
        <pt x="103" y="819" on="0"/>
        <pt x="121" y="896" on="0"/>
      </contour>
    </TTGlyph>
    <TTGlyph name="V" xMin="-73" yMin="-15" xMax="558" yMax="690">
      <contour>
        <pt x="390" y="514" on="1"/>
        <pt x="390" y="598" on="0"/>
        <pt x="359" y="626" on="1"/>
        <pt x="359" y="635" on="1"/>
        <pt x="444" y="658" on="0"/>
        <pt x="495" y="690" on="1"/>
        <pt x="558" y="658" on="0"/>
        <pt x="558" y="554" on="1"/>
        <pt x="558" y="294" on="0"/>
        <pt x="305" y="-13" on="1"/>
        <pt x="296" y="-15" on="1"/>
        <pt x="262" y="1" on="1"/>
        <pt x="253" y="5" on="0"/>
        <pt x="199" y="32" on="0"/>
        <pt x="184" y="38" on="1"/>
        <pt x="139" y="57" on="0"/>
        <pt x="83" y="57" on="0"/>
        <pt x="70" y="53" on="1"/>
        <pt x="65" y="67" on="1"/>
        <pt x="92" y="89" on="0"/>
        <pt x="97" y="144" on="1"/>
        <pt x="111" y="315" on="0"/>
        <pt x="111" y="491" on="0"/>
        <pt x="109" y="561" on="1"/>
        <pt x="130" y="568" on="0"/>
        <pt x="164" y="576" on="1"/>
        <pt x="165" y="583" on="1"/>
        <pt x="51" y="583" on="0"/>
        <pt x="17" y="551" on="1"/>
        <pt x="15" y="543" on="0"/>
        <pt x="15" y="535" on="1"/>
        <pt x="15" y="503" on="0"/>
        <pt x="29" y="482" on="1"/>
        <pt x="29" y="474" on="1"/>
        <pt x="-13" y="439" on="0"/>
        <pt x="-39" y="389" on="1"/>
        <pt x="-56" y="389" on="0"/>
        <pt x="-73" y="418" on="0"/>
        <pt x="-73" y="438" on="1"/>
        <pt x="-73" y="514" on="0"/>
        <pt x="36" y="630" on="0"/>
        <pt x="118" y="660" on="1"/>
        <pt x="151" y="653" on="0"/>
        <pt x="245" y="653" on="0"/>
        <pt x="287" y="664" on="1"/>
        <pt x="293" y="659" on="1"/>
        <pt x="258" y="504" on="0"/>
        <pt x="254" y="192" on="1"/>
        <pt x="254" y="155" on="0"/>
        <pt x="255" y="133" on="1"/>
        <pt x="274" y="101" on="0"/>
        <pt x="315" y="84" on="1"/>
        <pt x="390" y="296" on="0"/>
      </contour>
    </TTGlyph>
    <TTGlyph name="W" xMin="-73" yMin="-15" xMax="839" yMax="703">
      <contour>
        <pt x="390" y="514" on="1"/>
        <pt x="390" y="624" on="0"/>
        <pt x="338" y="642" on="1"/>
        <pt x="340" y="656" on="1"/>
        <pt x="417" y="651" on="0"/>
        <pt x="610" y="651" on="0"/>
        <pt x="783" y="677" on="0"/>
        <pt x="830" y="703" on="1"/>
        <pt x="839" y="692" on="1"/>
        <pt x="820" y="669" on="0"/>
        <pt x="778" y="642" on="1"/>
        <pt x="794" y="611" on="0"/>
        <pt x="794" y="554" on="1"/>
        <pt x="794" y="405" on="0"/>
        <pt x="651" y="99" on="0"/>
        <pt x="537" y="-13" on="1"/>
        <pt x="528" y="-15" on="1"/>
        <pt x="494" y="1" on="1"/>
        <pt x="421" y="34" on="0"/>
        <pt x="376" y="82" on="1"/>
        <pt x="343" y="33" on="0"/>
        <pt x="305" y="-13" on="1"/>
        <pt x="296" y="-15" on="1"/>
        <pt x="262" y="1" on="1"/>
        <pt x="184" y="40" on="0"/>
        <pt x="121" y="57" on="0"/>
        <pt x="83" y="57" on="0"/>
        <pt x="70" y="53" on="1"/>
        <pt x="65" y="67" on="1"/>
        <pt x="92" y="89" on="0"/>
        <pt x="97" y="144" on="1"/>
        <pt x="111" y="315" on="0"/>
        <pt x="111" y="491" on="0"/>
        <pt x="109" y="561" on="1"/>
        <pt x="130" y="568" on="0"/>
        <pt x="164" y="576" on="1"/>
        <pt x="165" y="583" on="1"/>
        <pt x="51" y="583" on="0"/>
        <pt x="17" y="551" on="1"/>
        <pt x="15" y="543" on="0"/>
        <pt x="15" y="535" on="1"/>
        <pt x="15" y="503" on="0"/>
        <pt x="29" y="482" on="1"/>
        <pt x="29" y="474" on="1"/>
        <pt x="-13" y="439" on="0"/>
        <pt x="-39" y="389" on="1"/>
        <pt x="-56" y="389" on="0"/>
        <pt x="-73" y="418" on="0"/>
        <pt x="-73" y="438" on="1"/>
        <pt x="-73" y="514" on="0"/>
        <pt x="36" y="630" on="0"/>
        <pt x="118" y="660" on="1"/>
        <pt x="151" y="653" on="0"/>
        <pt x="245" y="653" on="0"/>
        <pt x="287" y="664" on="1"/>
        <pt x="293" y="659" on="1"/>
        <pt x="258" y="504" on="0"/>
        <pt x="254" y="192" on="1"/>
        <pt x="254" y="155" on="0"/>
        <pt x="255" y="133" on="1"/>
        <pt x="274" y="101" on="0"/>
        <pt x="315" y="84" on="1"/>
        <pt x="390" y="296" on="0"/>
      </contour>
      <contour>
        <pt x="626" y="514" on="1"/>
        <pt x="626" y="570" on="0"/>
        <pt x="594" y="622" on="0"/>
        <pt x="554" y="622" on="1"/>
        <pt x="552" y="622" on="0"/>
        <pt x="530" y="620" on="1"/>
        <pt x="538" y="607" on="0"/>
        <pt x="538" y="554" on="1"/>
        <pt x="538" y="389" on="0"/>
        <pt x="451" y="212" on="1"/>
        <pt x="462" y="177" on="0"/>
        <pt x="529" y="90" on="0"/>
        <pt x="557" y="84" on="1"/>
        <pt x="626" y="279" on="0"/>
      </contour>
    </TTGlyph>
    <TTGlyph name="X" xMin="-69" yMin="-15" xMax="547" yMax="666">
      <contour>
        <pt x="356" y="450" on="0"/>
        <pt x="394" y="573" on="0"/>
        <pt x="394" y="632" on="0"/>
        <pt x="389" y="646" on="1"/>
        <pt x="393" y="651" on="1"/>
        <pt x="488" y="651" on="0"/>
        <pt x="547" y="666" on="1"/>
        <pt x="544" y="609" on="0"/>
        <pt x="501" y="540" on="1"/>
        <pt x="459" y="473" on="0"/>
        <pt x="405" y="410" on="0"/>
        <pt x="357" y="354" on="0"/>
        <pt x="353" y="349" on="1"/>
        <pt x="388" y="262" on="0"/>
        <pt x="439" y="173" on="1"/>
        <pt x="495" y="70" on="0"/>
        <pt x="547" y="0" on="1"/>
        <pt x="418" y="-2" on="0"/>
        <pt x="333" y="-15" on="1"/>
        <pt x="326" y="-13" on="1"/>
        <pt x="269" y="183" on="0"/>
        <pt x="241" y="262" on="1"/>
        <pt x="217" y="209" on="0"/>
        <pt x="178" y="74" on="0"/>
        <pt x="178" y="20" on="0"/>
        <pt x="183" y="6" on="1"/>
        <pt x="179" y="1" on="1"/>
        <pt x="84" y="1" on="0"/>
        <pt x="25" y="-14" on="1"/>
        <pt x="28" y="32" on="0"/>
        <pt x="103" y="168" on="0"/>
        <pt x="170" y="256" on="0"/>
        <pt x="221" y="316" on="1"/>
        <pt x="188" y="397" on="0"/>
        <pt x="146" y="478" on="1"/>
        <pt x="142" y="484" on="0"/>
        <pt x="97" y="561" on="1"/>
        <pt x="118" y="568" on="0"/>
        <pt x="152" y="576" on="1"/>
        <pt x="153" y="583" on="1"/>
        <pt x="55" y="583" on="0"/>
        <pt x="21" y="551" on="1"/>
        <pt x="19" y="543" on="0"/>
        <pt x="19" y="535" on="1"/>
        <pt x="19" y="503" on="0"/>
        <pt x="33" y="482" on="1"/>
        <pt x="33" y="474" on="1"/>
        <pt x="-9" y="439" on="0"/>
        <pt x="-35" y="389" on="1"/>
        <pt x="-52" y="389" on="0"/>
        <pt x="-69" y="418" on="0"/>
        <pt x="-69" y="438" on="1"/>
        <pt x="-69" y="511" on="0"/>
        <pt x="36" y="630" on="0"/>
        <pt x="112" y="660" on="1"/>
        <pt x="147" y="652" on="0"/>
        <pt x="234" y="652" on="0"/>
        <pt x="258" y="658" on="1"/>
        <pt x="263" y="653" on="1"/>
        <pt x="294" y="519" on="0"/>
        <pt x="333" y="405" on="1"/>
      </contour>
    </TTGlyph>
    <TTGlyph name="Y" xMin="-207" yMin="-15" xMax="527" yMax="807">
      <contour>
        <pt x="334" y="412" on="0"/>
        <pt x="374" y="571" on="0"/>
        <pt x="374" y="632" on="0"/>
        <pt x="369" y="646" on="1"/>
        <pt x="373" y="651" on="1"/>
        <pt x="468" y="651" on="0"/>
        <pt x="527" y="666" on="1"/>
        <pt x="523" y="597" on="0"/>
        <pt x="412" y="410" on="0"/>
        <pt x="343" y="327" on="1"/>
        <pt x="338" y="258" on="0"/>
        <pt x="338" y="68" on="0"/>
        <pt x="353" y="0" on="1"/>
        <pt x="220" y="-4" on="0"/>
        <pt x="166" y="-15" on="1"/>
        <pt x="160" y="-10" on="1"/>
        <pt x="187" y="101" on="0"/>
        <pt x="194" y="294" on="1"/>
        <pt x="173" y="342" on="0"/>
        <pt x="95" y="532" on="0"/>
        <pt x="78" y="572" on="1"/>
        <pt x="30" y="682" on="0"/>
        <pt x="-27" y="727" on="1"/>
        <pt x="-42" y="732" on="0"/>
        <pt x="-54" y="732" on="1"/>
        <pt x="-97" y="732" on="0"/>
        <pt x="-124" y="693" on="1"/>
        <pt x="-132" y="693" on="1"/>
        <pt x="-164" y="746" on="0"/>
        <pt x="-207" y="768" on="1"/>
        <pt x="-207" y="807" on="0"/>
        <pt x="-79" y="807" on="0"/>
        <pt x="146" y="703" on="0"/>
        <pt x="243" y="645" on="1"/>
        <pt x="251" y="565" on="0"/>
        <pt x="313" y="371" on="1"/>
      </contour>
    </TTGlyph>
    <TTGlyph name="Yacute" xMin="-207" yMin="-15" xMax="544" yMax="908">
      <contour>
        <pt x="334" y="412" on="0"/>
        <pt x="374" y="571" on="0"/>
        <pt x="374" y="632" on="0"/>
        <pt x="369" y="646" on="1"/>
        <pt x="373" y="651" on="1"/>
        <pt x="468" y="651" on="0"/>
        <pt x="527" y="666" on="1"/>
        <pt x="523" y="597" on="0"/>
        <pt x="412" y="410" on="0"/>
        <pt x="343" y="327" on="1"/>
        <pt x="338" y="258" on="0"/>
        <pt x="338" y="68" on="0"/>
        <pt x="353" y="0" on="1"/>
        <pt x="220" y="-4" on="0"/>
        <pt x="166" y="-15" on="1"/>
        <pt x="160" y="-10" on="1"/>
        <pt x="187" y="101" on="0"/>
        <pt x="194" y="294" on="1"/>
        <pt x="173" y="342" on="0"/>
        <pt x="95" y="532" on="0"/>
        <pt x="78" y="572" on="1"/>
        <pt x="30" y="682" on="0"/>
        <pt x="-27" y="727" on="1"/>
        <pt x="-42" y="732" on="0"/>
        <pt x="-54" y="732" on="1"/>
        <pt x="-97" y="732" on="0"/>
        <pt x="-124" y="693" on="1"/>
        <pt x="-132" y="693" on="1"/>
        <pt x="-164" y="746" on="0"/>
        <pt x="-207" y="768" on="1"/>
        <pt x="-207" y="807" on="0"/>
        <pt x="-79" y="807" on="0"/>
        <pt x="146" y="703" on="0"/>
        <pt x="243" y="645" on="1"/>
        <pt x="251" y="565" on="0"/>
        <pt x="313" y="371" on="1"/>
      </contour>
      <contour>
        <pt x="463" y="907" on="1"/>
        <pt x="477" y="908" on="0"/>
        <pt x="506" y="908" on="0"/>
        <pt x="517" y="906" on="1"/>
        <pt x="526" y="897" on="0"/>
        <pt x="544" y="820" on="0"/>
        <pt x="544" y="803" on="1"/>
        <pt x="270" y="727" on="1"/>
        <pt x="259" y="752" on="1"/>
        <pt x="311" y="779" on="0"/>
        <pt x="365" y="810" on="0"/>
        <pt x="445" y="875" on="0"/>
      </contour>
    </TTGlyph>
    <TTGlyph name="Z" xMin="-45" yMin="-208" xMax="671" yMax="683">
      <contour>
        <pt x="260" y="683" on="1"/>
        <pt x="310" y="651" on="0"/>
        <pt x="437" y="651" on="0"/>
        <pt x="470" y="680" on="1"/>
        <pt x="486" y="670" on="1"/>
        <pt x="468" y="647" on="0"/>
        <pt x="355" y="463" on="0"/>
        <pt x="309" y="375" on="1"/>
        <pt x="180" y="131" on="1"/>
        <pt x="216" y="121" on="0"/>
        <pt x="313" y="35" on="0"/>
        <pt x="391" y="-54" on="0"/>
        <pt x="479" y="-126" on="0"/>
        <pt x="510" y="-126" on="1"/>
        <pt x="530" y="-126" on="0"/>
        <pt x="550" y="-79" on="0"/>
        <pt x="550" y="-51" on="1"/>
        <pt x="554" y="-44" on="1"/>
        <pt x="607" y="-41" on="0"/>
        <pt x="659" y="-14" on="1"/>
        <pt x="671" y="-23" on="0"/>
        <pt x="671" y="-36" on="1"/>
        <pt x="671" y="-81" on="0"/>
        <pt x="534" y="-165" on="0"/>
        <pt x="373" y="-208" on="0"/>
        <pt x="320" y="-208" on="1"/>
        <pt x="245" y="-91" on="0"/>
        <pt x="138" y="16" on="0"/>
        <pt x="20" y="16" on="0"/>
        <pt x="-26" y="-30" on="1"/>
        <pt x="-45" y="-15" on="1"/>
        <pt x="18" y="60" on="0"/>
        <pt x="115" y="220" on="1"/>
        <pt x="284" y="497" on="1"/>
        <pt x="281" y="500" on="1"/>
        <pt x="274" y="496" on="0"/>
        <pt x="258" y="492" on="1"/>
        <pt x="240" y="501" on="0"/>
        <pt x="214" y="515" on="0"/>
        <pt x="204" y="519" on="1"/>
        <pt x="187" y="526" on="0"/>
        <pt x="168" y="526" on="1"/>
        <pt x="140" y="526" on="0"/>
        <pt x="140" y="471" on="1"/>
        <pt x="140" y="461" on="0"/>
        <pt x="142" y="445" on="1"/>
        <pt x="139" y="438" on="1"/>
        <pt x="85" y="424" on="0"/>
        <pt x="41" y="390" on="1"/>
        <pt x="25" y="398" on="0"/>
        <pt x="25" y="418" on="1"/>
        <pt x="25" y="474" on="0"/>
        <pt x="196" y="653" on="0"/>
      </contour>
    </TTGlyph>
    <TTGlyph name="a" xMin="-7" yMin="-15" xMax="473" yMax="551">
      <contour>
        <pt x="296" y="171" on="1"/>
        <pt x="276" y="176" on="0"/>
        <pt x="212" y="176" on="0"/>
        <pt x="190" y="171" on="1"/>
        <pt x="173" y="105" on="0"/>
        <pt x="173" y="29" on="0"/>
        <pt x="179" y="-3" on="1"/>
        <pt x="75" y="-3" on="0"/>
        <pt x="3" y="-15" on="1"/>
        <pt x="-7" y="-8" on="1"/>
        <pt x="179" y="506" on="1"/>
        <pt x="149" y="519" on="0"/>
        <pt x="134" y="530" on="1"/>
        <pt x="139" y="549" on="1"/>
        <pt x="201" y="540" on="0"/>
        <pt x="399" y="540" on="0"/>
        <pt x="468" y="551" on="1"/>
        <pt x="473" y="547" on="1"/>
        <pt x="461" y="498" on="0"/>
        <pt x="445" y="266" on="0"/>
        <pt x="445" y="44" on="0"/>
        <pt x="454" y="-3" on="1"/>
        <pt x="343" y="-3" on="0"/>
        <pt x="278" y="-15" on="1"/>
        <pt x="273" y="-11" on="1"/>
        <pt x="289" y="60" on="0"/>
      </contour>
      <contour>
        <pt x="203" y="242" on="1"/>
        <pt x="219" y="236" on="0"/>
        <pt x="281" y="236" on="0"/>
        <pt x="298" y="243" on="1"/>
        <pt x="302" y="315" on="0"/>
        <pt x="302" y="434" on="0"/>
        <pt x="299" y="481" on="1"/>
        <pt x="294" y="484" on="0"/>
        <pt x="272" y="484" on="0"/>
        <pt x="265" y="481" on="1"/>
        <pt x="254" y="464" on="0"/>
        <pt x="243" y="417" on="1"/>
      </contour>
    </TTGlyph>
    <TTGlyph name="aacute" xMin="-14" yMin="-15" xMax="531" yMax="783">
      <contour>
        <pt x="289" y="171" on="1"/>
        <pt x="269" y="176" on="0"/>
        <pt x="205" y="176" on="0"/>
        <pt x="183" y="171" on="1"/>
        <pt x="166" y="105" on="0"/>
        <pt x="166" y="29" on="0"/>
        <pt x="172" y="-3" on="1"/>
        <pt x="68" y="-3" on="0"/>
        <pt x="-4" y="-15" on="1"/>
        <pt x="-14" y="-8" on="1"/>
        <pt x="172" y="506" on="1"/>
        <pt x="142" y="519" on="0"/>
        <pt x="127" y="530" on="1"/>
        <pt x="132" y="549" on="1"/>
        <pt x="194" y="540" on="0"/>
        <pt x="392" y="540" on="0"/>
        <pt x="461" y="551" on="1"/>
        <pt x="466" y="547" on="1"/>
        <pt x="454" y="498" on="0"/>
        <pt x="438" y="266" on="0"/>
        <pt x="438" y="44" on="0"/>
        <pt x="447" y="-3" on="1"/>
        <pt x="336" y="-3" on="0"/>
        <pt x="271" y="-15" on="1"/>
        <pt x="266" y="-11" on="1"/>
        <pt x="282" y="60" on="0"/>
      </contour>
      <contour>
        <pt x="196" y="242" on="1"/>
        <pt x="212" y="236" on="0"/>
        <pt x="274" y="236" on="0"/>
        <pt x="291" y="243" on="1"/>
        <pt x="295" y="315" on="0"/>
        <pt x="295" y="434" on="0"/>
        <pt x="292" y="481" on="1"/>
        <pt x="287" y="484" on="0"/>
        <pt x="266" y="484" on="0"/>
        <pt x="258" y="481" on="1"/>
        <pt x="247" y="464" on="0"/>
        <pt x="236" y="417" on="1"/>
      </contour>
      <contour>
        <pt x="443" y="782" on="1"/>
        <pt x="457" y="783" on="0"/>
        <pt x="486" y="783" on="0"/>
        <pt x="497" y="781" on="1"/>
        <pt x="507" y="771" on="0"/>
        <pt x="530" y="700" on="0"/>
        <pt x="531" y="684" on="1"/>
        <pt x="267" y="579" on="1"/>
        <pt x="253" y="603" on="1"/>
        <pt x="398" y="699" on="0"/>
      </contour>
    </TTGlyph>
    <TTGlyph name="acircumflex" xMin="-14" yMin="-15" xMax="535" yMax="782">
      <contour>
        <pt x="289" y="171" on="1"/>
        <pt x="269" y="176" on="0"/>
        <pt x="205" y="176" on="0"/>
        <pt x="183" y="171" on="1"/>
        <pt x="166" y="105" on="0"/>
        <pt x="166" y="29" on="0"/>
        <pt x="172" y="-3" on="1"/>
        <pt x="68" y="-3" on="0"/>
        <pt x="-4" y="-15" on="1"/>
        <pt x="-14" y="-8" on="1"/>
        <pt x="172" y="506" on="1"/>
        <pt x="142" y="519" on="0"/>
        <pt x="127" y="530" on="1"/>
        <pt x="132" y="549" on="1"/>
        <pt x="194" y="540" on="0"/>
        <pt x="392" y="540" on="0"/>
        <pt x="461" y="551" on="1"/>
        <pt x="466" y="547" on="1"/>
        <pt x="454" y="498" on="0"/>
        <pt x="438" y="266" on="0"/>
        <pt x="438" y="44" on="0"/>
        <pt x="447" y="-3" on="1"/>
        <pt x="336" y="-3" on="0"/>
        <pt x="271" y="-15" on="1"/>
        <pt x="266" y="-11" on="1"/>
        <pt x="282" y="60" on="0"/>
      </contour>
      <contour>
        <pt x="196" y="242" on="1"/>
        <pt x="212" y="236" on="0"/>
        <pt x="274" y="236" on="0"/>
        <pt x="291" y="243" on="1"/>
        <pt x="295" y="315" on="0"/>
        <pt x="295" y="434" on="0"/>
        <pt x="292" y="481" on="1"/>
        <pt x="287" y="484" on="0"/>
        <pt x="266" y="484" on="0"/>
        <pt x="258" y="481" on="1"/>
        <pt x="247" y="464" on="0"/>
        <pt x="236" y="417" on="1"/>
      </contour>
      <contour>
        <pt x="521" y="579" on="1"/>
        <pt x="318" y="659" on="1"/>
        <pt x="135" y="579" on="1"/>
        <pt x="121" y="603" on="1"/>
        <pt x="264" y="693" on="0"/>
        <pt x="321" y="782" on="1"/>
        <pt x="365" y="782" on="1"/>
        <pt x="422" y="678" on="0"/>
        <pt x="535" y="603" on="1"/>
      </contour>
    </TTGlyph>
    <TTGlyph name="acute" xMin="40" yMin="543" xMax="318" yMax="747">
      <contour>
        <pt x="230" y="746" on="1"/>
        <pt x="244" y="747" on="0"/>
        <pt x="273" y="747" on="0"/>
        <pt x="284" y="745" on="1"/>
        <pt x="294" y="735" on="0"/>
        <pt x="317" y="664" on="0"/>
        <pt x="318" y="648" on="1"/>
        <pt x="54" y="543" on="1"/>
        <pt x="40" y="567" on="1"/>
        <pt x="185" y="663" on="0"/>
      </contour>
    </TTGlyph>
    <TTGlyph name="acute.cap" xMin="54" yMin="726" xMax="339" yMax="907">
      <contour>
        <pt x="258" y="906" on="1"/>
        <pt x="272" y="907" on="0"/>
        <pt x="301" y="907" on="0"/>
        <pt x="312" y="905" on="1"/>
        <pt x="321" y="896" on="0"/>
        <pt x="339" y="819" on="0"/>
        <pt x="339" y="802" on="1"/>
        <pt x="65" y="726" on="1"/>
        <pt x="54" y="751" on="1"/>
        <pt x="106" y="778" on="0"/>
        <pt x="160" y="809" on="0"/>
        <pt x="240" y="874" on="0"/>
      </contour>
    </TTGlyph>
    <TTGlyph name="adieresis" xMin="-14" yMin="-15" xMax="520" yMax="770">
      <contour>
        <pt x="289" y="171" on="1"/>
        <pt x="269" y="176" on="0"/>
        <pt x="205" y="176" on="0"/>
        <pt x="183" y="171" on="1"/>
        <pt x="166" y="105" on="0"/>
        <pt x="166" y="29" on="0"/>
        <pt x="172" y="-3" on="1"/>
        <pt x="68" y="-3" on="0"/>
        <pt x="-4" y="-15" on="1"/>
        <pt x="-14" y="-8" on="1"/>
        <pt x="172" y="506" on="1"/>
        <pt x="142" y="519" on="0"/>
        <pt x="127" y="530" on="1"/>
        <pt x="132" y="549" on="1"/>
        <pt x="194" y="540" on="0"/>
        <pt x="392" y="540" on="0"/>
        <pt x="461" y="551" on="1"/>
        <pt x="466" y="547" on="1"/>
        <pt x="454" y="498" on="0"/>
        <pt x="438" y="266" on="0"/>
        <pt x="438" y="44" on="0"/>
        <pt x="447" y="-3" on="1"/>
        <pt x="336" y="-3" on="0"/>
        <pt x="271" y="-15" on="1"/>
        <pt x="266" y="-11" on="1"/>
        <pt x="282" y="60" on="0"/>
      </contour>
      <contour>
        <pt x="196" y="242" on="1"/>
        <pt x="212" y="236" on="0"/>
        <pt x="274" y="236" on="0"/>
        <pt x="291" y="243" on="1"/>
        <pt x="295" y="315" on="0"/>
        <pt x="295" y="434" on="0"/>
        <pt x="292" y="481" on="1"/>
        <pt x="287" y="484" on="0"/>
        <pt x="266" y="484" on="0"/>
        <pt x="258" y="481" on="1"/>
        <pt x="247" y="464" on="0"/>
        <pt x="236" y="417" on="1"/>
      </contour>
      <contour>
        <pt x="299" y="688" on="1"/>
        <pt x="284" y="665" on="0"/>
        <pt x="225" y="601" on="0"/>
        <pt x="204" y="586" on="1"/>
        <pt x="164" y="616" on="0"/>
        <pt x="129" y="688" on="1"/>
        <pt x="140" y="708" on="0"/>
        <pt x="198" y="758" on="0"/>
        <pt x="222" y="770" on="1"/>
        <pt x="261" y="745" on="0"/>
      </contour>
      <contour>
        <pt x="520" y="688" on="1"/>
        <pt x="505" y="665" on="0"/>
        <pt x="446" y="601" on="0"/>
        <pt x="425" y="586" on="1"/>
        <pt x="385" y="616" on="0"/>
        <pt x="350" y="688" on="1"/>
        <pt x="361" y="708" on="0"/>
        <pt x="419" y="758" on="0"/>
        <pt x="443" y="770" on="1"/>
        <pt x="482" y="745" on="0"/>
      </contour>
    </TTGlyph>
    <TTGlyph name="ae" xMin="-7" yMin="-15" xMax="644" yMax="553">
      <contour>
        <pt x="281" y="242" on="1"/>
        <pt x="265" y="246" on="0"/>
        <pt x="224" y="246" on="0"/>
        <pt x="200" y="244" on="1"/>
        <pt x="187" y="171" on="1"/>
        <pt x="173" y="94" on="0"/>
        <pt x="173" y="29" on="0"/>
        <pt x="179" y="-3" on="1"/>
        <pt x="75" y="-3" on="0"/>
        <pt x="3" y="-15" on="1"/>
        <pt x="-7" y="-8" on="1"/>
        <pt x="162" y="506" on="1"/>
        <pt x="132" y="519" on="0"/>
        <pt x="117" y="530" on="1"/>
        <pt x="122" y="549" on="1"/>
        <pt x="184" y="540" on="0"/>
        <pt x="549" y="540" on="0"/>
        <pt x="626" y="553" on="1"/>
        <pt x="631" y="544" on="1"/>
        <pt x="597" y="505" on="0"/>
        <pt x="592" y="412" on="1"/>
        <pt x="574" y="412" on="1"/>
        <pt x="566" y="434" on="0"/>
        <pt x="561" y="469" on="1"/>
        <pt x="523" y="485" on="0"/>
        <pt x="461" y="485" on="0"/>
        <pt x="445" y="481" on="1"/>
        <pt x="436" y="410" on="0"/>
        <pt x="430" y="315" on="1"/>
        <pt x="450" y="311" on="0"/>
        <pt x="518" y="311" on="0"/>
        <pt x="562" y="325" on="1"/>
        <pt x="567" y="320" on="1"/>
        <pt x="557" y="296" on="0"/>
        <pt x="552" y="241" on="1"/>
        <pt x="493" y="250" on="0"/>
        <pt x="442" y="250" on="0"/>
        <pt x="428" y="247" on="1"/>
        <pt x="428" y="172" on="1"/>
        <pt x="428" y="121" on="0"/>
        <pt x="458" y="67" on="0"/>
        <pt x="500" y="67" on="1"/>
        <pt x="524" y="67" on="0"/>
        <pt x="537" y="74" on="1"/>
        <pt x="542" y="91" on="0"/>
        <pt x="542" y="141" on="0"/>
        <pt x="528" y="156" on="1"/>
        <pt x="530" y="163" on="1"/>
        <pt x="586" y="181" on="0"/>
        <pt x="614" y="216" on="1"/>
        <pt x="644" y="210" on="0"/>
        <pt x="644" y="177" on="1"/>
        <pt x="644" y="113" on="0"/>
        <pt x="546" y="9" on="0"/>
        <pt x="477" y="-15" on="1"/>
        <pt x="377" y="-15" on="0"/>
        <pt x="279" y="61" on="0"/>
        <pt x="279" y="153" on="1"/>
      </contour>
      <contour>
        <pt x="210" y="308" on="1"/>
        <pt x="230" y="306" on="0"/>
        <pt x="269" y="306" on="0"/>
        <pt x="284" y="311" on="1"/>
        <pt x="285" y="341" on="0"/>
        <pt x="285" y="434" on="0"/>
        <pt x="282" y="481" on="1"/>
        <pt x="278" y="484" on="0"/>
        <pt x="256" y="484" on="0"/>
        <pt x="248" y="481" on="1"/>
        <pt x="233" y="458" on="0"/>
        <pt x="227" y="416" on="1"/>
      </contour>
    </TTGlyph>
    <TTGlyph name="agrave" xMin="-14" yMin="-15" xMax="466" yMax="783">
      <contour>
        <pt x="289" y="171" on="1"/>
        <pt x="269" y="176" on="0"/>
        <pt x="205" y="176" on="0"/>
        <pt x="183" y="171" on="1"/>
        <pt x="166" y="105" on="0"/>
        <pt x="166" y="29" on="0"/>
        <pt x="172" y="-3" on="1"/>
        <pt x="68" y="-3" on="0"/>
        <pt x="-4" y="-15" on="1"/>
        <pt x="-14" y="-8" on="1"/>
        <pt x="172" y="506" on="1"/>
        <pt x="142" y="519" on="0"/>
        <pt x="127" y="530" on="1"/>
        <pt x="132" y="549" on="1"/>
        <pt x="194" y="540" on="0"/>
        <pt x="392" y="540" on="0"/>
        <pt x="461" y="551" on="1"/>
        <pt x="466" y="547" on="1"/>
        <pt x="454" y="498" on="0"/>
        <pt x="438" y="266" on="0"/>
        <pt x="438" y="44" on="0"/>
        <pt x="447" y="-3" on="1"/>
        <pt x="336" y="-3" on="0"/>
        <pt x="271" y="-15" on="1"/>
        <pt x="266" y="-11" on="1"/>
        <pt x="282" y="60" on="0"/>
      </contour>
      <contour>
        <pt x="196" y="242" on="1"/>
        <pt x="212" y="236" on="0"/>
        <pt x="274" y="236" on="0"/>
        <pt x="291" y="243" on="1"/>
        <pt x="295" y="315" on="0"/>
        <pt x="295" y="434" on="0"/>
        <pt x="292" y="481" on="1"/>
        <pt x="287" y="484" on="0"/>
        <pt x="266" y="484" on="0"/>
        <pt x="258" y="481" on="1"/>
        <pt x="247" y="464" on="0"/>
        <pt x="236" y="417" on="1"/>
      </contour>
      <contour>
        <pt x="139" y="781" on="1"/>
        <pt x="150" y="783" on="0"/>
        <pt x="179" y="783" on="0"/>
        <pt x="193" y="782" on="1"/>
        <pt x="238" y="699" on="0"/>
        <pt x="383" y="603" on="1"/>
        <pt x="369" y="579" on="1"/>
        <pt x="105" y="684" on="1"/>
        <pt x="106" y="700" on="0"/>
        <pt x="129" y="771" on="0"/>
      </contour>
    </TTGlyph>
    <TTGlyph name="ampersand" xMin="21" yMin="-15" xMax="679" yMax="666">
      <contour>
        <pt x="462" y="387" on="1"/>
        <pt x="482" y="383" on="0"/>
        <pt x="567" y="383" on="0"/>
        <pt x="589" y="399" on="1"/>
        <pt x="591" y="407" on="0"/>
        <pt x="591" y="415" on="1"/>
        <pt x="591" y="447" on="0"/>
        <pt x="577" y="468" on="1"/>
        <pt x="577" y="476" on="1"/>
        <pt x="619" y="511" on="0"/>
        <pt x="645" y="561" on="1"/>
        <pt x="662" y="561" on="0"/>
        <pt x="679" y="532" on="0"/>
        <pt x="679" y="512" on="1"/>
        <pt x="679" y="400" on="0"/>
        <pt x="560" y="327" on="1"/>
        <pt x="589" y="302" on="0"/>
        <pt x="589" y="247" on="1"/>
        <pt x="589" y="163" on="0"/>
        <pt x="399" y="8" on="0"/>
        <pt x="300" y="-15" on="1"/>
        <pt x="178" y="-15" on="0"/>
        <pt x="21" y="88" on="0"/>
        <pt x="21" y="194" on="1"/>
        <pt x="21" y="276" on="0"/>
        <pt x="124" y="386" on="0"/>
        <pt x="211" y="409" on="1"/>
        <pt x="211" y="413" on="1"/>
        <pt x="174" y="415" on="0"/>
        <pt x="116" y="462" on="0"/>
        <pt x="116" y="496" on="1"/>
        <pt x="158" y="554" on="0"/>
        <pt x="301" y="647" on="0"/>
        <pt x="373" y="666" on="1"/>
        <pt x="407" y="666" on="0"/>
        <pt x="488" y="646" on="0"/>
        <pt x="514" y="630" on="1"/>
        <pt x="477" y="586" on="0"/>
        <pt x="456" y="505" on="1"/>
        <pt x="449" y="505" on="1"/>
        <pt x="395" y="575" on="0"/>
        <pt x="322" y="575" on="1"/>
        <pt x="295" y="575" on="0"/>
        <pt x="280" y="570" on="1"/>
        <pt x="274" y="550" on="0"/>
        <pt x="274" y="529" on="1"/>
        <pt x="274" y="446" on="0"/>
        <pt x="361" y="435" on="1"/>
        <pt x="356" y="398" on="1"/>
        <pt x="189" y="365" on="0"/>
        <pt x="189" y="212" on="1"/>
        <pt x="189" y="146" on="0"/>
        <pt x="250" y="69" on="0"/>
        <pt x="362" y="69" on="0"/>
        <pt x="398" y="89" on="1"/>
        <pt x="414" y="116" on="0"/>
        <pt x="435" y="197" on="0"/>
        <pt x="435" y="230" on="1"/>
        <pt x="435" y="302" on="0"/>
        <pt x="389" y="302" on="1"/>
        <pt x="374" y="302" on="0"/>
        <pt x="361" y="296" on="1"/>
        <pt x="359" y="288" on="0"/>
        <pt x="359" y="280" on="1"/>
        <pt x="359" y="248" on="0"/>
        <pt x="373" y="227" on="1"/>
        <pt x="373" y="219" on="1"/>
        <pt x="331" y="184" on="0"/>
        <pt x="305" y="134" on="1"/>
        <pt x="288" y="134" on="0"/>
        <pt x="271" y="163" on="0"/>
        <pt x="271" y="183" on="1"/>
        <pt x="271" y="325" on="0"/>
      </contour>
    </TTGlyph>
    <TTGlyph name="aring" xMin="-14" yMin="-15" xMax="466" yMax="782">
      <contour>
        <pt x="289" y="171" on="1"/>
        <pt x="269" y="176" on="0"/>
        <pt x="205" y="176" on="0"/>
        <pt x="183" y="171" on="1"/>
        <pt x="166" y="105" on="0"/>
        <pt x="166" y="29" on="0"/>
        <pt x="172" y="-3" on="1"/>
        <pt x="68" y="-3" on="0"/>
        <pt x="-4" y="-15" on="1"/>
        <pt x="-14" y="-8" on="1"/>
        <pt x="172" y="506" on="1"/>
        <pt x="142" y="519" on="0"/>
        <pt x="127" y="530" on="1"/>
        <pt x="132" y="549" on="1"/>
        <pt x="194" y="540" on="0"/>
        <pt x="392" y="540" on="0"/>
        <pt x="461" y="551" on="1"/>
        <pt x="466" y="547" on="1"/>
        <pt x="454" y="498" on="0"/>
        <pt x="438" y="266" on="0"/>
        <pt x="438" y="44" on="0"/>
        <pt x="447" y="-3" on="1"/>
        <pt x="336" y="-3" on="0"/>
        <pt x="271" y="-15" on="1"/>
        <pt x="266" y="-11" on="1"/>
        <pt x="282" y="60" on="0"/>
      </contour>
      <contour>
        <pt x="196" y="242" on="1"/>
        <pt x="212" y="236" on="0"/>
        <pt x="274" y="236" on="0"/>
        <pt x="291" y="243" on="1"/>
        <pt x="295" y="315" on="0"/>
        <pt x="295" y="434" on="0"/>
        <pt x="292" y="481" on="1"/>
        <pt x="287" y="484" on="0"/>
        <pt x="266" y="484" on="0"/>
        <pt x="258" y="481" on="1"/>
        <pt x="247" y="464" on="0"/>
        <pt x="236" y="417" on="1"/>
      </contour>
      <contour>
        <pt x="267" y="579" on="0"/>
        <pt x="210" y="615" on="0"/>
        <pt x="210" y="697" on="0"/>
        <pt x="285" y="766" on="0"/>
        <pt x="340" y="782" on="1"/>
        <pt x="433" y="782" on="0"/>
        <pt x="433" y="714" on="1"/>
        <pt x="433" y="664" on="0"/>
        <pt x="363" y="594" on="0"/>
        <pt x="310" y="579" on="1"/>
      </contour>
      <contour>
        <pt x="275" y="652" on="0"/>
        <pt x="302" y="625" on="0"/>
        <pt x="342" y="625" on="0"/>
        <pt x="356" y="634" on="1"/>
        <pt x="370" y="658" on="0"/>
        <pt x="370" y="709" on="0"/>
        <pt x="343" y="736" on="0"/>
        <pt x="302" y="736" on="0"/>
        <pt x="289" y="727" on="1"/>
        <pt x="275" y="703" on="0"/>
      </contour>
    </TTGlyph>
    <TTGlyph name="asciicircum" xMin="45" yMin="278" xMax="473" yMax="696">
      <contour>
        <pt x="259" y="550" on="1"/>
        <pt x="79" y="278" on="1"/>
        <pt x="45" y="296" on="1"/>
        <pt x="103" y="399" on="0"/>
        <pt x="176" y="549" on="0"/>
        <pt x="231" y="686" on="1"/>
        <pt x="284" y="696" on="1"/>
        <pt x="341" y="556" on="0"/>
        <pt x="417" y="395" on="0"/>
        <pt x="473" y="296" on="1"/>
        <pt x="439" y="278" on="1"/>
      </contour>
    </TTGlyph>
    <TTGlyph name="asciitilde" xMin="21" yMin="170" xMax="703" yMax="371">
      <contour>
        <pt x="508" y="277" on="1"/>
        <pt x="593" y="277" on="0"/>
        <pt x="680" y="362" on="1"/>
        <pt x="703" y="343" on="1"/>
        <pt x="669" y="289" on="0"/>
        <pt x="537" y="187" on="0"/>
        <pt x="477" y="170" on="1"/>
        <pt x="433" y="170" on="0"/>
        <pt x="235" y="258" on="0"/>
        <pt x="190" y="258" on="1"/>
        <pt x="105" y="258" on="0"/>
        <pt x="44" y="179" on="1"/>
        <pt x="21" y="198" on="1"/>
        <pt x="59" y="257" on="0"/>
        <pt x="200" y="364" on="0"/>
        <pt x="261" y="371" on="1"/>
        <pt x="400" y="277" on="0"/>
      </contour>
    </TTGlyph>
    <TTGlyph name="asterisk" xMin="43" yMin="383" xMax="326" yMax="711">
      <contour>
        <pt x="211" y="677" on="1"/>
        <pt x="244" y="683" on="1"/>
        <pt x="246" y="681" on="1"/>
        <pt x="211" y="628" on="0"/>
        <pt x="203" y="576" on="1"/>
        <pt x="248" y="609" on="0"/>
        <pt x="277" y="661" on="1"/>
        <pt x="280" y="661" on="1"/>
        <pt x="284" y="654" on="0"/>
        <pt x="288" y="628" on="1"/>
        <pt x="304" y="631" on="0"/>
        <pt x="322" y="631" on="0"/>
        <pt x="326" y="629" on="1"/>
        <pt x="326" y="621" on="0"/>
        <pt x="303" y="595" on="1"/>
        <pt x="304" y="593" on="0"/>
        <pt x="309" y="588" on="1"/>
        <pt x="322" y="576" on="0"/>
        <pt x="323" y="571" on="1"/>
        <pt x="322" y="569" on="1"/>
        <pt x="318" y="569" on="0"/>
        <pt x="314" y="569" on="1"/>
        <pt x="268" y="569" on="0"/>
        <pt x="215" y="547" on="1"/>
        <pt x="261" y="525" on="0"/>
        <pt x="311" y="525" on="1"/>
        <pt x="315" y="525" on="0"/>
        <pt x="319" y="525" on="1"/>
        <pt x="320" y="523" on="1"/>
        <pt x="318" y="520" on="0"/>
        <pt x="297" y="499" on="1"/>
        <pt x="316" y="475" on="0"/>
        <pt x="316" y="465" on="1"/>
        <pt x="312" y="462" on="0"/>
        <pt x="292" y="462" on="0"/>
        <pt x="277" y="465" on="1"/>
        <pt x="271" y="447" on="0"/>
        <pt x="265" y="435" on="1"/>
        <pt x="262" y="435" on="1"/>
        <pt x="241" y="482" on="0"/>
        <pt x="199" y="518" on="1"/>
        <pt x="200" y="463" on="0"/>
        <pt x="227" y="412" on="1"/>
        <pt x="226" y="410" on="1"/>
        <pt x="195" y="418" on="1"/>
        <pt x="181" y="387" on="0"/>
        <pt x="173" y="383" on="1"/>
        <pt x="164" y="388" on="0"/>
        <pt x="156" y="419" on="1"/>
        <pt x="125" y="412" on="1"/>
        <pt x="123" y="414" on="1"/>
        <pt x="157" y="469" on="0"/>
        <pt x="166" y="518" on="1"/>
        <pt x="125" y="488" on="0"/>
        <pt x="92" y="434" on="1"/>
        <pt x="89" y="434" on="1"/>
        <pt x="82" y="466" on="1"/>
        <pt x="66" y="463" on="0"/>
        <pt x="47" y="463" on="0"/>
        <pt x="43" y="465" on="1"/>
        <pt x="44" y="474" on="0"/>
        <pt x="65" y="501" on="1"/>
        <pt x="46" y="525" on="1"/>
        <pt x="47" y="527" on="1"/>
        <pt x="52" y="527" on="0"/>
        <pt x="57" y="527" on="1"/>
        <pt x="109" y="527" on="0"/>
        <pt x="154" y="547" on="1"/>
        <pt x="107" y="568" on="0"/>
        <pt x="59" y="568" on="1"/>
        <pt x="55" y="568" on="0"/>
        <pt x="51" y="568" on="1"/>
        <pt x="51" y="570" on="1"/>
        <pt x="54" y="576" on="0"/>
        <pt x="72" y="594" on="1"/>
        <pt x="53" y="622" on="0"/>
        <pt x="53" y="629" on="1"/>
        <pt x="57" y="631" on="0"/>
        <pt x="76" y="631" on="0"/>
        <pt x="93" y="628" on="1"/>
        <pt x="103" y="659" on="0"/>
        <pt x="104" y="660" on="1"/>
        <pt x="107" y="660" on="1"/>
        <pt x="131" y="608" on="0"/>
        <pt x="170" y="576" on="1"/>
        <pt x="167" y="633" on="0"/>
        <pt x="142" y="681" on="1"/>
        <pt x="144" y="683" on="1"/>
        <pt x="151" y="683" on="0"/>
        <pt x="175" y="677" on="1"/>
        <pt x="189" y="707" on="0"/>
        <pt x="196" y="711" on="1"/>
        <pt x="203" y="707" on="0"/>
      </contour>
    </TTGlyph>
    <TTGlyph name="at" xMin="30" yMin="-190" xMax="823" yMax="685">
      <contour>
        <pt x="616" y="193" on="1"/>
        <pt x="616" y="103" on="0"/>
        <pt x="624" y="58" on="1"/>
        <pt x="683" y="110" on="0"/>
        <pt x="746" y="290" on="0"/>
        <pt x="746" y="375" on="1"/>
        <pt x="746" y="501" on="0"/>
        <pt x="606" y="624" on="0"/>
        <pt x="366" y="624" on="0"/>
        <pt x="296" y="586" on="1"/>
        <pt x="209" y="510" on="0"/>
        <pt x="110" y="251" on="0"/>
        <pt x="110" y="8" on="0"/>
        <pt x="239" y="-129" on="0"/>
        <pt x="353" y="-129" on="1"/>
        <pt x="418" y="-129" on="0"/>
        <pt x="476" y="-106" on="1"/>
        <pt x="482" y="-120" on="1"/>
        <pt x="394" y="-178" on="0"/>
        <pt x="341" y="-190" on="1"/>
        <pt x="193" y="-190" on="0"/>
        <pt x="30" y="-42" on="0"/>
        <pt x="30" y="102" on="1"/>
        <pt x="30" y="330" on="0"/>
        <pt x="265" y="651" on="0"/>
        <pt x="477" y="685" on="1"/>
        <pt x="633" y="685" on="0"/>
        <pt x="823" y="548" on="0"/>
        <pt x="823" y="265" on="0"/>
        <pt x="675" y="26" on="0"/>
        <pt x="550" y="-15" on="1"/>
        <pt x="474" y="-4" on="0"/>
        <pt x="474" y="165" on="1"/>
        <pt x="456" y="170" on="0"/>
        <pt x="395" y="170" on="0"/>
        <pt x="373" y="165" on="1"/>
        <pt x="357" y="102" on="0"/>
        <pt x="357" y="30" on="0"/>
        <pt x="363" y="0" on="1"/>
        <pt x="264" y="0" on="0"/>
        <pt x="196" y="-12" on="1"/>
        <pt x="186" y="-5" on="1"/>
        <pt x="363" y="483" on="1"/>
        <pt x="331" y="498" on="0"/>
        <pt x="320" y="506" on="1"/>
        <pt x="325" y="524" on="1"/>
        <pt x="384" y="515" on="0"/>
        <pt x="572" y="515" on="0"/>
        <pt x="638" y="526" on="1"/>
        <pt x="642" y="522" on="1"/>
        <pt x="616" y="411" on="0"/>
      </contour>
      <contour>
        <pt x="386" y="232" on="1"/>
        <pt x="398" y="227" on="0"/>
        <pt x="463" y="227" on="0"/>
        <pt x="476" y="233" on="1"/>
        <pt x="480" y="302" on="0"/>
        <pt x="480" y="416" on="0"/>
        <pt x="477" y="459" on="1"/>
        <pt x="472" y="462" on="0"/>
        <pt x="457" y="462" on="0"/>
        <pt x="447" y="459" on="0"/>
        <pt x="440" y="449" on="0"/>
        <pt x="435" y="443" on="0"/>
        <pt x="430" y="427" on="0"/>
        <pt x="429" y="424" on="1"/>
        <pt x="424" y="406" on="0"/>
        <pt x="424" y="399" on="1"/>
      </contour>
    </TTGlyph>
    <TTGlyph name="atilde" xMin="-14" yMin="-15" xMax="538" yMax="756">
      <contour>
        <pt x="289" y="171" on="1"/>
        <pt x="269" y="176" on="0"/>
        <pt x="205" y="176" on="0"/>
        <pt x="183" y="171" on="1"/>
        <pt x="166" y="105" on="0"/>
        <pt x="166" y="29" on="0"/>
        <pt x="172" y="-3" on="1"/>
        <pt x="68" y="-3" on="0"/>
        <pt x="-4" y="-15" on="1"/>
        <pt x="-14" y="-8" on="1"/>
        <pt x="172" y="506" on="1"/>
        <pt x="142" y="519" on="0"/>
        <pt x="127" y="530" on="1"/>
        <pt x="132" y="549" on="1"/>
        <pt x="194" y="540" on="0"/>
        <pt x="392" y="540" on="0"/>
        <pt x="461" y="551" on="1"/>
        <pt x="466" y="547" on="1"/>
        <pt x="454" y="498" on="0"/>
        <pt x="438" y="266" on="0"/>
        <pt x="438" y="44" on="0"/>
        <pt x="447" y="-3" on="1"/>
        <pt x="336" y="-3" on="0"/>
        <pt x="271" y="-15" on="1"/>
        <pt x="266" y="-11" on="1"/>
        <pt x="282" y="60" on="0"/>
      </contour>
      <contour>
        <pt x="196" y="242" on="1"/>
        <pt x="212" y="236" on="0"/>
        <pt x="274" y="236" on="0"/>
        <pt x="291" y="243" on="1"/>
        <pt x="295" y="315" on="0"/>
        <pt x="295" y="434" on="0"/>
        <pt x="292" y="481" on="1"/>
        <pt x="287" y="484" on="0"/>
        <pt x="266" y="484" on="0"/>
        <pt x="258" y="481" on="1"/>
        <pt x="247" y="464" on="0"/>
        <pt x="236" y="417" on="1"/>
      </contour>
      <contour>
        <pt x="301" y="756" on="1"/>
        <pt x="374" y="708" on="0"/>
        <pt x="480" y="708" on="0"/>
        <pt x="514" y="743" on="1"/>
        <pt x="538" y="726" on="1"/>
        <pt x="474" y="638" on="0"/>
        <pt x="398" y="607" on="1"/>
        <pt x="373" y="607" on="0"/>
        <pt x="260" y="655" on="0"/>
        <pt x="235" y="655" on="1"/>
        <pt x="187" y="655" on="0"/>
        <pt x="154" y="620" on="1"/>
        <pt x="129" y="637" on="1"/>
        <pt x="155" y="673" on="0"/>
        <pt x="252" y="740" on="0"/>
      </contour>
    </TTGlyph>
    <TTGlyph name="b" xMin="41" yMin="-15" xMax="492" yMax="549">
      <contour>
        <pt x="42" y="540" on="1"/>
        <pt x="307" y="549" on="1"/>
        <pt x="355" y="549" on="0"/>
        <pt x="419" y="536" on="0"/>
        <pt x="465" y="491" on="0"/>
        <pt x="465" y="451" on="1"/>
        <pt x="465" y="360" on="0"/>
        <pt x="337" y="308" on="1"/>
        <pt x="337" y="305" on="1"/>
        <pt x="410" y="305" on="0"/>
        <pt x="492" y="257" on="0"/>
        <pt x="492" y="195" on="1"/>
        <pt x="492" y="158" on="0"/>
        <pt x="438" y="88" on="0"/>
        <pt x="394" y="62" on="1"/>
        <pt x="314" y="13" on="0"/>
        <pt x="231" y="-15" on="1"/>
        <pt x="204" y="-8" on="1"/>
        <pt x="156" y="5" on="0"/>
        <pt x="70" y="5" on="0"/>
        <pt x="54" y="1" on="1"/>
        <pt x="48" y="14" on="1"/>
        <pt x="66" y="34" on="0"/>
        <pt x="72" y="79" on="1"/>
        <pt x="87" y="220" on="0"/>
        <pt x="87" y="450" on="0"/>
        <pt x="81" y="507" on="1"/>
        <pt x="57" y="513" on="0"/>
        <pt x="41" y="521" on="1"/>
      </contour>
      <contour>
        <pt x="229" y="161" on="1"/>
        <pt x="230" y="75" on="1"/>
        <pt x="248" y="64" on="0"/>
        <pt x="303" y="64" on="0"/>
        <pt x="318" y="75" on="1"/>
        <pt x="332" y="112" on="0"/>
        <pt x="332" y="227" on="0"/>
        <pt x="298" y="282" on="0"/>
        <pt x="246" y="282" on="1"/>
        <pt x="250" y="317" on="1"/>
        <pt x="271" y="319" on="0"/>
        <pt x="284" y="325" on="1"/>
        <pt x="306" y="366" on="0"/>
        <pt x="306" y="492" on="0"/>
        <pt x="268" y="492" on="1"/>
        <pt x="253" y="492" on="0"/>
        <pt x="240" y="487" on="1"/>
        <pt x="229" y="339" on="0"/>
      </contour>
    </TTGlyph>
    <TTGlyph name="backslash" xMin="7" yMin="-48" xMax="277" yMax="722">
      <contour>
        <pt x="219" y="-48" on="1"/>
        <pt x="212" y="-48" on="1"/>
        <pt x="75" y="460" on="1"/>
        <pt x="35" y="606" on="0"/>
        <pt x="7" y="694" on="1"/>
        <pt x="50" y="708" on="0"/>
        <pt x="74" y="722" on="1"/>
        <pt x="80" y="722" on="1"/>
        <pt x="104" y="594" on="0"/>
        <pt x="134" y="480" on="1"/>
        <pt x="219" y="179" on="1"/>
        <pt x="242" y="93" on="0"/>
        <pt x="277" y="-11" on="1"/>
        <pt x="256" y="-33" on="0"/>
      </contour>
    </TTGlyph>
    <TTGlyph name="bar" xMin="92" yMin="-218" xMax="169" yMax="755">
      <contour>
        <pt x="166" y="-195" on="1"/>
        <pt x="142" y="-209" on="0"/>
        <pt x="111" y="-218" on="1"/>
        <pt x="101" y="-214" on="1"/>
        <pt x="101" y="534" on="0"/>
        <pt x="92" y="719" on="1"/>
        <pt x="133" y="735" on="0"/>
        <pt x="162" y="755" on="1"/>
        <pt x="169" y="754" on="1"/>
        <pt x="166" y="466" on="0"/>
      </contour>
    </TTGlyph>
    <TTGlyph name="braceleft" xMin="47" yMin="-215" xMax="280" yMax="711">
      <contour>
        <pt x="192" y="596" on="1"/>
        <pt x="191" y="585" on="0"/>
        <pt x="191" y="528" on="0"/>
        <pt x="214" y="379" on="0"/>
        <pt x="214" y="334" on="0"/>
        <pt x="214" y="329" on="1"/>
        <pt x="197" y="297" on="0"/>
        <pt x="115" y="250" on="1"/>
        <pt x="115" y="246" on="1"/>
        <pt x="190" y="200" on="0"/>
        <pt x="202" y="167" on="1"/>
        <pt x="199" y="128" on="0"/>
        <pt x="145" y="-51" on="0"/>
        <pt x="142" y="-99" on="1"/>
        <pt x="149" y="-127" on="0"/>
        <pt x="192" y="-182" on="0"/>
        <pt x="217" y="-196" on="1"/>
        <pt x="208" y="-215" on="1"/>
        <pt x="159" y="-200" on="0"/>
        <pt x="69" y="-119" on="0"/>
        <pt x="69" y="-78" on="1"/>
        <pt x="69" y="-44" on="0"/>
        <pt x="115" y="152" on="0"/>
        <pt x="115" y="189" on="1"/>
        <pt x="115" y="208" on="0"/>
        <pt x="77" y="232" on="0"/>
        <pt x="50" y="236" on="1"/>
        <pt x="47" y="255" on="1"/>
        <pt x="121" y="271" on="0"/>
        <pt x="123" y="309" on="1"/>
        <pt x="124" y="325" on="0"/>
        <pt x="124" y="384" on="0"/>
        <pt x="113" y="500" on="0"/>
        <pt x="113" y="556" on="0"/>
        <pt x="114" y="569" on="1"/>
        <pt x="117" y="612" on="0"/>
        <pt x="222" y="696" on="0"/>
        <pt x="273" y="711" on="1"/>
        <pt x="280" y="693" on="1"/>
        <pt x="253" y="680" on="0"/>
        <pt x="203" y="624" on="0"/>
      </contour>
    </TTGlyph>
    <TTGlyph name="braceright" xMin="20" yMin="-215" xMax="253" yMax="711">
      <contour>
        <pt x="108" y="-100" on="1"/>
        <pt x="109" y="-89" on="0"/>
        <pt x="109" y="-32" on="0"/>
        <pt x="86" y="117" on="0"/>
        <pt x="86" y="162" on="0"/>
        <pt x="86" y="167" on="1"/>
        <pt x="103" y="199" on="0"/>
        <pt x="185" y="246" on="1"/>
        <pt x="185" y="250" on="1"/>
        <pt x="110" y="296" on="0"/>
        <pt x="98" y="329" on="1"/>
        <pt x="101" y="368" on="0"/>
        <pt x="155" y="547" on="0"/>
        <pt x="158" y="595" on="1"/>
        <pt x="151" y="623" on="0"/>
        <pt x="108" y="678" on="0"/>
        <pt x="83" y="692" on="1"/>
        <pt x="92" y="711" on="1"/>
        <pt x="141" y="696" on="0"/>
        <pt x="231" y="615" on="0"/>
        <pt x="231" y="574" on="1"/>
        <pt x="231" y="535" on="0"/>
        <pt x="185" y="340" on="0"/>
        <pt x="185" y="307" on="1"/>
        <pt x="185" y="288" on="0"/>
        <pt x="223" y="264" on="0"/>
        <pt x="250" y="260" on="1"/>
        <pt x="253" y="241" on="1"/>
        <pt x="179" y="225" on="0"/>
        <pt x="177" y="187" on="1"/>
        <pt x="176" y="171" on="0"/>
        <pt x="176" y="112" on="0"/>
        <pt x="187" y="-4" on="0"/>
        <pt x="187" y="-60" on="0"/>
        <pt x="186" y="-73" on="1"/>
        <pt x="183" y="-116" on="0"/>
        <pt x="78" y="-200" on="0"/>
        <pt x="27" y="-215" on="1"/>
        <pt x="20" y="-197" on="1"/>
        <pt x="47" y="-184" on="0"/>
        <pt x="97" y="-128" on="0"/>
      </contour>
    </TTGlyph>
    <TTGlyph name="bracketleft" xMin="64" yMin="-208" xMax="332" yMax="704">
      <contour>
        <pt x="243" y="-193" on="1"/>
        <pt x="134" y="-193" on="0"/>
        <pt x="71" y="-208" on="1"/>
        <pt x="64" y="-203" on="1"/>
        <pt x="80" y="-133" on="0"/>
        <pt x="128" y="574" on="0"/>
        <pt x="128" y="689" on="0"/>
        <pt x="127" y="699" on="1"/>
        <pt x="135" y="704" on="1"/>
        <pt x="195" y="689" on="0"/>
        <pt x="305" y="689" on="1"/>
        <pt x="318" y="689" on="0"/>
        <pt x="332" y="689" on="1"/>
        <pt x="330" y="664" on="1"/>
        <pt x="277" y="662" on="0"/>
        <pt x="207" y="644" on="1"/>
        <pt x="151" y="-147" on="1"/>
        <pt x="220" y="-166" on="0"/>
        <pt x="271" y="-168" on="1"/>
        <pt x="270" y="-193" on="1"/>
        <pt x="256" y="-193" on="0"/>
      </contour>
    </TTGlyph>
    <TTGlyph name="bracketright" xMin="-12" yMin="-208" xMax="256" yMax="704">
      <contour>
        <pt x="77" y="689" on="1"/>
        <pt x="186" y="689" on="0"/>
        <pt x="249" y="704" on="1"/>
        <pt x="256" y="699" on="1"/>
        <pt x="240" y="629" on="0"/>
        <pt x="192" y="-78" on="0"/>
        <pt x="192" y="-193" on="0"/>
        <pt x="193" y="-203" on="1"/>
        <pt x="185" y="-208" on="1"/>
        <pt x="125" y="-193" on="0"/>
        <pt x="15" y="-193" on="1"/>
        <pt x="2" y="-193" on="0"/>
        <pt x="-12" y="-193" on="1"/>
        <pt x="-10" y="-168" on="1"/>
        <pt x="43" y="-166" on="0"/>
        <pt x="113" y="-148" on="1"/>
        <pt x="169" y="643" on="1"/>
        <pt x="100" y="662" on="0"/>
        <pt x="49" y="664" on="1"/>
        <pt x="50" y="689" on="1"/>
        <pt x="64" y="689" on="0"/>
      </contour>
    </TTGlyph>
    <TTGlyph name="brokenbar" xMin="92" yMin="-217" xMax="169" yMax="762">
      <contour>
        <pt x="166" y="345" on="1"/>
        <pt x="142" y="331" on="0"/>
        <pt x="111" y="322" on="1"/>
        <pt x="101" y="326" on="1"/>
        <pt x="101" y="517" on="0"/>
        <pt x="93" y="682" on="0"/>
        <pt x="92" y="726" on="1"/>
        <pt x="133" y="742" on="0"/>
        <pt x="162" y="762" on="1"/>
        <pt x="169" y="761" on="1"/>
        <pt x="166" y="473" on="0"/>
      </contour>
      <contour>
        <pt x="166" y="-194" on="1"/>
        <pt x="142" y="-208" on="0"/>
        <pt x="111" y="-217" on="1"/>
        <pt x="101" y="-213" on="1"/>
        <pt x="101" y="-21" on="0"/>
        <pt x="93" y="137" on="0"/>
        <pt x="92" y="182" on="1"/>
        <pt x="140" y="203" on="0"/>
        <pt x="162" y="219" on="1"/>
        <pt x="169" y="218" on="1"/>
        <pt x="166" y="-70" on="0"/>
      </contour>
    </TTGlyph>
    <TTGlyph name="bullet" xMin="21" yMin="114" xMax="315" yMax="434">
      <contour>
        <pt x="315" y="290" on="1"/>
        <pt x="313" y="275" on="1"/>
        <pt x="209" y="197" on="0"/>
        <pt x="156" y="114" on="1"/>
        <pt x="141" y="114" on="1"/>
        <pt x="109" y="196" on="0"/>
        <pt x="21" y="274" on="1"/>
        <pt x="24" y="289" on="1"/>
        <pt x="80" y="325" on="0"/>
        <pt x="149" y="387" on="0"/>
        <pt x="179" y="434" on="1"/>
        <pt x="195" y="434" on="1"/>
        <pt x="215" y="388" on="0"/>
        <pt x="269" y="327" on="0"/>
      </contour>
    </TTGlyph>
    <TTGlyph name="c" xMin="28" yMin="-15" xMax="425" yMax="552">
      <contour>
        <pt x="28" y="192" on="1"/>
        <pt x="28" y="410" on="0"/>
        <pt x="280" y="552" on="1"/>
        <pt x="313" y="540" on="0"/>
        <pt x="400" y="540" on="0"/>
        <pt x="418" y="546" on="1"/>
        <pt x="425" y="533" on="1"/>
        <pt x="403" y="503" on="0"/>
        <pt x="377" y="392" on="0"/>
        <pt x="377" y="348" on="1"/>
        <pt x="358" y="348" on="1"/>
        <pt x="348" y="376" on="0"/>
        <pt x="343" y="403" on="1"/>
        <pt x="327" y="416" on="1"/>
        <pt x="269" y="464" on="0"/>
        <pt x="230" y="464" on="1"/>
        <pt x="187" y="361" on="0"/>
        <pt x="187" y="225" on="1"/>
        <pt x="187" y="65" on="0"/>
        <pt x="281" y="65" on="1"/>
        <pt x="301" y="105" on="0"/>
        <pt x="301" y="165" on="1"/>
        <pt x="301" y="180" on="0"/>
        <pt x="299" y="194" on="1"/>
        <pt x="305" y="198" on="1"/>
        <pt x="373" y="200" on="0"/>
        <pt x="422" y="208" on="1"/>
        <pt x="410" y="140" on="0"/>
        <pt x="313" y="18" on="0"/>
        <pt x="248" y="-15" on="1"/>
        <pt x="145" y="-15" on="0"/>
        <pt x="28" y="92" on="0"/>
      </contour>
    </TTGlyph>
    <TTGlyph name="caron" xMin="0" yMin="543" xMax="414" yMax="746">
      <contour>
        <pt x="14" y="746" on="1"/>
        <pt x="217" y="666" on="1"/>
        <pt x="400" y="746" on="1"/>
        <pt x="414" y="722" on="1"/>
        <pt x="271" y="632" on="0"/>
        <pt x="214" y="543" on="1"/>
        <pt x="170" y="543" on="1"/>
        <pt x="113" y="647" on="0"/>
        <pt x="0" y="722" on="1"/>
      </contour>
    </TTGlyph>
    <TTGlyph name="caron.cap" xMin="0" yMin="718" xMax="414" yMax="898">
      <contour>
        <pt x="11" y="898" on="1"/>
        <pt x="217" y="838" on="1"/>
        <pt x="403" y="898" on="1"/>
        <pt x="414" y="873" on="1"/>
        <pt x="266" y="796" on="0"/>
        <pt x="220" y="718" on="1"/>
        <pt x="174" y="718" on="1"/>
        <pt x="119" y="811" on="0"/>
        <pt x="0" y="873" on="1"/>
      </contour>
    </TTGlyph>
    <TTGlyph name="ccedilla" xMin="28" yMin="-235" xMax="425" yMax="552">
      <contour>
        <pt x="28" y="192" on="1"/>
        <pt x="28" y="92" on="0"/>
        <pt x="145" y="-15" on="0"/>
        <pt x="248" y="-15" on="1"/>
        <pt x="313" y="18" on="0"/>
        <pt x="410" y="140" on="0"/>
        <pt x="422" y="208" on="1"/>
        <pt x="373" y="200" on="0"/>
        <pt x="305" y="198" on="1"/>
        <pt x="299" y="194" on="1"/>
        <pt x="301" y="180" on="0"/>
        <pt x="301" y="165" on="1"/>
        <pt x="301" y="105" on="0"/>
        <pt x="281" y="65" on="1"/>
        <pt x="187" y="65" on="0"/>
        <pt x="187" y="225" on="1"/>
        <pt x="187" y="361" on="0"/>
        <pt x="230" y="464" on="1"/>
        <pt x="269" y="464" on="0"/>
        <pt x="327" y="416" on="1"/>
        <pt x="343" y="403" on="1"/>
        <pt x="348" y="376" on="0"/>
        <pt x="358" y="348" on="1"/>
        <pt x="377" y="348" on="1"/>
        <pt x="377" y="392" on="0"/>
        <pt x="403" y="503" on="0"/>
        <pt x="425" y="533" on="1"/>
        <pt x="418" y="546" on="1"/>
        <pt x="400" y="540" on="0"/>
        <pt x="313" y="540" on="0"/>
        <pt x="280" y="552" on="1"/>
        <pt x="28" y="410" on="0"/>
      </contour>
      <contour>
        <pt x="336" y="-126" on="1"/>
        <pt x="336" y="-133" on="0"/>
        <pt x="335" y="-140" on="1"/>
        <pt x="288" y="-212" on="0"/>
        <pt x="214" y="-235" on="1"/>
        <pt x="161" y="-235" on="0"/>
        <pt x="113" y="-210" on="1"/>
        <pt x="130" y="-185" on="0"/>
        <pt x="151" y="-138" on="1"/>
        <pt x="156" y="-136" on="1"/>
        <pt x="183" y="-176" on="0"/>
        <pt x="231" y="-176" on="1"/>
        <pt x="249" y="-176" on="0"/>
        <pt x="258" y="-172" on="1"/>
        <pt x="264" y="-164" on="0"/>
        <pt x="264" y="-146" on="1"/>
        <pt x="264" y="-101" on="0"/>
        <pt x="177" y="-101" on="1"/>
        <pt x="170" y="-96" on="1"/>
        <pt x="228" y="17" on="1"/>
        <pt x="273" y="19" on="1"/>
        <pt x="235" y="-38" on="1"/>
        <pt x="239" y="-42" on="1"/>
        <pt x="287" y="-42" on="0"/>
        <pt x="336" y="-90" on="0"/>
      </contour>
    </TTGlyph>
    <TTGlyph name="cedilla" xMin="1" yMin="-235" xMax="224" yMax="19">
      <contour>
        <pt x="224" y="-126" on="1"/>
        <pt x="224" y="-133" on="0"/>
        <pt x="223" y="-140" on="1"/>
        <pt x="176" y="-212" on="0"/>
        <pt x="102" y="-235" on="1"/>
        <pt x="49" y="-235" on="0"/>
        <pt x="1" y="-210" on="1"/>
        <pt x="18" y="-185" on="0"/>
        <pt x="39" y="-138" on="1"/>
        <pt x="44" y="-136" on="1"/>
        <pt x="71" y="-176" on="0"/>
        <pt x="119" y="-176" on="1"/>
        <pt x="137" y="-176" on="0"/>
        <pt x="146" y="-172" on="1"/>
        <pt x="152" y="-164" on="0"/>
        <pt x="152" y="-146" on="1"/>
        <pt x="152" y="-101" on="0"/>
        <pt x="65" y="-101" on="1"/>
        <pt x="58" y="-96" on="1"/>
        <pt x="116" y="17" on="1"/>
        <pt x="161" y="19" on="1"/>
        <pt x="123" y="-38" on="1"/>
        <pt x="127" y="-42" on="1"/>
        <pt x="175" y="-42" on="0"/>
        <pt x="224" y="-90" on="0"/>
      </contour>
    </TTGlyph>
    <TTGlyph name="cent" xMin="20" yMin="-92" xMax="365" yMax="594">
      <contour>
        <pt x="115" y="1" on="0"/>
        <pt x="20" y="94" on="0"/>
        <pt x="20" y="272" on="0"/>
        <pt x="137" y="438" on="0"/>
        <pt x="232" y="497" on="1"/>
        <pt x="237" y="588" on="1"/>
        <pt x="255" y="590" on="0"/>
        <pt x="267" y="594" on="1"/>
        <pt x="271" y="591" on="1"/>
        <pt x="267" y="561" on="0"/>
        <pt x="262" y="500" on="1"/>
        <pt x="299" y="490" on="0"/>
        <pt x="348" y="490" on="0"/>
        <pt x="359" y="494" on="1"/>
        <pt x="365" y="479" on="1"/>
        <pt x="320" y="429" on="0"/>
        <pt x="313" y="311" on="1"/>
        <pt x="295" y="311" on="1"/>
        <pt x="290" y="330" on="0"/>
        <pt x="284" y="361" on="1"/>
        <pt x="270" y="382" on="1"/>
        <pt x="264" y="390" on="0"/>
        <pt x="253" y="399" on="1"/>
        <pt x="234" y="105" on="1"/>
        <pt x="275" y="146" on="0"/>
        <pt x="308" y="229" on="1"/>
        <pt x="332" y="224" on="1"/>
        <pt x="302" y="97" on="0"/>
        <pt x="227" y="23" on="1"/>
        <pt x="222" y="-91" on="1"/>
        <pt x="217" y="-92" on="1"/>
        <pt x="198" y="-86" on="0"/>
        <pt x="188" y="-77" on="1"/>
        <pt x="198" y="0" on="1"/>
        <pt x="197" y="-1" on="1"/>
      </contour>
      <contour>
        <pt x="202" y="424" on="1"/>
        <pt x="175" y="326" on="0"/>
        <pt x="175" y="138" on="0"/>
        <pt x="206" y="112" on="1"/>
        <pt x="227" y="416" on="1"/>
        <pt x="216" y="422" on="0"/>
      </contour>
    </TTGlyph>
</ttFont>
